<svg width="192" height="192" fill="none" xmlns="http://www.w3.org/2000/svg"><path fill-rule="evenodd" clip-rule="evenodd" d="M70.178 41.478c-.404.443-.43 2.085-.356 22.187l.08 21.708.591 2.046c.879 3.044 2.836 6.894 4.617 9.08 2.174 2.669 15.014 15.254 15.9 15.585 1.096.409 9.958.34 10.729-.083 1.053-.579 14.638-13.88 16.03-15.696 1.582-2.063 3.634-6.109 4.442-8.758l.585-1.918.081-21.836c.075-20.222.049-21.872-.355-22.315-.393-.43-.862-.478-4.611-.478-3.139 0-4.472.1-5.379.407-1.648.556-3.579 2.337-4.337 3.997l-.615 1.35-.13 18.159c-.128 18.05-.132 18.167-.705 19.565-.738 1.805-1.704 2.935-6.178 7.23-2.948 2.832-3.798 3.512-4.388 3.513-.605 0-1.45-.721-4.868-4.156-4.409-4.432-5.298-5.712-5.8-8.348-.16-.845-.261-7.98-.261-18.469 0-16.478-.019-17.14-.518-18.461-.682-1.807-2.49-3.598-4.314-4.274-1.177-.436-2.012-.513-5.593-.513-3.785 0-4.254.048-4.647.478Zm23.56-.125c-2.274.805-3.57 2.024-4.673 4.392l-.588 1.265V82.06l.823 1.658c1.11 2.233 5.806 6.9 6.944 6.9.609 0 1.316-.572 3.885-3.138 2.813-2.809 3.186-3.287 3.562-4.57.374-1.274.413-3.377.348-18.922l-.074-17.488-.765-1.37c-.958-1.714-2.528-3.1-4.168-3.683-1.471-.523-3.957-.566-5.294-.093Z" fill="#000"/><path d="M137.37 132.015h9.184c.948 0 1.547.487 1.798 1.463l3.233 11.93c.205.743.307 1.487.307 2.23v2.913a1.4 1.4 0 0 1-.418 1.031 1.402 1.402 0 0 1-1.032.418h-1.937c-.975 0-1.593-.483-1.853-1.449l-3.206-11.874c-.111-.419-.293-.725-.543-.92-.251-.205-.604-.307-1.06-.307h-4.473c-.409 0-.758-.139-1.046-.418a1.452 1.452 0 0 1-.418-1.045v-2.509c0-.409.14-.753.418-1.031a1.425 1.425 0 0 1 1.046-.432ZM157.857 152h-3.93c-.409 0-.758-.139-1.046-.418a1.403 1.403 0 0 1-.418-1.031v-17.073c0-.409.14-.753.418-1.031a1.425 1.425 0 0 1 1.046-.432h3.93c.409 0 .753.144 1.031.432.288.278.432.622.432 1.031v17.073c0 .409-.144.752-.432 1.031a1.398 1.398 0 0 1-1.031.418Zm-15.094-12.529v11.08a1.4 1.4 0 0 1-.418 1.031 1.4 1.4 0 0 1-1.031.418h-3.944c-.409 0-.758-.139-1.046-.418a1.403 1.403 0 0 1-.418-1.031v-11.08c0-.409.14-.753.418-1.031a1.425 1.425 0 0 1 1.046-.432h3.944c.409 0 .752.144 1.031.432.279.278.418.622.418 1.031ZM120.729 132.015h1.171c.408 0 .752.144 1.031.432.288.278.432.622.432 1.031v4.683c0 .678-.153 1.305-.46 1.881l-1.394 2.676c-.362.688-.933 1.032-1.714 1.032h-3.512c-.706 0-1.222-.27-1.547-.809-.325-.539-.325-1.124 0-1.756l4.167-7.902c.232-.446.493-.767.781-.962.288-.204.636-.306 1.045-.306Zm4.655 0h1.143c.408 0 .757.102 1.045.306.288.195.548.516.78.962l4.167 7.902c.326.632.326 1.217 0 1.756-.315.539-.826.809-1.533.809h-3.484c-.752 0-1.315-.335-1.686-1.004l-1.436-2.704c-.297-.557-.446-1.184-.446-1.881v-4.683c0-.409.14-.753.418-1.031a1.38 1.38 0 0 1 1.032-.432Zm-11.219 12.306h18.926c.706 0 1.222.307 1.547.92l.362.711c.233.446.349 1.017.349 1.714v2.885c0 .409-.144.752-.432 1.031a1.402 1.402 0 0 1-1.032.418h-2.397c-.65 0-1.143-.316-1.477-.947l-.376-.711c-.131-.26-.279-.446-.446-.558-.168-.121-.4-.181-.697-.181h-9.728c-.298 0-.53.06-.697.181-.167.112-.316.298-.446.558l-.376.711c-.335.631-.827.947-1.478.947h-2.397c-.409 0-.757-.139-1.045-.418a1.4 1.4 0 0 1-.418-1.031v-2.885c0-.697.116-1.268.348-1.714l.376-.711c.326-.613.837-.92 1.534-.92ZM96.074 133.478v17.073a1.4 1.4 0 0 1-.418 1.031 1.4 1.4 0 0 1-1.031.418H90.68c-.41 0-.758-.139-1.046-.418a1.4 1.4 0 0 1-.418-1.031v-17.073c0-.409.14-.753.418-1.031a1.424 1.424 0 0 1 1.046-.432h3.944c.409 0 .752.144 1.031.432a1.4 1.4 0 0 1 .418 1.031Zm5.826 3.972h-3.805a1.4 1.4 0 0 1-1.031-.418 1.449 1.449 0 0 1-.418-1.045v-2.509c0-.409.139-.753.418-1.031a1.378 1.378 0 0 1 1.031-.432h3.666c.854 0 1.695.065 2.522.195.827.121 1.515.255 2.063.404.548.149 1.124.353 1.728.613.613.251 1.041.441 1.282.572.251.13.572.306.962.529.687.409 1.031.999 1.031 1.77v1.464c0 .408-.144.752-.432 1.031a1.4 1.4 0 0 1-1.031.418h-3.819a2.229 2.229 0 0 1-1.631-.683c-.548-.585-1.393-.878-2.536-.878Zm7.568 6.383c-.465.27-.981.404-1.547.404h-9.882c-.408 0-.743-.125-1.003-.376-.26-.251-.39-.571-.39-.962 0-.39.13-.71.39-.961.26-.26.595-.39 1.003-.39h3.861c1.319 0 2.165-.321 2.536-.962.196-.344.419-.595.669-.753.251-.167.572-.251.962-.251h3.819c.418 0 .766.13 1.045.391.279.26.418.585.418.975v.6c0 .576-.241 1.063-.725 1.463-.501.39-.887.664-1.156.822Zm.418 8.167h-1.631c-.418 0-.78-.051-1.087-.153-.307-.112-.664-.307-1.073-.585l-4.571-3.178a3.359 3.359 0 0 0-1.91-.599H98.04c-.408 0-.743-.126-1.003-.377-.26-.251-.39-.571-.39-.961 0-.391.13-.711.39-.962s.595-.376 1.003-.376h9.826c.604 0 1.138.162 1.603.488l.989.682c.595.437.892 1.009.892 1.715v2.857c0 .409-.144.752-.432 1.031a1.4 1.4 0 0 1-1.031.418ZM74.5 152h-3.944c-.41 0-.758-.139-1.046-.418a1.4 1.4 0 0 1-.418-1.031v-17.073c0-.409.14-.753.418-1.031a1.424 1.424 0 0 1 1.046-.432H74.5c.409 0 .752.144 1.031.432a1.4 1.4 0 0 1 .418 1.031v17.073a1.4 1.4 0 0 1-.418 1.031A1.4 1.4 0 0 1 74.5 152Zm12.696-14.55H77.97a1.4 1.4 0 0 1-1.031-.418 1.449 1.449 0 0 1-.418-1.045v-2.509c0-.409.139-.753.418-1.031a1.378 1.378 0 0 1 1.031-.432h9.226c.41 0 .753.144 1.032.432a1.4 1.4 0 0 1 .418 1.031v2.509c0 .408-.14.757-.418 1.045a1.4 1.4 0 0 1-1.032.418Zm-2.717 7.247H77.97a1.4 1.4 0 0 1-1.031-.418 1.447 1.447 0 0 1-.418-1.045v-2.509c0-.409.139-.752.418-1.031a1.4 1.4 0 0 1 1.031-.418h6.509a1.4 1.4 0 0 1 1.031.418c.288.279.432.622.432 1.031v2.509c0 .409-.144.757-.432 1.045a1.4 1.4 0 0 1-1.031.418ZM87.196 152H77.97a1.4 1.4 0 0 1-1.031-.418 1.4 1.4 0 0 1-.418-1.031v-2.523c0-.409.139-.752.418-1.031a1.4 1.4 0 0 1 1.031-.418h9.226a1.4 1.4 0 0 1 1.032.418 1.4 1.4 0 0 1 .418 1.031v2.523a1.4 1.4 0 0 1-.418 1.031 1.4 1.4 0 0 1-1.032.418ZM67.086 137.45H47.588c-.409 0-.757-.139-1.045-.418a1.449 1.449 0 0 1-.419-1.045v-2.509c0-.409.14-.753.419-1.031a1.424 1.424 0 0 1 1.045-.432h19.498c.409 0 .752.144 1.031.432a1.4 1.4 0 0 1 .418 1.031v2.509c0 .408-.14.757-.418 1.045a1.4 1.4 0 0 1-1.031.418ZM59.323 152h-3.944a1.4 1.4 0 0 1-1.032-.418 1.4 1.4 0 0 1-.418-1.031v-11.08c0-.409.14-.753.418-1.031a1.378 1.378 0 0 1 1.032-.432h3.944c.409 0 .752.144 1.031.432.279.278.418.622.418 1.031v11.08a1.4 1.4 0 0 1-.418 1.031 1.4 1.4 0 0 1-1.031.418ZM31.407 152h-3.944c-.409 0-.757-.139-1.045-.418a1.4 1.4 0 0 1-.418-1.031v-17.073c0-.409.139-.753.418-1.031a1.424 1.424 0 0 1 1.045-.432h3.944c.409 0 .753.144 1.031.432a1.4 1.4 0 0 1 .418 1.031v17.073a1.4 1.4 0 0 1-.418 1.031 1.4 1.4 0 0 1-1.031.418Zm12.697-14.55h-9.227a1.4 1.4 0 0 1-1.031-.418 1.449 1.449 0 0 1-.418-1.045v-2.509c0-.409.14-.753.418-1.031a1.378 1.378 0 0 1 1.031-.432h9.227c.408 0 .752.144 1.03.432.28.278.419.622.419 1.031v2.509c0 .408-.14.757-.418 1.045a1.4 1.4 0 0 1-1.031.418Zm-2.718 7.247h-6.509a1.4 1.4 0 0 1-1.031-.418 1.447 1.447 0 0 1-.418-1.045v-2.509c0-.409.14-.752.418-1.031a1.4 1.4 0 0 1 1.031-.418h6.509a1.4 1.4 0 0 1 1.031.418c.288.279.432.622.432 1.031v2.509c0 .409-.144.757-.432 1.045a1.4 1.4 0 0 1-1.031.418ZM44.104 152h-9.227a1.4 1.4 0 0 1-1.031-.418 1.4 1.4 0 0 1-.418-1.031v-2.523c0-.409.14-.752.418-1.031a1.4 1.4 0 0 1 1.031-.418h9.227a1.4 1.4 0 0 1 1.03.418 1.4 1.4 0 0 1 .419 1.031v2.523a1.4 1.4 0 0 1-.418 1.031 1.4 1.4 0 0 1-1.031.418ZM11.993 152h-1.17c-.781 0-1.39-.418-1.827-1.254l-6.425-12.167c-.38-.725-.571-1.463-.571-2.216v-2.885c0-.409.14-.753.418-1.031a1.424 1.424 0 0 1 1.045-.432h2.398c.678 0 1.184.316 1.519.947l5.616 10.732a3.94 3.94 0 0 1 .46 1.881v4.976c0 .409-.144.752-.432 1.031a1.4 1.4 0 0 1-1.031.418Zm4.627 0h-1.143a1.4 1.4 0 0 1-1.031-.418 1.4 1.4 0 0 1-.418-1.031v-4.976c0-.697.148-1.324.446-1.881l5.602-10.732c.335-.631.836-.947 1.505-.947h2.398c.408 0 .752.144 1.03.432.289.278.433.622.433 1.031v2.885c0 .753-.19 1.491-.572 2.216l-6.424 12.167c-.437.836-1.046 1.254-1.826 1.254ZM173.466 140.897h5.172c.542 0 .886.271 1.03.813l1.456 5.203c.119.449.178.865.178 1.247v3.035c0 .227-.08.418-.24.573a.778.778 0 0 1-.573.232h-.759c-.531 0-.87-.268-1.014-.805l-1.874-6.612c-.124-.444-.421-.666-.89-.666h-2.486a.803.803 0 0 1-.58-.233.803.803 0 0 1-.233-.58v-1.394a.78.78 0 0 1 .233-.573.79.79 0 0 1 .58-.24Zm10.817 0h5.164c.227 0 .418.08.573.24.16.155.24.346.24.573v1.394a.79.79 0 0 1-.24.58.78.78 0 0 1-.573.233h-2.485c-.47 0-.767.222-.891.666l-1.873 6.612c-.145.537-.483.805-1.015.805h-.758a.778.778 0 0 1-.573-.232.78.78 0 0 1-.233-.573v-3.035c0-.403.057-.818.171-1.247l1.463-5.203c.145-.542.488-.813 1.03-.813Zm-7.82 4.142v6.156a.78.78 0 0 1-.233.573.774.774 0 0 1-.572.232h-2.192a.802.802 0 0 1-.58-.232.78.78 0 0 1-.233-.573v-6.156a.78.78 0 0 1 .233-.573.79.79 0 0 1 .58-.24h2.192c.227 0 .418.08.572.24a.78.78 0 0 1 .233.573Zm9.988 6.156v-6.156c0-.227.077-.418.232-.573.16-.16.354-.24.581-.24h2.183c.227 0 .418.08.573.24.16.155.24.346.24.573v6.156c0 .227-.08.418-.24.573a.778.778 0 0 1-.573.232h-2.183a.805.805 0 0 1-.581-.232.778.778 0 0 1-.232-.573Z" fill="#000"/><path d="M164.221 140.897h.651c.227 0 .418.08.573.24.16.155.24.346.24.573v2.602c0 .376-.085.725-.256 1.045l-.774 1.486c-.201.382-.519.573-.952.573h-1.951c-.393 0-.679-.149-.86-.449-.181-.299-.181-.624 0-.975l2.315-4.39c.129-.248.274-.426.434-.535a.979.979 0 0 1 .58-.17Zm2.587 0h.634a.98.98 0 0 1 .581.17c.16.109.305.287.434.535l2.315 4.39c.18.351.18.676 0 .975-.176.3-.46.449-.852.449h-1.936c-.418 0-.73-.185-.936-.557l-.798-1.502a2.188 2.188 0 0 1-.248-1.045v-2.602a.78.78 0 0 1 .233-.573.763.763 0 0 1 .573-.24Zm-6.233 6.837h10.514c.393 0 .679.17.86.511l.201.395c.129.247.194.565.194.952v1.603c0 .227-.08.418-.24.573a.778.778 0 0 1-.573.232h-1.332c-.361 0-.635-.175-.821-.526l-.209-.395a.775.775 0 0 0-.248-.31.652.652 0 0 0-.387-.101h-5.404a.652.652 0 0 0-.387.101.775.775 0 0 0-.248.31l-.209.395c-.186.351-.46.526-.821.526h-1.332a.802.802 0 0 1-.58-.232.78.78 0 0 1-.233-.573v-1.603c0-.387.065-.705.194-.952l.209-.395c.181-.341.464-.511.852-.511Z" fill="#000"/></svg>