<svg width="512" height="512" fill="none" xmlns="http://www.w3.org/2000/svg"><path stroke="#000" d="M.5.5h511v511H.5z"/><path fill-rule="evenodd" clip-rule="evenodd" d="M222.491 186.603c-.51.559-.543 2.63-.45 27.983l.102 27.38.745 2.581c1.108 3.839 3.577 8.694 5.823 11.451 2.742 3.367 18.936 19.24 20.055 19.658 1.381.515 12.559.428 13.531-.106 1.328-.729 18.463-17.506 20.218-19.796 1.996-2.602 4.583-7.704 5.603-11.046l.737-2.419.103-27.541c.095-25.505.062-27.586-.448-28.145-.495-.542-1.087-.603-5.815-.603-3.96 0-5.641.127-6.785.514-2.078.701-4.514 2.946-5.469 5.041l-.777 1.703-.163 22.903c-.162 22.764-.167 22.913-.889 24.676-.932 2.276-2.15 3.702-7.793 9.12-3.718 3.57-4.79 4.429-5.535 4.43-.763.001-1.829-.91-6.139-5.242-5.561-5.59-6.682-7.205-7.315-10.529-.202-1.066-.33-10.066-.33-23.294 0-20.783-.023-21.618-.653-23.284-.861-2.28-3.14-4.538-5.441-5.391-1.484-.551-2.538-.647-7.054-.647-4.774 0-5.366.061-5.861.603Zm29.715-.158c-2.868 1.016-4.504 2.553-5.894 5.54l-.742 1.595v44.207l1.039 2.09c1.4 2.817 7.322 8.702 8.758 8.702.767 0 1.659-.72 4.9-3.957 3.548-3.543 4.018-4.146 4.492-5.764.472-1.607.521-4.259.439-23.865l-.093-22.058-.965-1.727c-1.209-2.162-3.189-3.911-5.256-4.646-1.857-.659-4.991-.714-6.678-.117Z" fill="#000"/><path d="M307.236 300.793h11.584c1.196 0 1.951.615 2.268 1.846l4.078 15.047c.258.937.387 1.875.387 2.812v3.674c0 .516-.176.949-.528 1.301a1.768 1.768 0 0 1-1.3.527h-2.444c-1.23 0-2.01-.609-2.338-1.828l-4.043-14.977c-.14-.527-.369-.914-.685-1.16-.317-.258-.762-.387-1.336-.387h-5.643c-.515 0-.955-.175-1.318-.527a1.824 1.824 0 0 1-.527-1.318v-3.164c0-.516.175-.95.527-1.301a1.797 1.797 0 0 1 1.318-.545ZM333.076 326h-4.957c-.515 0-.955-.176-1.318-.527a1.767 1.767 0 0 1-.528-1.301v-21.533c0-.516.176-.95.528-1.301a1.797 1.797 0 0 1 1.318-.545h4.957c.516 0 .949.182 1.301.545.363.351.545.785.545 1.301v21.533c0 .516-.182.949-.545 1.301a1.77 1.77 0 0 1-1.301.527Zm-19.037-15.803v13.975c0 .516-.176.949-.527 1.301a1.77 1.77 0 0 1-1.301.527h-4.975c-.515 0-.955-.176-1.318-.527a1.766 1.766 0 0 1-.527-1.301v-13.975c0-.515.175-.949.527-1.301a1.796 1.796 0 0 1 1.318-.544h4.975c.516 0 .949.181 1.301.544.351.352.527.786.527 1.301ZM286.248 300.793h1.477c.515 0 .949.182 1.3.545.364.351.545.785.545 1.301v5.906c0 .855-.193 1.646-.58 2.373l-1.758 3.375c-.457.867-1.177 1.301-2.162 1.301h-4.429c-.891 0-1.541-.34-1.952-1.02-.41-.679-.41-1.418 0-2.215l5.256-9.966c.293-.563.621-.967.985-1.213.363-.258.802-.387 1.318-.387Zm5.871 0h1.442c.515 0 .955.129 1.318.387.363.246.691.65.984 1.213l5.256 9.966c.41.797.41 1.536 0 2.215-.398.68-1.043 1.02-1.933 1.02h-4.395c-.949 0-1.658-.422-2.127-1.266l-1.81-3.41c-.375-.703-.563-1.494-.563-2.373v-5.906c0-.516.176-.95.527-1.301a1.742 1.742 0 0 1 1.301-.545Zm-14.15 15.521h23.871c.89 0 1.541.387 1.951 1.161l.457.896c.293.563.44 1.283.44 2.162v3.639c0 .516-.182.949-.545 1.301a1.772 1.772 0 0 1-1.301.527h-3.024c-.82 0-1.441-.398-1.863-1.195l-.475-.897c-.164-.328-.351-.562-.562-.703-.211-.152-.504-.228-.879-.228H283.77c-.375 0-.668.076-.879.228-.211.141-.399.375-.563.703l-.474.897c-.422.797-1.043 1.195-1.864 1.195h-3.023a1.83 1.83 0 0 1-1.319-.527 1.77 1.77 0 0 1-.527-1.301v-3.639c0-.879.147-1.599.44-2.162l.474-.896c.41-.774 1.055-1.161 1.934-1.161ZM255.152 302.639v21.533c0 .516-.175.949-.527 1.301a1.77 1.77 0 0 1-1.301.527h-4.974a1.83 1.83 0 0 1-1.319-.527 1.77 1.77 0 0 1-.527-1.301v-21.533c0-.516.176-.95.527-1.301a1.799 1.799 0 0 1 1.319-.545h4.974c.516 0 .949.182 1.301.545.352.351.527.785.527 1.301Zm7.348 5.009h-4.799c-.515 0-.949-.175-1.301-.527a1.828 1.828 0 0 1-.527-1.318v-3.164c0-.516.176-.95.527-1.301a1.742 1.742 0 0 1 1.301-.545h4.623c1.078 0 2.139.082 3.182.246 1.043.152 1.91.322 2.601.51.692.187 1.418.445 2.18.773.774.317 1.313.557 1.617.721.317.164.721.387 1.213.668.867.516 1.301 1.26 1.301 2.232v1.846c0 .516-.182.949-.545 1.301a1.77 1.77 0 0 1-1.301.527h-4.816c-.797 0-1.483-.287-2.057-.861-.691-.738-1.758-1.108-3.199-1.108Zm9.545 8.051c-.586.34-1.236.51-1.951.51h-12.463c-.516 0-.938-.158-1.266-.475-.328-.316-.492-.72-.492-1.213 0-.492.164-.896.492-1.212.328-.329.75-.493 1.266-.493h4.869c1.664 0 2.73-.404 3.199-1.212.246-.434.528-.75.844-.95.316-.211.721-.316 1.213-.316h4.816c.528 0 .967.164 1.319.492.351.328.527.738.527 1.231v.755c0 .727-.305 1.342-.914 1.846-.633.492-1.119.838-1.459 1.037Zm.527 10.301h-2.056c-.528 0-.985-.064-1.371-.193-.387-.141-.838-.387-1.354-.739l-5.766-4.007c-.75-.504-1.552-.756-2.408-.756h-1.986c-.516 0-.938-.159-1.266-.475-.328-.316-.492-.721-.492-1.213 0-.492.164-.896.492-1.213.328-.316.75-.474 1.266-.474h12.392c.762 0 1.436.205 2.022.615l1.248.861c.75.551 1.125 1.272 1.125 2.162v3.604c0 .516-.182.949-.545 1.301a1.77 1.77 0 0 1-1.301.527ZM227.941 326h-4.974a1.83 1.83 0 0 1-1.319-.527 1.77 1.77 0 0 1-.527-1.301v-21.533c0-.516.176-.95.527-1.301a1.799 1.799 0 0 1 1.319-.545h4.974c.516 0 .95.182 1.301.545.352.351.528.785.528 1.301v21.533c0 .516-.176.949-.528 1.301a1.768 1.768 0 0 1-1.301.527Zm16.014-18.352h-11.637c-.515 0-.949-.175-1.3-.527a1.825 1.825 0 0 1-.528-1.318v-3.164c0-.516.176-.95.528-1.301a1.738 1.738 0 0 1 1.3-.545h11.637c.516 0 .949.182 1.301.545.351.351.527.785.527 1.301v3.164c0 .515-.176.955-.527 1.318a1.766 1.766 0 0 1-1.301.527Zm-3.428 9.141h-8.209c-.515 0-.949-.176-1.3-.527a1.827 1.827 0 0 1-.528-1.319v-3.164c0-.515.176-.949.528-1.3a1.765 1.765 0 0 1 1.3-.528h8.209c.516 0 .95.176 1.301.528.363.351.545.785.545 1.3v3.164c0 .516-.182.955-.545 1.319a1.768 1.768 0 0 1-1.301.527Zm3.428 9.211h-11.637c-.515 0-.949-.176-1.3-.527a1.767 1.767 0 0 1-.528-1.301v-3.182c0-.515.176-.949.528-1.301a1.768 1.768 0 0 1 1.3-.527h11.637c.516 0 .949.176 1.301.527.351.352.527.786.527 1.301v3.182c0 .516-.176.949-.527 1.301a1.77 1.77 0 0 1-1.301.527ZM218.59 307.648h-24.592c-.516 0-.955-.175-1.318-.527a1.825 1.825 0 0 1-.528-1.318v-3.164c0-.516.176-.95.528-1.301a1.795 1.795 0 0 1 1.318-.545h24.592c.515 0 .949.182 1.301.545.351.351.527.785.527 1.301v3.164c0 .515-.176.955-.527 1.318a1.768 1.768 0 0 1-1.301.527ZM208.799 326h-4.975c-.515 0-.949-.176-1.301-.527a1.77 1.77 0 0 1-.527-1.301v-13.975c0-.515.176-.949.527-1.301a1.74 1.74 0 0 1 1.301-.544h4.975c.515 0 .949.181 1.301.544.351.352.527.786.527 1.301v13.975c0 .516-.176.949-.527 1.301a1.772 1.772 0 0 1-1.301.527ZM173.59 326h-4.975c-.515 0-.955-.176-1.318-.527a1.766 1.766 0 0 1-.527-1.301v-21.533c0-.516.175-.95.527-1.301a1.797 1.797 0 0 1 1.318-.545h4.975c.515 0 .949.182 1.301.545.351.351.527.785.527 1.301v21.533c0 .516-.176.949-.527 1.301a1.772 1.772 0 0 1-1.301.527Zm16.014-18.352h-11.637c-.516 0-.949-.175-1.301-.527a1.824 1.824 0 0 1-.527-1.318v-3.164c0-.516.175-.95.527-1.301a1.74 1.74 0 0 1 1.301-.545h11.637c.515 0 .949.182 1.3.545.352.351.528.785.528 1.301v3.164c0 .515-.176.955-.528 1.318a1.764 1.764 0 0 1-1.3.527Zm-3.428 9.141h-8.209a1.77 1.77 0 0 1-1.301-.527 1.826 1.826 0 0 1-.527-1.319v-3.164c0-.515.175-.949.527-1.3a1.767 1.767 0 0 1 1.301-.528h8.209c.515 0 .949.176 1.301.528.363.351.544.785.544 1.3v3.164c0 .516-.181.955-.544 1.319a1.772 1.772 0 0 1-1.301.527Zm3.428 9.211h-11.637a1.77 1.77 0 0 1-1.301-.527 1.766 1.766 0 0 1-.527-1.301v-3.182c0-.515.175-.949.527-1.301a1.77 1.77 0 0 1 1.301-.527h11.637c.515 0 .949.176 1.3.527.352.352.528.786.528 1.301v3.182c0 .516-.176.949-.528 1.301a1.768 1.768 0 0 1-1.3.527ZM149.104 326h-1.477c-.984 0-1.752-.527-2.303-1.582l-8.103-15.346c-.481-.914-.721-1.845-.721-2.795v-3.638c0-.516.176-.95.527-1.301a1.799 1.799 0 0 1 1.319-.545h3.023c.856 0 1.494.398 1.916 1.195l7.084 13.535c.387.727.58 1.518.58 2.373v6.276c0 .516-.181.949-.545 1.301a1.768 1.768 0 0 1-1.3.527Zm5.835 0h-1.441a1.77 1.77 0 0 1-1.301-.527 1.77 1.77 0 0 1-.527-1.301v-6.276c0-.878.187-1.669.562-2.373l7.067-13.535c.422-.797 1.055-1.195 1.898-1.195h3.024c.515 0 .949.182 1.3.545.364.351.545.785.545 1.301v3.638c0 .95-.24 1.881-.72 2.795l-8.104 15.346c-.551 1.055-1.318 1.582-2.303 1.582ZM352.764 311.996h6.523c.684 0 1.117.342 1.299 1.025l1.836 6.563c.15.566.224 1.09.224 1.572v3.828c0 .287-.1.528-.302.723a.984.984 0 0 1-.723.293h-.957c-.671 0-1.097-.339-1.279-1.016l-2.364-8.339c-.156-.56-.53-.84-1.123-.84h-3.134c-.287 0-.531-.098-.733-.293a1.017 1.017 0 0 1-.293-.733v-1.758c0-.286.098-.527.293-.722a.998.998 0 0 1 .733-.303Zm13.642 0h6.514c.286 0 .527.101.723.303a.967.967 0 0 1 .302.722v1.758a1 1 0 0 1-.302.733.986.986 0 0 1-.723.293h-3.135c-.592 0-.967.28-1.123.84l-2.363 8.339c-.182.677-.609 1.016-1.279 1.016h-.958a.982.982 0 0 1-.722-.293.983.983 0 0 1-.293-.723v-3.828c0-.508.071-1.032.215-1.572l1.845-6.563c.183-.683.616-1.025 1.299-1.025Zm-9.863 5.225v7.763a.983.983 0 0 1-.293.723.983.983 0 0 1-.723.293h-2.763c-.287 0-.531-.098-.733-.293a.983.983 0 0 1-.293-.723v-7.763c0-.287.098-.528.293-.723a.998.998 0 0 1 .733-.303h2.763c.287 0 .528.101.723.303a.983.983 0 0 1 .293.723Zm12.598 7.763v-7.763c0-.287.097-.528.293-.723a.996.996 0 0 1 .732-.303h2.754c.286 0 .527.101.723.303a.968.968 0 0 1 .302.723v7.763a.968.968 0 0 1-.302.723.986.986 0 0 1-.723.293h-2.754c-.286 0-.531-.098-.732-.293a.979.979 0 0 1-.293-.723Z" fill="#000"/><path d="M341.104 311.996h.82c.286 0 .527.101.722.303a.964.964 0 0 1 .303.722v3.282c0 .475-.107.914-.322 1.318l-.977 1.875c-.254.482-.654.723-1.201.723h-2.461c-.495 0-.856-.189-1.084-.567-.228-.377-.228-.787 0-1.23l2.92-5.537c.163-.313.345-.537.547-.674.202-.143.446-.215.733-.215Zm3.261 0h.801c.286 0 .531.072.732.215.202.137.385.361.547.674l2.92 5.537c.228.443.228.853 0 1.23-.221.378-.579.567-1.074.567h-2.441c-.528 0-.922-.235-1.182-.703l-1.006-1.895a2.761 2.761 0 0 1-.312-1.318v-3.282c0-.286.097-.527.293-.722a.964.964 0 0 1 .722-.303Zm-7.861 8.623h13.262c.494 0 .856.215 1.084.645l.254.498c.162.312.244.713.244 1.201v2.021a.965.965 0 0 1-.303.723.983.983 0 0 1-.723.293h-1.679c-.456 0-.801-.221-1.036-.664l-.263-.498a.987.987 0 0 0-.313-.391c-.117-.084-.28-.127-.488-.127h-6.816c-.209 0-.372.043-.489.127-.117.078-.221.209-.312.391l-.264.498c-.234.443-.579.664-1.035.664h-1.68c-.286 0-.53-.098-.732-.293a.983.983 0 0 1-.293-.723v-2.021c0-.488.081-.889.244-1.201l.264-.498c.228-.43.586-.645 1.074-.645Z" fill="#000"/></svg>