<svg width="756" height="444" fill="none" xmlns="http://www.w3.org/2000/svg"><path fill-rule="evenodd" clip-rule="evenodd" d="M273.314 1.913c-1.618 1.772-1.723 8.34-1.426 88.747l.321 86.833 2.364 8.185c3.515 12.174 11.345 27.573 18.467 36.317 8.695 10.677 60.055 61.018 63.602 62.342 4.383 1.635 39.83 1.359 42.914-.334 4.213-2.314 58.555-55.52 64.122-62.782 6.327-8.253 14.534-24.435 17.766-35.032l2.34-7.672.326-87.346c.301-80.888.196-87.486-1.422-89.258C481.118.194 479.242 0 464.247 0c-12.56 0-17.889.403-21.519 1.629-6.591 2.225-14.315 9.345-17.345 15.988l-2.464 5.4-.516 72.635c-.513 72.196-.53 72.668-2.82 78.261-2.955 7.218-6.817 11.739-24.713 28.923-11.793 11.322-15.194 14.045-17.554 14.048-2.42.003-5.802-2.885-19.47-16.624-17.635-17.729-21.193-22.849-23.198-33.392-.643-3.382-1.048-31.923-1.048-73.875 0-65.912-.074-68.56-2.07-73.845-2.73-7.23-9.96-14.392-17.257-17.097C309.567.306 306.225 0 291.901 0c-15.138 0-17.015.193-18.587 1.913Zm94.24-.5c-9.096 3.22-14.283 8.095-18.692 17.57l-2.355 5.058v140.196l3.294 6.629c4.441 8.935 23.224 27.599 27.777 27.599 2.433 0 5.263-2.285 15.54-12.548 11.252-11.237 12.742-13.149 14.247-18.282 1.496-5.096 1.65-13.508 1.39-75.686l-.292-69.954-3.063-5.478c-3.833-6.856-10.111-12.404-16.669-14.734-5.887-2.09-15.828-2.265-21.177-.37Z" fill="#000"/><path d="M542.078 364.058h36.738c3.791 0 6.188 1.951 7.191 5.853l12.934 47.72a33.536 33.536 0 0 1 1.226 8.92v11.651c0 1.635-.557 3.011-1.672 4.125-1.115 1.115-2.49 1.673-4.125 1.673h-7.749c-3.903 0-6.374-1.933-7.415-5.798l-12.822-47.497c-.446-1.672-1.171-2.899-2.174-3.679-1.003-.818-2.416-1.227-4.237-1.227h-17.895c-1.635 0-3.029-.557-4.181-1.672-1.115-1.152-1.672-2.546-1.672-4.181v-10.035c0-1.635.557-3.01 1.672-4.125 1.152-1.152 2.546-1.728 4.181-1.728ZM624.027 444h-15.721c-1.635 0-3.028-.558-4.181-1.673-1.115-1.114-1.672-2.49-1.672-4.125v-68.291c0-1.635.557-3.01 1.672-4.125 1.153-1.152 2.546-1.728 4.181-1.728h15.721c1.636 0 3.011.576 4.126 1.728 1.152 1.115 1.728 2.49 1.728 4.125v68.291c0 1.635-.576 3.011-1.728 4.125-1.115 1.115-2.49 1.673-4.126 1.673Zm-60.374-50.117v44.319c0 1.635-.558 3.011-1.673 4.125-1.115 1.115-2.49 1.673-4.125 1.673h-15.777c-1.635 0-3.029-.558-4.181-1.673-1.115-1.114-1.672-2.49-1.672-4.125v-44.319c0-1.636.557-3.011 1.672-4.126 1.152-1.152 2.546-1.728 4.181-1.728h15.777c1.635 0 3.01.576 4.125 1.728 1.115 1.115 1.673 2.49 1.673 4.126Zm-88.138-29.825h4.683c1.635 0 3.011.576 4.126 1.728 1.152 1.115 1.728 2.49 1.728 4.125v18.731c0 2.713-.614 5.222-1.84 7.526l-5.575 10.704c-1.449 2.75-3.735 4.125-6.857 4.125h-14.048c-2.825 0-4.887-1.078-6.188-3.233-1.301-2.156-1.301-4.497 0-7.024l16.668-31.609c.93-1.784 1.97-3.066 3.122-3.847 1.152-.818 2.546-1.226 4.181-1.226Zm18.62 0h4.571c1.636 0 3.029.408 4.182 1.226 1.152.781 2.192 2.063 3.121 3.847l16.669 31.609c1.301 2.527 1.301 4.868 0 7.024-1.264 2.155-3.308 3.233-6.132 3.233h-13.937c-3.011 0-5.259-1.338-6.746-4.014l-5.742-10.815c-1.189-2.23-1.784-4.738-1.784-7.526v-18.731c0-1.635.558-3.01 1.673-4.125 1.115-1.152 2.49-1.728 4.125-1.728Zm-44.877 49.225h75.706c2.824 0 4.887 1.226 6.188 3.679l1.449 2.843c.929 1.784 1.394 4.07 1.394 6.857v11.54c0 1.635-.576 3.011-1.728 4.125-1.115 1.115-2.49 1.673-4.126 1.673h-9.588c-2.602 0-4.572-1.264-5.91-3.791l-1.505-2.843c-.52-1.041-1.115-1.784-1.784-2.23-.669-.483-1.598-.725-2.787-.725h-38.912c-1.189 0-2.118.242-2.787.725-.669.446-1.264 1.189-1.784 2.23l-1.506 2.843c-1.338 2.527-3.307 3.791-5.909 3.791h-9.588c-1.636 0-3.029-.558-4.182-1.673-1.114-1.114-1.672-2.49-1.672-4.125v-11.54c0-2.787.465-5.073 1.394-6.857l1.505-2.843c1.301-2.453 3.345-3.679 6.132-3.679Zm-72.36-43.372v68.291c0 1.635-.558 3.011-1.673 4.125-1.115 1.115-2.49 1.673-4.125 1.673h-15.777c-1.635 0-3.029-.558-4.181-1.673-1.115-1.114-1.672-2.49-1.672-4.125v-68.291c0-1.635.557-3.01 1.672-4.125 1.152-1.152 2.546-1.728 4.181-1.728H371.1c1.635 0 3.01.576 4.125 1.728 1.115 1.115 1.673 2.49 1.673 4.125Zm23.302 15.888h-15.219c-1.635 0-3.01-.557-4.125-1.672-1.115-1.152-1.673-2.546-1.673-4.181v-10.035c0-1.635.558-3.01 1.673-4.125 1.115-1.152 2.49-1.728 4.125-1.728h14.662c3.419 0 6.782.26 10.09.78 3.308.483 6.058 1.022 8.251 1.617 2.192.594 4.497 1.412 6.912 2.453 2.453 1.003 4.163 1.765 5.129 2.285a112.88 112.88 0 0 1 3.847 2.119c2.75 1.635 4.125 3.995 4.125 7.08v5.853c0 1.635-.576 3.011-1.728 4.126-1.115 1.115-2.49 1.672-4.125 1.672h-15.275c-2.527 0-4.702-.911-6.523-2.732-2.192-2.341-5.574-3.512-10.146-3.512Zm30.271 25.533c-1.858 1.078-3.921 1.616-6.188 1.616h-39.525c-1.635 0-2.973-.501-4.014-1.505-1.04-1.003-1.561-2.285-1.561-3.846s.521-2.844 1.561-3.847c1.041-1.041 2.379-1.561 4.014-1.561H400.2c5.278 0 8.66-1.282 10.146-3.847.781-1.375 1.673-2.378 2.676-3.01 1.004-.669 2.286-1.003 3.847-1.003h15.275c1.672 0 3.066.52 4.181 1.561 1.115 1.04 1.672 2.341 1.672 3.902v2.397c0 2.304-.966 4.256-2.899 5.854-2.007 1.561-3.549 2.657-4.627 3.289ZM432.144 444h-6.523c-1.672 0-3.122-.204-4.348-.613-1.227-.446-2.657-1.227-4.293-2.342l-18.285-12.71c-2.379-1.598-4.924-2.397-7.637-2.397h-6.3c-1.635 0-2.973-.502-4.014-1.506-1.04-1.003-1.561-2.285-1.561-3.846s.521-2.843 1.561-3.847c1.041-1.003 2.379-1.505 4.014-1.505h39.302c2.416 0 4.553.65 6.411 1.951l3.958 2.732c2.379 1.747 3.568 4.032 3.568 6.857v11.428c0 1.635-.576 3.011-1.728 4.125-1.115 1.115-2.49 1.673-4.125 1.673ZM290.6 444h-15.777c-1.635 0-3.029-.558-4.181-1.673-1.115-1.114-1.672-2.49-1.672-4.125v-68.291c0-1.635.557-3.01 1.672-4.125 1.152-1.152 2.546-1.728 4.181-1.728H290.6c1.635 0 3.01.576 4.125 1.728 1.115 1.115 1.673 2.49 1.673 4.125v68.291c0 1.635-.558 3.011-1.673 4.125-1.115 1.115-2.49 1.673-4.125 1.673Zm50.786-58.201h-36.905c-1.635 0-3.01-.557-4.125-1.672-1.115-1.152-1.673-2.546-1.673-4.181v-10.035c0-1.635.558-3.01 1.673-4.125 1.115-1.152 2.49-1.728 4.125-1.728h36.905c1.635 0 3.01.576 4.125 1.728 1.115 1.115 1.673 2.49 1.673 4.125v10.035c0 1.635-.558 3.029-1.673 4.181-1.115 1.115-2.49 1.672-4.125 1.672Zm-10.871 28.989h-26.034c-1.635 0-3.01-.557-4.125-1.672-1.115-1.152-1.673-2.546-1.673-4.181V398.9c0-1.635.558-3.01 1.673-4.125 1.115-1.115 2.49-1.673 4.125-1.673h26.034c1.636 0 3.011.558 4.126 1.673 1.152 1.115 1.728 2.49 1.728 4.125v10.035c0 1.635-.576 3.029-1.728 4.181-1.115 1.115-2.49 1.672-4.126 1.672ZM341.386 444h-36.905c-1.635 0-3.01-.558-4.125-1.673-1.115-1.114-1.673-2.49-1.673-4.125v-10.09c0-1.635.558-3.011 1.673-4.126 1.115-1.114 2.49-1.672 4.125-1.672h36.905c1.635 0 3.01.558 4.125 1.672 1.115 1.115 1.673 2.491 1.673 4.126v10.09c0 1.635-.558 3.011-1.673 4.125-1.115 1.115-2.49 1.673-4.125 1.673Zm-80.444-58.201h-77.991c-1.635 0-3.029-.557-4.181-1.672-1.115-1.152-1.672-2.546-1.672-4.181v-10.035c0-1.635.557-3.01 1.672-4.125 1.152-1.152 2.546-1.728 4.181-1.728h77.991c1.636 0 3.011.576 4.126 1.728 1.115 1.115 1.672 2.49 1.672 4.125v10.035c0 1.635-.557 3.029-1.672 4.181-1.115 1.115-2.49 1.672-4.126 1.672ZM229.891 444h-15.777c-1.635 0-3.01-.558-4.125-1.673-1.115-1.114-1.673-2.49-1.673-4.125v-44.319c0-1.636.558-3.011 1.673-4.126 1.115-1.152 2.49-1.728 4.125-1.728h15.777c1.635 0 3.01.576 4.125 1.728 1.115 1.115 1.673 2.49 1.673 4.126v44.319c0 1.635-.558 3.011-1.673 4.125-1.115 1.115-2.49 1.673-4.125 1.673Zm-111.663 0h-15.777c-1.635 0-3.029-.558-4.18-1.673-1.116-1.114-1.673-2.49-1.673-4.125v-68.291c0-1.635.557-3.01 1.672-4.125 1.152-1.152 2.546-1.728 4.181-1.728h15.777c1.635 0 3.01.576 4.125 1.728 1.115 1.115 1.673 2.49 1.673 4.125v68.291c0 1.635-.558 3.011-1.673 4.125-1.115 1.115-2.49 1.673-4.125 1.673Zm50.786-58.201h-36.905c-1.635 0-3.01-.557-4.125-1.672-1.115-1.152-1.673-2.546-1.673-4.181v-10.035c0-1.635.558-3.01 1.673-4.125 1.115-1.152 2.49-1.728 4.125-1.728h36.905c1.635 0 3.01.576 4.125 1.728 1.115 1.115 1.673 2.49 1.673 4.125v10.035c0 1.635-.558 3.029-1.673 4.181-1.115 1.115-2.49 1.672-4.125 1.672Zm-10.871 28.989h-26.034c-1.635 0-3.01-.557-4.125-1.672-1.115-1.152-1.673-2.546-1.673-4.181V398.9c0-1.635.558-3.01 1.673-4.125 1.115-1.115 2.49-1.673 4.125-1.673h26.034c1.635 0 3.011.558 4.126 1.673 1.152 1.115 1.728 2.49 1.728 4.125v10.035c0 1.635-.576 3.029-1.728 4.181-1.115 1.115-2.491 1.672-4.126 1.672ZM169.014 444h-36.905c-1.635 0-3.01-.558-4.125-1.673-1.115-1.114-1.673-2.49-1.673-4.125v-10.09c0-1.635.558-3.011 1.673-4.126 1.115-1.114 2.49-1.672 4.125-1.672h36.905c1.635 0 3.01.558 4.125 1.672 1.115 1.115 1.673 2.491 1.673 4.126v10.09c0 1.635-.558 3.011-1.673 4.125-1.115 1.115-2.49 1.673-4.125 1.673Zm-128.443 0h-4.683c-3.121 0-5.556-1.673-7.302-5.017l-25.7-48.668C1.362 387.416.6 384.461.6 381.451v-11.54c0-1.635.558-3.01 1.673-4.125 1.152-1.152 2.545-1.728 4.18-1.728h9.59c2.712 0 4.738 1.263 6.076 3.79l22.466 42.926c1.227 2.304 1.84 4.813 1.84 7.526v19.902c0 1.635-.576 3.011-1.728 4.125-1.115 1.115-2.49 1.673-4.126 1.673Zm18.509 0h-4.572c-1.635 0-3.01-.558-4.125-1.673-1.115-1.114-1.673-2.49-1.673-4.125V418.3c0-2.787.595-5.296 1.784-7.526l22.41-42.926c1.339-2.527 3.346-3.79 6.022-3.79h9.588c1.636 0 3.01.576 4.126 1.728 1.152 1.115 1.728 2.49 1.728 4.125v11.54c0 3.01-.762 5.965-2.286 8.864l-25.7 48.668c-1.746 3.344-4.18 5.017-7.303 5.017Zm627.385-44.413h20.688c2.168 0 3.541 1.084 4.12 3.252l5.822 20.813c.475 1.796.712 3.458.712 4.986v12.141c0 .908-.32 1.672-.96 2.292-.619.619-1.383.929-2.291.929h-3.036c-2.126 0-3.479-1.074-4.057-3.221l-7.495-26.449c-.495-1.776-1.683-2.664-3.561-2.664h-9.942c-.909 0-1.683-.31-2.323-.929-.619-.64-.929-1.414-.929-2.323v-5.575c0-.908.31-1.672.929-2.291a3.16 3.16 0 0 1 2.323-.961Zm43.266 0h20.658c.908 0 1.672.32 2.292.961.64.619.96 1.383.96 2.291v5.575c0 .909-.32 1.683-.96 2.323-.62.619-1.384.929-2.292.929h-9.942c-1.879 0-3.066.888-3.561 2.664l-7.495 26.449c-.579 2.147-1.931 3.221-4.058 3.221h-3.035c-.908 0-1.672-.31-2.292-.929-.619-.62-.929-1.384-.929-2.292v-12.141c0-1.61.227-3.272.682-4.986l5.853-20.813c.578-2.168 1.951-3.252 4.119-3.252Zm-31.28 16.57v24.622c0 .908-.31 1.672-.93 2.292-.619.619-1.383.929-2.291.929h-8.765c-.909 0-1.683-.31-2.323-.929-.619-.62-.929-1.384-.929-2.292v-24.622c0-.909.31-1.673.929-2.292.64-.64 1.414-.96 2.323-.96h8.765c.908 0 1.672.32 2.291.96.62.619.93 1.383.93 2.292Zm39.952 24.622v-24.622c0-.909.31-1.673.929-2.292.64-.64 1.415-.96 2.323-.96h8.734c.908 0 1.672.32 2.292.96.64.619.96 1.383.96 2.292v24.622c0 .908-.32 1.672-.96 2.292-.62.619-1.384.929-2.292.929h-8.734c-.908 0-1.683-.31-2.323-.929-.619-.62-.929-1.384-.929-2.292Zm-88.918-41.192h2.602c.909 0 1.672.32 2.292.961.64.619.96 1.383.96 2.291v10.407c0 1.507-.341 2.901-1.022 4.181l-3.097 5.946c-.805 1.528-2.075 2.292-3.81 2.292h-7.804c-1.569 0-2.715-.599-3.438-1.796-.723-1.198-.723-2.499 0-3.903l9.26-17.56c.516-.991 1.095-1.704 1.735-2.137.64-.454 1.414-.682 2.322-.682Zm10.345 0h2.539c.909 0 1.683.228 2.323.682.64.433 1.218 1.146 1.735 2.137l9.26 17.56c.723 1.404.723 2.705 0 3.903-.702 1.197-1.838 1.796-3.407 1.796h-7.743c-1.672 0-2.921-.743-3.747-2.23l-3.19-6.008c-.661-1.239-.991-2.633-.991-4.181v-10.407c0-.908.31-1.672.929-2.291.619-.641 1.383-.961 2.292-.961Zm-24.932 27.348h42.059c1.569 0 2.715.681 3.438 2.044l.805 1.579c.516.991.774 2.261.774 3.81v6.411c0 .908-.32 1.672-.96 2.292-.619.619-1.383.929-2.292.929h-5.327c-1.445 0-2.54-.702-3.283-2.106l-.836-1.58c-.289-.578-.619-.991-.991-1.239-.372-.268-.888-.402-1.549-.402h-21.617c-.661 0-1.177.134-1.549.402-.372.248-.702.661-.991 1.239l-.836 1.58c-.744 1.404-1.838 2.106-3.283 2.106h-5.327c-.909 0-1.683-.31-2.323-.929-.619-.62-.929-1.384-.929-2.292v-6.411c0-1.549.258-2.819.774-3.81l.836-1.579c.723-1.363 1.859-2.044 3.407-2.044Z" fill="#000"/></svg>