<svg width="512" height="512" viewBox="0 0 512 512" fill="none" xmlns="http://www.w3.org/2000/svg">
<rect x="0.5" y="0.5" width="511" height="511" stroke="black"/>
<path fill-rule="evenodd" clip-rule="evenodd" d="M222.491 186.603C221.981 187.162 221.948 189.233 222.041 214.586L222.143 241.966L222.888 244.547C223.996 248.386 226.465 253.241 228.711 255.998C231.453 259.365 247.647 275.238 248.766 275.656C250.147 276.171 261.325 276.084 262.297 275.55C263.625 274.821 280.76 258.044 282.515 255.754C284.511 253.152 287.098 248.05 288.118 244.708L288.855 242.289L288.958 214.748C289.053 189.243 289.02 187.162 288.51 186.603C288.015 186.061 287.423 186 282.695 186C278.735 186 277.054 186.127 275.91 186.514C273.832 187.215 271.396 189.46 270.441 191.555L269.664 193.258L269.501 216.161C269.339 238.925 269.334 239.074 268.612 240.837C267.68 243.113 266.462 244.539 260.819 249.957C257.101 253.527 256.029 254.386 255.284 254.387C254.521 254.388 253.455 253.477 249.145 249.145C243.584 243.555 242.463 241.94 241.83 238.616C241.628 237.55 241.5 228.55 241.5 215.322C241.5 194.539 241.477 193.704 240.847 192.038C239.986 189.758 237.707 187.5 235.406 186.647C233.922 186.096 232.868 186 228.352 186C223.578 186 222.986 186.061 222.491 186.603ZM252.206 186.445C249.338 187.461 247.702 188.998 246.312 191.985L245.57 193.58V215.683V237.787L246.609 239.877C248.009 242.694 253.931 248.579 255.367 248.579C256.134 248.579 257.026 247.859 260.267 244.622C263.815 241.079 264.285 240.476 264.759 238.858C265.231 237.251 265.28 234.599 265.198 214.993L265.105 192.935L264.14 191.208C262.931 189.046 260.951 187.297 258.884 186.562C257.027 185.903 253.893 185.848 252.206 186.445Z" fill="black"/>
<path d="M307.236 300.793H318.82C320.016 300.793 320.771 301.408 321.088 302.639L325.166 317.686C325.424 318.623 325.553 319.561 325.553 320.498V324.172C325.553 324.688 325.377 325.121 325.025 325.473C324.674 325.824 324.24 326 323.725 326H321.281C320.051 326 319.271 325.391 318.943 324.172L314.9 309.195C314.76 308.668 314.531 308.281 314.215 308.035C313.898 307.777 313.453 307.648 312.879 307.648H307.236C306.721 307.648 306.281 307.473 305.918 307.121C305.566 306.758 305.391 306.318 305.391 305.803V302.639C305.391 302.123 305.566 301.689 305.918 301.338C306.281 300.975 306.721 300.793 307.236 300.793ZM333.076 326H328.119C327.604 326 327.164 325.824 326.801 325.473C326.449 325.121 326.273 324.688 326.273 324.172V302.639C326.273 302.123 326.449 301.689 326.801 301.338C327.164 300.975 327.604 300.793 328.119 300.793H333.076C333.592 300.793 334.025 300.975 334.377 301.338C334.74 301.689 334.922 302.123 334.922 302.639V324.172C334.922 324.688 334.74 325.121 334.377 325.473C334.025 325.824 333.592 326 333.076 326ZM314.039 310.197V324.172C314.039 324.688 313.863 325.121 313.512 325.473C313.16 325.824 312.727 326 312.211 326H307.236C306.721 326 306.281 325.824 305.918 325.473C305.566 325.121 305.391 324.688 305.391 324.172V310.197C305.391 309.682 305.566 309.248 305.918 308.896C306.281 308.533 306.721 308.352 307.236 308.352H312.211C312.727 308.352 313.16 308.533 313.512 308.896C313.863 309.248 314.039 309.682 314.039 310.197Z" fill="black"/>
<path d="M286.248 300.793H287.725C288.24 300.793 288.674 300.975 289.025 301.338C289.389 301.689 289.57 302.123 289.57 302.639V308.545C289.57 309.4 289.377 310.191 288.99 310.918L287.232 314.293C286.775 315.16 286.055 315.594 285.07 315.594H280.641C279.75 315.594 279.1 315.254 278.689 314.574C278.279 313.895 278.279 313.156 278.689 312.359L283.945 302.393C284.238 301.83 284.566 301.426 284.93 301.18C285.293 300.922 285.732 300.793 286.248 300.793ZM292.119 300.793H293.561C294.076 300.793 294.516 300.922 294.879 301.18C295.242 301.426 295.57 301.83 295.863 302.393L301.119 312.359C301.529 313.156 301.529 313.895 301.119 314.574C300.721 315.254 300.076 315.594 299.186 315.594H294.791C293.842 315.594 293.133 315.172 292.664 314.328L290.854 310.918C290.479 310.215 290.291 309.424 290.291 308.545V302.639C290.291 302.123 290.467 301.689 290.818 301.338C291.17 300.975 291.604 300.793 292.119 300.793ZM277.969 316.314H301.84C302.73 316.314 303.381 316.701 303.791 317.475L304.248 318.371C304.541 318.934 304.688 319.654 304.688 320.533V324.172C304.688 324.688 304.506 325.121 304.143 325.473C303.791 325.824 303.357 326 302.842 326H299.818C298.998 326 298.377 325.602 297.955 324.805L297.48 323.908C297.316 323.58 297.129 323.346 296.918 323.205C296.707 323.053 296.414 322.977 296.039 322.977H283.77C283.395 322.977 283.102 323.053 282.891 323.205C282.68 323.346 282.492 323.58 282.328 323.908L281.854 324.805C281.432 325.602 280.811 326 279.99 326H276.967C276.451 326 276.012 325.824 275.648 325.473C275.297 325.121 275.121 324.688 275.121 324.172V320.533C275.121 319.654 275.268 318.934 275.561 318.371L276.035 317.475C276.445 316.701 277.09 316.314 277.969 316.314Z" fill="black"/>
<path d="M255.152 302.639V324.172C255.152 324.688 254.977 325.121 254.625 325.473C254.273 325.824 253.84 326 253.324 326H248.35C247.834 326 247.395 325.824 247.031 325.473C246.68 325.121 246.504 324.688 246.504 324.172V302.639C246.504 302.123 246.68 301.689 247.031 301.338C247.395 300.975 247.834 300.793 248.35 300.793H253.324C253.84 300.793 254.273 300.975 254.625 301.338C254.977 301.689 255.152 302.123 255.152 302.639ZM262.5 307.648H257.701C257.186 307.648 256.752 307.473 256.4 307.121C256.049 306.758 255.873 306.318 255.873 305.803V302.639C255.873 302.123 256.049 301.689 256.4 301.338C256.752 300.975 257.186 300.793 257.701 300.793H262.324C263.402 300.793 264.463 300.875 265.506 301.039C266.549 301.191 267.416 301.361 268.107 301.549C268.799 301.736 269.525 301.994 270.287 302.322C271.061 302.639 271.6 302.879 271.904 303.043C272.221 303.207 272.625 303.43 273.117 303.711C273.984 304.227 274.418 304.971 274.418 305.943V307.789C274.418 308.305 274.236 308.738 273.873 309.09C273.521 309.441 273.088 309.617 272.572 309.617H267.756C266.959 309.617 266.273 309.33 265.699 308.756C265.008 308.018 263.941 307.648 262.5 307.648ZM272.045 315.699C271.459 316.039 270.809 316.209 270.094 316.209H257.631C257.115 316.209 256.693 316.051 256.365 315.734C256.037 315.418 255.873 315.014 255.873 314.521C255.873 314.029 256.037 313.625 256.365 313.309C256.693 312.98 257.115 312.816 257.631 312.816H262.5C264.164 312.816 265.23 312.412 265.699 311.604C265.945 311.17 266.227 310.854 266.543 310.654C266.859 310.443 267.264 310.338 267.756 310.338H272.572C273.1 310.338 273.539 310.502 273.891 310.83C274.242 311.158 274.418 311.568 274.418 312.061V312.816C274.418 313.543 274.113 314.158 273.504 314.662C272.871 315.154 272.385 315.5 272.045 315.699ZM272.572 326H270.516C269.988 326 269.531 325.936 269.145 325.807C268.758 325.666 268.307 325.42 267.791 325.068L262.025 321.061C261.275 320.557 260.473 320.305 259.617 320.305H257.631C257.115 320.305 256.693 320.146 256.365 319.83C256.037 319.514 255.873 319.109 255.873 318.617C255.873 318.125 256.037 317.721 256.365 317.404C256.693 317.088 257.115 316.93 257.631 316.93H270.023C270.785 316.93 271.459 317.135 272.045 317.545L273.293 318.406C274.043 318.957 274.418 319.678 274.418 320.568V324.172C274.418 324.688 274.236 325.121 273.873 325.473C273.521 325.824 273.088 326 272.572 326Z" fill="black"/>
<path d="M227.941 326H222.967C222.451 326 222.012 325.824 221.648 325.473C221.297 325.121 221.121 324.688 221.121 324.172V302.639C221.121 302.123 221.297 301.689 221.648 301.338C222.012 300.975 222.451 300.793 222.967 300.793H227.941C228.457 300.793 228.891 300.975 229.242 301.338C229.594 301.689 229.77 302.123 229.77 302.639V324.172C229.77 324.688 229.594 325.121 229.242 325.473C228.891 325.824 228.457 326 227.941 326ZM243.955 307.648H232.318C231.803 307.648 231.369 307.473 231.018 307.121C230.666 306.758 230.49 306.318 230.49 305.803V302.639C230.49 302.123 230.666 301.689 231.018 301.338C231.369 300.975 231.803 300.793 232.318 300.793H243.955C244.471 300.793 244.904 300.975 245.256 301.338C245.607 301.689 245.783 302.123 245.783 302.639V305.803C245.783 306.318 245.607 306.758 245.256 307.121C244.904 307.473 244.471 307.648 243.955 307.648ZM240.527 316.789H232.318C231.803 316.789 231.369 316.613 231.018 316.262C230.666 315.898 230.49 315.459 230.49 314.943V311.779C230.49 311.264 230.666 310.83 231.018 310.479C231.369 310.127 231.803 309.951 232.318 309.951H240.527C241.043 309.951 241.477 310.127 241.828 310.479C242.191 310.83 242.373 311.264 242.373 311.779V314.943C242.373 315.459 242.191 315.898 241.828 316.262C241.477 316.613 241.043 316.789 240.527 316.789ZM243.955 326H232.318C231.803 326 231.369 325.824 231.018 325.473C230.666 325.121 230.49 324.688 230.49 324.172V320.99C230.49 320.475 230.666 320.041 231.018 319.689C231.369 319.338 231.803 319.162 232.318 319.162H243.955C244.471 319.162 244.904 319.338 245.256 319.689C245.607 320.041 245.783 320.475 245.783 320.99V324.172C245.783 324.688 245.607 325.121 245.256 325.473C244.904 325.824 244.471 326 243.955 326Z" fill="black"/>
<path d="M218.59 307.648H193.998C193.482 307.648 193.043 307.473 192.68 307.121C192.328 306.758 192.152 306.318 192.152 305.803V302.639C192.152 302.123 192.328 301.689 192.68 301.338C193.043 300.975 193.482 300.793 193.998 300.793H218.59C219.105 300.793 219.539 300.975 219.891 301.338C220.242 301.689 220.418 302.123 220.418 302.639V305.803C220.418 306.318 220.242 306.758 219.891 307.121C219.539 307.473 219.105 307.648 218.59 307.648ZM208.799 326H203.824C203.309 326 202.875 325.824 202.523 325.473C202.172 325.121 201.996 324.688 201.996 324.172V310.197C201.996 309.682 202.172 309.248 202.523 308.896C202.875 308.533 203.309 308.352 203.824 308.352H208.799C209.314 308.352 209.748 308.533 210.1 308.896C210.451 309.248 210.627 309.682 210.627 310.197V324.172C210.627 324.688 210.451 325.121 210.1 325.473C209.748 325.824 209.314 326 208.799 326Z" fill="black"/>
<path d="M173.59 326H168.615C168.1 326 167.66 325.824 167.297 325.473C166.945 325.121 166.77 324.688 166.77 324.172V302.639C166.77 302.123 166.945 301.689 167.297 301.338C167.66 300.975 168.1 300.793 168.615 300.793H173.59C174.105 300.793 174.539 300.975 174.891 301.338C175.242 301.689 175.418 302.123 175.418 302.639V324.172C175.418 324.688 175.242 325.121 174.891 325.473C174.539 325.824 174.105 326 173.59 326ZM189.604 307.648H177.967C177.451 307.648 177.018 307.473 176.666 307.121C176.314 306.758 176.139 306.318 176.139 305.803V302.639C176.139 302.123 176.314 301.689 176.666 301.338C177.018 300.975 177.451 300.793 177.967 300.793H189.604C190.119 300.793 190.553 300.975 190.904 301.338C191.256 301.689 191.432 302.123 191.432 302.639V305.803C191.432 306.318 191.256 306.758 190.904 307.121C190.553 307.473 190.119 307.648 189.604 307.648ZM186.176 316.789H177.967C177.451 316.789 177.018 316.613 176.666 316.262C176.314 315.898 176.139 315.459 176.139 314.943V311.779C176.139 311.264 176.314 310.83 176.666 310.479C177.018 310.127 177.451 309.951 177.967 309.951H186.176C186.691 309.951 187.125 310.127 187.477 310.479C187.84 310.83 188.021 311.264 188.021 311.779V314.943C188.021 315.459 187.84 315.898 187.477 316.262C187.125 316.613 186.691 316.789 186.176 316.789ZM189.604 326H177.967C177.451 326 177.018 325.824 176.666 325.473C176.314 325.121 176.139 324.688 176.139 324.172V320.99C176.139 320.475 176.314 320.041 176.666 319.689C177.018 319.338 177.451 319.162 177.967 319.162H189.604C190.119 319.162 190.553 319.338 190.904 319.689C191.256 320.041 191.432 320.475 191.432 320.99V324.172C191.432 324.688 191.256 325.121 190.904 325.473C190.553 325.824 190.119 326 189.604 326Z" fill="black"/>
<path d="M149.104 326H147.627C146.643 326 145.875 325.473 145.324 324.418L137.221 309.072C136.74 308.158 136.5 307.227 136.5 306.277V302.639C136.5 302.123 136.676 301.689 137.027 301.338C137.391 300.975 137.83 300.793 138.346 300.793H141.369C142.225 300.793 142.863 301.191 143.285 301.988L150.369 315.523C150.756 316.25 150.949 317.041 150.949 317.896V324.172C150.949 324.688 150.768 325.121 150.404 325.473C150.053 325.824 149.619 326 149.104 326ZM154.939 326H153.498C152.982 326 152.549 325.824 152.197 325.473C151.846 325.121 151.67 324.688 151.67 324.172V317.896C151.67 317.018 151.857 316.227 152.232 315.523L159.299 301.988C159.721 301.191 160.354 300.793 161.197 300.793H164.221C164.736 300.793 165.17 300.975 165.521 301.338C165.885 301.689 166.066 302.123 166.066 302.639V306.277C166.066 307.227 165.826 308.158 165.346 309.072L157.242 324.418C156.691 325.473 155.924 326 154.939 326Z" fill="black"/>
<path d="M352.764 311.996H359.287C359.971 311.996 360.404 312.338 360.586 313.021L362.422 319.584C362.572 320.15 362.646 320.674 362.646 321.156V324.984C362.646 325.271 362.546 325.512 362.344 325.707C362.148 325.902 361.908 326 361.621 326H360.664C359.993 326 359.567 325.661 359.385 324.984L357.021 316.645C356.865 316.085 356.491 315.805 355.898 315.805H352.764C352.477 315.805 352.233 315.707 352.031 315.512C351.836 315.31 351.738 315.066 351.738 314.779V313.021C351.738 312.735 351.836 312.494 352.031 312.299C352.233 312.097 352.477 311.996 352.764 311.996ZM366.406 311.996H372.92C373.206 311.996 373.447 312.097 373.643 312.299C373.844 312.494 373.945 312.735 373.945 313.021V314.779C373.945 315.066 373.844 315.31 373.643 315.512C373.447 315.707 373.206 315.805 372.92 315.805H369.785C369.193 315.805 368.818 316.085 368.662 316.645L366.299 324.984C366.117 325.661 365.69 326 365.02 326H364.062C363.776 326 363.535 325.902 363.34 325.707C363.145 325.512 363.047 325.271 363.047 324.984V321.156C363.047 320.648 363.118 320.124 363.262 319.584L365.107 313.021C365.29 312.338 365.723 311.996 366.406 311.996ZM356.543 317.221V324.984C356.543 325.271 356.445 325.512 356.25 325.707C356.055 325.902 355.814 326 355.527 326H352.764C352.477 326 352.233 325.902 352.031 325.707C351.836 325.512 351.738 325.271 351.738 324.984V317.221C351.738 316.934 351.836 316.693 352.031 316.498C352.233 316.296 352.477 316.195 352.764 316.195H355.527C355.814 316.195 356.055 316.296 356.25 316.498C356.445 316.693 356.543 316.934 356.543 317.221ZM369.141 324.984V317.221C369.141 316.934 369.238 316.693 369.434 316.498C369.635 316.296 369.88 316.195 370.166 316.195H372.92C373.206 316.195 373.447 316.296 373.643 316.498C373.844 316.693 373.945 316.934 373.945 317.221V324.984C373.945 325.271 373.844 325.512 373.643 325.707C373.447 325.902 373.206 326 372.92 326H370.166C369.88 326 369.635 325.902 369.434 325.707C369.238 325.512 369.141 325.271 369.141 324.984Z" fill="black"/>
<path d="M341.104 311.996H341.924C342.21 311.996 342.451 312.097 342.646 312.299C342.848 312.494 342.949 312.735 342.949 313.021V316.303C342.949 316.778 342.842 317.217 342.627 317.621L341.65 319.496C341.396 319.978 340.996 320.219 340.449 320.219H337.988C337.493 320.219 337.132 320.03 336.904 319.652C336.676 319.275 336.676 318.865 336.904 318.422L339.824 312.885C339.987 312.572 340.169 312.348 340.371 312.211C340.573 312.068 340.817 311.996 341.104 311.996ZM344.365 311.996H345.166C345.452 311.996 345.697 312.068 345.898 312.211C346.1 312.348 346.283 312.572 346.445 312.885L349.365 318.422C349.593 318.865 349.593 319.275 349.365 319.652C349.144 320.03 348.786 320.219 348.291 320.219H345.85C345.322 320.219 344.928 319.984 344.668 319.516L343.662 317.621C343.454 317.23 343.35 316.791 343.35 316.303V313.021C343.35 312.735 343.447 312.494 343.643 312.299C343.838 312.097 344.079 311.996 344.365 311.996ZM336.504 320.619H349.766C350.26 320.619 350.622 320.834 350.85 321.264L351.104 321.762C351.266 322.074 351.348 322.475 351.348 322.963V324.984C351.348 325.271 351.247 325.512 351.045 325.707C350.85 325.902 350.609 326 350.322 326H348.643C348.187 326 347.842 325.779 347.607 325.336L347.344 324.838C347.253 324.656 347.148 324.525 347.031 324.447C346.914 324.363 346.751 324.32 346.543 324.32H339.727C339.518 324.32 339.355 324.363 339.238 324.447C339.121 324.525 339.017 324.656 338.926 324.838L338.662 325.336C338.428 325.779 338.083 326 337.627 326H335.947C335.661 326 335.417 325.902 335.215 325.707C335.02 325.512 334.922 325.271 334.922 324.984V322.963C334.922 322.475 335.003 322.074 335.166 321.762L335.43 321.264C335.658 320.834 336.016 320.619 336.504 320.619Z" fill="black"/>
</svg>
