<svg width="192" height="192" viewBox="0 0 192 192" fill="none" xmlns="http://www.w3.org/2000/svg">
<path fill-rule="evenodd" clip-rule="evenodd" d="M70.1783 41.4783C69.7738 41.9212 69.7475 43.5632 69.8218 63.6649L69.9021 85.3734L70.493 87.4194C71.3717 90.4629 73.3293 94.3128 75.1097 96.4987C77.2836 99.168 90.1236 111.753 91.0103 112.084C92.1059 112.493 100.968 112.424 101.739 112.001C102.792 111.422 116.377 98.1207 117.769 96.3053C119.351 94.2419 121.403 90.1964 122.211 87.5473L122.796 85.6291L122.877 63.7928C122.952 43.5708 122.926 41.9212 122.522 41.4783C122.129 41.0486 121.66 41 117.911 41C114.772 41 113.439 41.1008 112.532 41.4072C110.884 41.9634 108.953 43.7435 108.195 45.4043L107.58 46.7545L107.45 64.913C107.322 82.9621 107.318 83.08 106.745 84.4782C106.007 86.2828 105.041 87.413 100.567 91.7089C97.6189 94.5396 96.7688 95.2202 96.1787 95.2209C95.5739 95.2217 94.7282 94.4997 91.3113 91.0649C86.9024 86.6327 86.0131 85.3527 85.5118 82.7171C85.3509 81.8716 85.2498 74.7363 85.2498 64.2483C85.2498 47.7703 85.2312 47.1082 84.7322 45.787C84.0496 43.9795 82.2423 42.189 80.418 41.5128C79.2414 41.0765 78.406 41 74.825 41C71.0405 41 70.5712 41.0483 70.1783 41.4783ZM93.7382 41.3532C91.4641 42.1583 90.1675 43.377 89.0652 45.7455L88.4766 47.0102V64.5348V82.0593L89.3001 83.7166C90.4101 85.9504 95.1061 90.6163 96.2443 90.6163C96.8525 90.6163 97.56 90.045 100.129 87.4793C102.942 84.67 103.315 84.192 103.691 82.9087C104.065 81.6348 104.104 79.5317 104.039 63.9872L103.965 46.4987L103.2 45.1292C102.242 43.4153 100.672 42.0281 99.0325 41.4458C97.5608 40.9233 95.0754 40.8795 93.7382 41.3532Z" fill="black"/>
<path d="M137.37 132.015H146.554C147.502 132.015 148.101 132.502 148.352 133.478L151.585 145.408C151.79 146.151 151.892 146.895 151.892 147.638V150.551C151.892 150.96 151.753 151.303 151.474 151.582C151.195 151.861 150.851 152 150.442 152H148.505C147.53 152 146.912 151.517 146.652 150.551L143.446 138.677C143.335 138.258 143.153 137.952 142.903 137.757C142.652 137.552 142.299 137.45 141.843 137.45H137.37C136.961 137.45 136.612 137.311 136.324 137.032C136.046 136.744 135.906 136.395 135.906 135.987V133.478C135.906 133.069 136.046 132.725 136.324 132.447C136.612 132.159 136.961 132.015 137.37 132.015ZM157.857 152H153.927C153.518 152 153.169 151.861 152.881 151.582C152.603 151.303 152.463 150.96 152.463 150.551V133.478C152.463 133.069 152.603 132.725 152.881 132.447C153.169 132.159 153.518 132.015 153.927 132.015H157.857C158.266 132.015 158.61 132.159 158.888 132.447C159.176 132.725 159.32 133.069 159.32 133.478V150.551C159.32 150.96 159.176 151.303 158.888 151.582C158.61 151.861 158.266 152 157.857 152ZM142.763 139.471V150.551C142.763 150.96 142.624 151.303 142.345 151.582C142.066 151.861 141.723 152 141.314 152H137.37C136.961 152 136.612 151.861 136.324 151.582C136.046 151.303 135.906 150.96 135.906 150.551V139.471C135.906 139.062 136.046 138.718 136.324 138.44C136.612 138.152 136.961 138.008 137.37 138.008H141.314C141.723 138.008 142.066 138.152 142.345 138.44C142.624 138.718 142.763 139.062 142.763 139.471Z" fill="black"/>
<path d="M120.729 132.015H121.9C122.308 132.015 122.652 132.159 122.931 132.447C123.219 132.725 123.363 133.069 123.363 133.478V138.161C123.363 138.839 123.21 139.466 122.903 140.042L121.509 142.718C121.147 143.406 120.576 143.75 119.795 143.75H116.283C115.577 143.75 115.061 143.48 114.736 142.941C114.411 142.402 114.411 141.817 114.736 141.185L118.903 133.283C119.135 132.837 119.396 132.516 119.684 132.321C119.972 132.117 120.32 132.015 120.729 132.015ZM125.384 132.015H126.527C126.935 132.015 127.284 132.117 127.572 132.321C127.86 132.516 128.12 132.837 128.352 133.283L132.519 141.185C132.845 141.817 132.845 142.402 132.519 142.941C132.204 143.48 131.693 143.75 130.986 143.75H127.502C126.75 143.75 126.187 143.415 125.816 142.746L124.38 140.042C124.083 139.485 123.934 138.858 123.934 138.161V133.478C123.934 133.069 124.074 132.725 124.352 132.447C124.631 132.159 124.975 132.015 125.384 132.015ZM114.165 144.321H133.091C133.797 144.321 134.313 144.628 134.638 145.241L135 145.952C135.233 146.398 135.349 146.969 135.349 147.666V150.551C135.349 150.96 135.205 151.303 134.917 151.582C134.638 151.861 134.294 152 133.885 152H131.488C130.838 152 130.345 151.684 130.011 151.053L129.635 150.342C129.504 150.082 129.356 149.896 129.189 149.784C129.021 149.663 128.789 149.603 128.492 149.603H118.764C118.466 149.603 118.234 149.663 118.067 149.784C117.9 149.896 117.751 150.082 117.621 150.342L117.245 151.053C116.91 151.684 116.418 152 115.767 152H113.37C112.961 152 112.613 151.861 112.325 151.582C112.046 151.303 111.907 150.96 111.907 150.551V147.666C111.907 146.969 112.023 146.398 112.255 145.952L112.631 145.241C112.957 144.628 113.468 144.321 114.165 144.321Z" fill="black"/>
<path d="M96.0743 133.478V150.551C96.0743 150.96 95.9349 151.303 95.6562 151.582C95.3774 151.861 95.0336 152 94.6248 152H90.6807C90.2718 152 89.9234 151.861 89.6354 151.582C89.3567 151.303 89.2173 150.96 89.2173 150.551V133.478C89.2173 133.069 89.3567 132.725 89.6354 132.447C89.9234 132.159 90.2718 132.015 90.6807 132.015H94.6248C95.0336 132.015 95.3774 132.159 95.6562 132.447C95.9349 132.725 96.0743 133.069 96.0743 133.478ZM101.9 137.45H98.0951C97.6863 137.45 97.3425 137.311 97.0638 137.032C96.785 136.744 96.6457 136.395 96.6457 135.987V133.478C96.6457 133.069 96.785 132.725 97.0638 132.447C97.3425 132.159 97.6863 132.015 98.0951 132.015H101.761C102.615 132.015 103.456 132.08 104.283 132.21C105.11 132.331 105.798 132.465 106.346 132.614C106.894 132.763 107.47 132.967 108.074 133.227C108.687 133.478 109.115 133.668 109.356 133.799C109.607 133.929 109.928 134.105 110.318 134.328C111.005 134.737 111.349 135.327 111.349 136.098V137.562C111.349 137.97 111.205 138.314 110.917 138.593C110.638 138.872 110.295 139.011 109.886 139.011H106.067C105.435 139.011 104.892 138.783 104.436 138.328C103.888 137.743 103.043 137.45 101.9 137.45ZM109.468 143.833C109.003 144.103 108.487 144.237 107.921 144.237H98.0394C97.6306 144.237 97.2961 144.112 97.0359 143.861C96.7758 143.61 96.6457 143.29 96.6457 142.899C96.6457 142.509 96.7758 142.189 97.0359 141.938C97.2961 141.678 97.6306 141.548 98.0394 141.548H101.9C103.219 141.548 104.065 141.227 104.436 140.586C104.632 140.242 104.855 139.991 105.105 139.833C105.356 139.666 105.677 139.582 106.067 139.582H109.886C110.304 139.582 110.652 139.712 110.931 139.973C111.21 140.233 111.349 140.558 111.349 140.948V141.548C111.349 142.124 111.108 142.611 110.624 143.011C110.123 143.401 109.737 143.675 109.468 143.833ZM109.886 152H108.255C107.837 152 107.475 151.949 107.168 151.847C106.861 151.735 106.504 151.54 106.095 151.262L101.524 148.084C100.929 147.684 100.293 147.485 99.6142 147.485H98.0394C97.6306 147.485 97.2961 147.359 97.0359 147.108C96.7758 146.857 96.6457 146.537 96.6457 146.147C96.6457 145.756 96.7758 145.436 97.0359 145.185C97.2961 144.934 97.6306 144.809 98.0394 144.809H107.865C108.469 144.809 109.003 144.971 109.468 145.297L110.457 145.979C111.052 146.416 111.349 146.988 111.349 147.694V150.551C111.349 150.96 111.205 151.303 110.917 151.582C110.638 151.861 110.295 152 109.886 152Z" fill="black"/>
<path d="M74.4998 152H70.5557C70.1468 152 69.7984 151.861 69.5104 151.582C69.2317 151.303 69.0923 150.96 69.0923 150.551V133.478C69.0923 133.069 69.2317 132.725 69.5104 132.447C69.7984 132.159 70.1468 132.015 70.5557 132.015H74.4998C74.9086 132.015 75.2524 132.159 75.5312 132.447C75.8099 132.725 75.9493 133.069 75.9493 133.478V150.551C75.9493 150.96 75.8099 151.303 75.5312 151.582C75.2524 151.861 74.9086 152 74.4998 152ZM87.1964 137.45H77.9701C77.5613 137.45 77.2175 137.311 76.9388 137.032C76.66 136.744 76.5207 136.395 76.5207 135.987V133.478C76.5207 133.069 76.66 132.725 76.9388 132.447C77.2175 132.159 77.5613 132.015 77.9701 132.015H87.1964C87.6052 132.015 87.949 132.159 88.2277 132.447C88.5064 132.725 88.6458 133.069 88.6458 133.478V135.987C88.6458 136.395 88.5064 136.744 88.2277 137.032C87.949 137.311 87.6052 137.45 87.1964 137.45ZM84.4787 144.697H77.9701C77.5613 144.697 77.2175 144.558 76.9388 144.279C76.66 143.991 76.5207 143.643 76.5207 143.234V140.725C76.5207 140.316 76.66 139.973 76.9388 139.694C77.2175 139.415 77.5613 139.276 77.9701 139.276H84.4787C84.8875 139.276 85.2313 139.415 85.51 139.694C85.798 139.973 85.942 140.316 85.942 140.725V143.234C85.942 143.643 85.798 143.991 85.51 144.279C85.2313 144.558 84.8875 144.697 84.4787 144.697ZM87.1964 152H77.9701C77.5613 152 77.2175 151.861 76.9388 151.582C76.66 151.303 76.5207 150.96 76.5207 150.551V148.028C76.5207 147.619 76.66 147.276 76.9388 146.997C77.2175 146.718 77.5613 146.579 77.9701 146.579H87.1964C87.6052 146.579 87.949 146.718 88.2277 146.997C88.5064 147.276 88.6458 147.619 88.6458 148.028V150.551C88.6458 150.96 88.5064 151.303 88.2277 151.582C87.949 151.861 87.6052 152 87.1964 152Z" fill="black"/>
<path d="M67.0857 137.45H47.5879C47.1791 137.45 46.8307 137.311 46.5426 137.032C46.2639 136.744 46.1245 136.395 46.1245 135.987V133.478C46.1245 133.069 46.2639 132.725 46.5426 132.447C46.8307 132.159 47.1791 132.015 47.5879 132.015H67.0857C67.4945 132.015 67.8383 132.159 68.117 132.447C68.3957 132.725 68.5351 133.069 68.5351 133.478V135.987C68.5351 136.395 68.3957 136.744 68.117 137.032C67.8383 137.311 67.4945 137.45 67.0857 137.45ZM59.3228 152H55.3786C54.9698 152 54.626 151.861 54.3473 151.582C54.0686 151.303 53.9292 150.96 53.9292 150.551V139.471C53.9292 139.062 54.0686 138.718 54.3473 138.44C54.626 138.152 54.9698 138.008 55.3786 138.008H59.3228C59.7316 138.008 60.0754 138.152 60.3541 138.44C60.6329 138.718 60.7722 139.062 60.7722 139.471V150.551C60.7722 150.96 60.6329 151.303 60.3541 151.582C60.0754 151.861 59.7316 152 59.3228 152Z" fill="black"/>
<path d="M31.407 152H27.4629C27.0541 152 26.7057 151.861 26.4176 151.582C26.1389 151.303 25.9995 150.96 25.9995 150.551V133.478C25.9995 133.069 26.1389 132.725 26.4176 132.447C26.7057 132.159 27.0541 132.015 27.4629 132.015H31.407C31.8159 132.015 32.1596 132.159 32.4384 132.447C32.7171 132.725 32.8565 133.069 32.8565 133.478V150.551C32.8565 150.96 32.7171 151.303 32.4384 151.582C32.1596 151.861 31.8159 152 31.407 152ZM44.1036 137.45H34.8773C34.4685 137.45 34.1247 137.311 33.846 137.032C33.5673 136.744 33.4279 136.395 33.4279 135.987V133.478C33.4279 133.069 33.5673 132.725 33.846 132.447C34.1247 132.159 34.4685 132.015 34.8773 132.015H44.1036C44.5124 132.015 44.8562 132.159 45.1349 132.447C45.4137 132.725 45.553 133.069 45.553 133.478V135.987C45.553 136.395 45.4137 136.744 45.1349 137.032C44.8562 137.311 44.5124 137.45 44.1036 137.45ZM41.3859 144.697H34.8773C34.4685 144.697 34.1247 144.558 33.846 144.279C33.5673 143.991 33.4279 143.643 33.4279 143.234V140.725C33.4279 140.316 33.5673 139.973 33.846 139.694C34.1247 139.415 34.4685 139.276 34.8773 139.276H41.3859C41.7947 139.276 42.1385 139.415 42.4172 139.694C42.7053 139.973 42.8493 140.316 42.8493 140.725V143.234C42.8493 143.643 42.7053 143.991 42.4172 144.279C42.1385 144.558 41.7947 144.697 41.3859 144.697ZM44.1036 152H34.8773C34.4685 152 34.1247 151.861 33.846 151.582C33.5673 151.303 33.4279 150.96 33.4279 150.551V148.028C33.4279 147.619 33.5673 147.276 33.846 146.997C34.1247 146.718 34.4685 146.579 34.8773 146.579H44.1036C44.5124 146.579 44.8562 146.718 45.1349 146.997C45.4137 147.276 45.553 147.619 45.553 148.028V150.551C45.553 150.96 45.4137 151.303 45.1349 151.582C44.8562 151.861 44.5124 152 44.1036 152Z" fill="black"/>
<path d="M11.9928 152H10.8221C10.0416 152 9.43304 151.582 8.99634 150.746L2.57141 138.579C2.19047 137.854 2 137.116 2 136.363V133.478C2 133.069 2.13937 132.725 2.41811 132.447C2.70614 132.159 3.05456 132.015 3.46338 132.015H5.86053C6.5388 132.015 7.04517 132.331 7.37966 132.962L12.9962 143.694C13.3029 144.27 13.4562 144.897 13.4562 145.575V150.551C13.4562 150.96 13.3122 151.303 13.0241 151.582C12.7454 151.861 12.4016 152 11.9928 152ZM16.6199 152H15.477C15.0682 152 14.7244 151.861 14.4457 151.582C14.1669 151.303 14.0276 150.96 14.0276 150.551V145.575C14.0276 144.878 14.1762 144.251 14.4736 143.694L20.0762 132.962C20.4107 132.331 20.9124 132.015 21.5814 132.015H23.9786C24.3874 132.015 24.7312 132.159 25.0099 132.447C25.2979 132.725 25.4419 133.069 25.4419 133.478V136.363C25.4419 137.116 25.2515 137.854 24.8705 138.579L18.4456 150.746C18.0089 151.582 17.4003 152 16.6199 152Z" fill="black"/>
<path d="M173.466 140.897H178.638C179.18 140.897 179.524 141.168 179.668 141.71L181.124 146.913C181.243 147.362 181.302 147.778 181.302 148.16V151.195C181.302 151.422 181.222 151.613 181.062 151.768C180.907 151.923 180.716 152 180.489 152H179.73C179.199 152 178.86 151.732 178.716 151.195L176.842 144.583C176.718 144.139 176.421 143.917 175.952 143.917H173.466C173.239 143.917 173.046 143.839 172.886 143.684C172.731 143.524 172.653 143.331 172.653 143.104V141.71C172.653 141.483 172.731 141.292 172.886 141.137C173.046 140.977 173.239 140.897 173.466 140.897ZM184.283 140.897H189.447C189.674 140.897 189.865 140.977 190.02 141.137C190.18 141.292 190.26 141.483 190.26 141.71V143.104C190.26 143.331 190.18 143.524 190.02 143.684C189.865 143.839 189.674 143.917 189.447 143.917H186.962C186.492 143.917 186.195 144.139 186.071 144.583L184.198 151.195C184.053 151.732 183.715 152 183.183 152H182.425C182.198 152 182.007 151.923 181.852 151.768C181.697 151.613 181.619 151.422 181.619 151.195V148.16C181.619 147.757 181.676 147.342 181.79 146.913L183.253 141.71C183.398 141.168 183.741 140.897 184.283 140.897ZM176.463 145.039V151.195C176.463 151.422 176.385 151.613 176.23 151.768C176.076 151.923 175.885 152 175.658 152H173.466C173.239 152 173.046 151.923 172.886 151.768C172.731 151.613 172.653 151.422 172.653 151.195V145.039C172.653 144.812 172.731 144.621 172.886 144.466C173.046 144.306 173.239 144.226 173.466 144.226H175.658C175.885 144.226 176.076 144.306 176.23 144.466C176.385 144.621 176.463 144.812 176.463 145.039ZM186.451 151.195V145.039C186.451 144.812 186.528 144.621 186.683 144.466C186.843 144.306 187.037 144.226 187.264 144.226H189.447C189.674 144.226 189.865 144.306 190.02 144.466C190.18 144.621 190.26 144.812 190.26 145.039V151.195C190.26 151.422 190.18 151.613 190.02 151.768C189.865 151.923 189.674 152 189.447 152H187.264C187.037 152 186.843 151.923 186.683 151.768C186.528 151.613 186.451 151.422 186.451 151.195Z" fill="black"/>
<path d="M164.221 140.897H164.872C165.099 140.897 165.29 140.977 165.445 141.137C165.605 141.292 165.685 141.483 165.685 141.71V144.312C165.685 144.688 165.6 145.037 165.429 145.357L164.655 146.843C164.454 147.225 164.136 147.416 163.703 147.416H161.752C161.359 147.416 161.073 147.267 160.892 146.967C160.711 146.668 160.711 146.343 160.892 145.992L163.207 141.602C163.336 141.354 163.481 141.176 163.641 141.067C163.801 140.954 163.994 140.897 164.221 140.897ZM166.808 140.897H167.442C167.67 140.897 167.863 140.954 168.023 141.067C168.183 141.176 168.328 141.354 168.457 141.602L170.772 145.992C170.952 146.343 170.952 146.668 170.772 146.967C170.596 147.267 170.312 147.416 169.92 147.416H167.984C167.566 147.416 167.254 147.231 167.048 146.859L166.25 145.357C166.085 145.047 166.002 144.699 166.002 144.312V141.71C166.002 141.483 166.08 141.292 166.235 141.137C166.389 140.977 166.58 140.897 166.808 140.897ZM160.575 147.734H171.089C171.482 147.734 171.768 147.904 171.949 148.245L172.15 148.64C172.279 148.887 172.344 149.205 172.344 149.592V151.195C172.344 151.422 172.264 151.613 172.104 151.768C171.949 151.923 171.758 152 171.531 152H170.199C169.838 152 169.564 151.825 169.378 151.474L169.169 151.079C169.097 150.934 169.014 150.831 168.921 150.769C168.828 150.702 168.699 150.668 168.534 150.668H163.13C162.965 150.668 162.836 150.702 162.743 150.769C162.65 150.831 162.567 150.934 162.495 151.079L162.286 151.474C162.1 151.825 161.826 152 161.465 152H160.133C159.906 152 159.713 151.923 159.553 151.768C159.398 151.613 159.32 151.422 159.32 151.195V149.592C159.32 149.205 159.385 148.887 159.514 148.64L159.723 148.245C159.904 147.904 160.187 147.734 160.575 147.734Z" fill="black"/>
</svg>
