<svg width="24" height="24" viewBox="0 0 24 24" fill="none" xmlns="http://www.w3.org/2000/svg">
<path fill-rule="evenodd" clip-rule="evenodd" d="M11.1109 3.11091C12.1424 2.07946 13.5413 1.5 15 1.5H18C18.2761 1.5 18.5 1.72386 18.5 2V6C18.5 6.27614 18.2761 6.5 18 6.5H15C14.8674 6.5 14.7402 6.55268 14.6464 6.64645C14.5527 6.74022 14.5 6.86739 14.5 7V9.5H18C18.154 9.5 18.2993 9.57094 18.3941 9.69229C18.4889 9.81365 18.5224 9.9719 18.4851 10.1213L17.4851 14.1213C17.4294 14.3439 17.2294 14.5 17 14.5H14.5V22C14.5 22.2761 14.2761 22.5 14 22.5H10C9.72386 22.5 9.5 22.2761 9.5 22V14.5H7C6.72386 14.5 6.5 14.2761 6.5 14V10C6.5 9.72386 6.72386 9.5 7 9.5H9.5V7C9.5 5.54131 10.0795 4.14236 11.1109 3.11091ZM15 2.5C13.8065 2.5 12.6619 2.97411 11.818 3.81802C10.9741 4.66193 10.5 5.80653 10.5 7V10C10.5 10.2761 10.2761 10.5 10 10.5H7.5V13.5H10C10.2761 13.5 10.5 13.7239 10.5 14V21.5H13.5V14C13.5 13.7239 13.7239 13.5 14 13.5H16.6096L17.3596 10.5H14C13.7239 10.5 13.5 10.2761 13.5 10V7C13.5 6.60217 13.658 6.22064 13.9393 5.93934C14.2206 5.65804 14.6022 5.5 15 5.5H17.5V2.5H15Z" fill="#090C00"/>
</svg>
