<!-- Generated by IcoMoon.io -->
<svg version="1.1" xmlns="http://www.w3.org/2000/svg" width="1736" height="1024" viewBox="0 0 1736 1024">
<g id="icomoon-ignore">
</g>
<path fill="#000" d="M628.787 4.593c3.625-3.966 7.95-4.408 42.858-4.408 33.027 0 40.728 0.71 51.583 4.731 16.822 6.235 33.497 22.752 39.787 39.418 4.602 12.183 4.777 18.289 4.777 170.261 0 96.737 0.931 162.541 2.407 170.335 4.63 24.311 12.829 36.116 53.492 76.991 31.523 31.68 39.317 38.33 44.896 38.33 5.441-0.009 13.281-6.281 40.469-32.399 41.263-39.612 50.172-50.033 56.978-66.68 5.285-12.893 5.322-13.972 6.502-180.443l1.199-167.476 5.672-12.451c6.991-15.31 24.8-31.735 39.999-36.863 8.365-2.831 20.659-3.754 49.609-3.754 34.576 0 38.901 0.443 42.526 4.408 3.726 4.086 3.966 19.303 3.274 205.805l-0.747 201.388-5.395 17.689c-7.452 24.431-26.377 61.746-40.967 80.773-12.838 16.748-138.129 139.42-147.84 144.76-7.111 3.901-88.843 4.538-98.951 0.765-8.171-3.053-126.591-119.121-146.641-143.736-16.426-20.161-34.475-55.668-42.581-83.742l-5.451-18.87-0.738-200.207c-0.682-185.395-0.443-200.539 3.283-204.625zM846.075 3.449c12.331-4.362 35.259-3.966 48.825 0.858 15.125 5.377 29.605 18.16 38.44 33.967l7.055 12.635 0.682 161.287c0.599 143.367 0.24 162.763-3.21 174.513-3.468 11.833-6.908 16.241-32.851 42.148-23.693 23.666-30.214 28.941-35.83 28.941-10.495 0-53.805-43.042-64.043-63.637l-7.59-15.291v-323.257l5.423-11.667c10.173-21.839 22.125-33.082 43.098-40.506z"></path>
<path fill="#000" d="M1248.481 839.591h84.702c8.743 0 14.268 4.491 16.582 13.493l29.817 110.027c1.891 6.852 2.831 13.714 2.831 20.567v26.866c0.002 0.090 0.004 0.196 0.004 0.302 0 3.604-1.476 6.862-3.857 9.205l-0.002 0.002c-2.347 2.383-5.608 3.859-9.214 3.859-0.107 0-0.213-0.001-0.32-0.004h-17.848c-8.992 0-14.692-4.455-17.090-13.364l-29.568-109.511c-1.024-3.864-2.702-6.686-5.008-8.485-2.315-1.891-5.571-2.831-9.776-2.831h-41.253c-3.772 0-6.991-1.282-9.647-3.855-2.384-2.417-3.857-5.738-3.857-9.404 0-0.082 0.001-0.164 0.002-0.246v0.012-23.14c0-3.772 1.291-6.945 3.855-9.509 2.391-2.46 5.731-3.986 9.428-3.986 0.077 0 0.154 0.001 0.231 0.002h-0.012zM1437.427 1023.908h-36.245c-3.772 0-6.991-1.282-9.647-3.855-2.382-2.348-3.858-5.611-3.858-9.218 0-0.102 0.001-0.204 0.004-0.306v0.015-157.46c0-3.772 1.291-6.945 3.855-9.509 2.391-2.46 5.731-3.986 9.428-3.986 0.077 0 0.154 0.001 0.231 0.002h36.233c3.772 0 6.945 1.328 9.509 3.984 2.656 2.564 3.984 5.737 3.984 9.509v157.46c0 3.772-1.328 6.935-3.984 9.509-2.341 2.382-5.597 3.859-9.199 3.859-0.109 0-0.218-0.001-0.326-0.004h0.016zM1298.22 908.356v102.188c0.002 0.090 0.004 0.196 0.004 0.302 0 3.604-1.476 6.862-3.857 9.205l-0.002 0.002c-2.344 2.382-5.603 3.859-9.206 3.859-0.106 0-0.212-0.001-0.318-0.004h-36.358c-3.772 0-6.991-1.282-9.647-3.855-2.382-2.348-3.858-5.611-3.858-9.218 0-0.102 0.001-0.204 0.004-0.306v0.015-102.188c0-3.772 1.291-6.945 3.855-9.509 2.391-2.46 5.731-3.986 9.428-3.986 0.077 0 0.154 0.001 0.231 0.002h36.362c3.772 0 6.935 1.328 9.509 3.984 2.573 2.564 3.855 5.737 3.855 9.509zM1095.006 839.591h10.8c3.763 0 6.935 1.328 9.509 3.984 2.656 2.564 3.984 5.737 3.984 9.509v43.19c0 6.253-1.411 12.036-4.242 17.348l-12.856 24.68c-3.339 6.345-8.605 9.518-15.808 9.518h-32.39c-6.511 0-11.27-2.49-14.268-7.461s-2.997-10.366 0-16.195l38.431-72.878c2.14-4.113 4.547-7.074 7.203-8.872 2.656-1.881 5.866-2.822 9.638-2.822zM1137.938 839.591h10.542c3.763 0 6.982 0.941 9.638 2.822 2.656 1.798 5.054 4.759 7.194 8.872l38.431 72.878c3.007 5.829 3.007 11.224 0 16.195-2.905 4.971-7.618 7.461-14.138 7.461h-32.132c-6.935 0-12.128-3.090-15.55-9.26l-13.244-24.938c-2.739-5.137-4.113-10.92-4.113-17.348v-43.19c0-3.772 1.291-6.945 3.855-9.509 2.325-2.458 5.61-3.987 9.252-3.987 0.094 0 0.187 0.001 0.28 0.003h-0.014zM1034.468 953.086h174.549c6.511 0 11.27 2.831 14.268 8.485l3.339 6.557c2.149 4.113 3.219 9.38 3.219 15.808v26.608c0 3.772-1.328 6.935-3.984 9.509-2.347 2.383-5.608 3.859-9.214 3.859-0.107 0-0.213-0.001-0.32-0.004h-22.091c-5.995 0-10.542-2.914-13.622-8.734l-3.468-6.557c-1.208-2.398-2.573-4.113-4.113-5.146-1.549-1.116-3.689-1.669-6.428-1.669h-89.719c-2.748 0-4.888 0.553-6.428 1.669-1.54 1.033-2.914 2.748-4.113 5.146l-3.468 6.557c-3.090 5.82-7.627 8.734-13.631 8.734h-22.107c-3.772 0-6.982-1.282-9.638-3.855-2.382-2.344-3.859-5.603-3.859-9.206 0-0.106 0.001-0.212 0.004-0.318v0.016-26.608c0-6.428 1.070-11.694 3.21-15.808l3.468-6.557c3.007-5.654 7.719-8.485 14.148-8.485zM867.619 853.084v157.46c0.002 0.090 0.004 0.196 0.004 0.302 0 3.604-1.476 6.862-3.857 9.205l-0.002 0.002c-2.344 2.382-5.603 3.859-9.206 3.859-0.106 0-0.212-0.001-0.318-0.004h-36.368c-3.781 0-6.991-1.282-9.647-3.855-2.382-2.344-3.859-5.603-3.859-9.206 0-0.106 0.001-0.212 0.004-0.318v0.016-157.46c0-3.772 1.291-6.945 3.855-9.509 2.39-2.46 5.729-3.986 9.424-3.986 0.078 0 0.157 0.001 0.235 0.002h36.362c3.772 0 6.935 1.328 9.509 3.984 2.382 2.344 3.859 5.603 3.859 9.206 0 0.106-0.001 0.212-0.004 0.318v-0.016zM921.351 889.717h-35.092c-0.090 0.002-0.196 0.004-0.302 0.004-3.604 0-6.862-1.476-9.205-3.857l-0.002-0.002c-2.384-2.413-3.857-5.73-3.857-9.392 0-0.086 0.001-0.172 0.002-0.258v0.013-23.14c0-3.772 1.282-6.945 3.855-9.509 2.322-2.457 5.604-3.987 9.244-3.987 0.093 0 0.186 0.001 0.279 0.003h33.797c7.876 0 15.633 0.599 23.26 1.798 7.627 1.116 13.972 2.352 19.026 3.726s10.366 3.256 15.937 5.654c5.654 2.315 9.601 4.067 11.824 5.275 2.315 1.199 5.275 2.822 8.872 4.879 6.336 3.772 9.509 9.214 9.509 16.324v13.502c0 3.763-1.328 6.935-3.984 9.509-2.344 2.382-5.603 3.859-9.206 3.859-0.106 0-0.212-0.001-0.318-0.004h-35.206c-0.069 0.001-0.15 0.001-0.232 0.001-5.814 0-11.065-2.414-14.804-6.294l-0.006-0.006c-5.054-5.395-12.847-8.098-23.389-8.098zM991.149 948.586c-4.289 2.49-9.048 3.726-14.268 3.726h-91.139c-3.763 0-6.852-1.153-9.25-3.468s-3.597-5.266-3.597-8.872c0-3.597 1.199-6.548 3.597-8.863 2.398-2.398 5.488-3.597 9.25-3.597h35.609c12.165 0 19.967-2.96 23.389-8.872 1.808-3.173 3.864-5.488 6.17-6.945 2.315-1.54 5.275-2.315 8.872-2.315h35.222c3.855 0 7.065 1.199 9.638 3.606 2.573 2.398 3.855 5.395 3.855 8.992v5.534c0 5.312-2.223 9.804-6.686 13.493-4.621 3.597-8.181 6.124-10.661 7.581zM995.004 1023.908h-15.042c-3.855 0-7.194-0.47-10.025-1.411-2.831-1.033-6.124-2.831-9.896-5.395l-42.157-29.31c-4.917-3.449-11.024-5.515-17.613-5.524h-14.519c-3.763 0-6.852-1.162-9.25-3.477s-3.597-5.266-3.597-8.863c0-3.606 1.199-6.557 3.597-8.872s5.488-3.468 9.25-3.468h90.623c5.571 0 10.495 1.494 14.784 4.501l9.121 6.29c5.488 4.030 8.227 9.306 8.227 15.817v26.349c0 3.772-1.328 6.935-3.984 9.509-2.344 2.382-5.603 3.859-9.206 3.859-0.106 0-0.212-0.001-0.318-0.004h0.016zM668.648 1023.908h-36.374c-3.781 0-6.991-1.282-9.647-3.855-2.382-2.344-3.859-5.603-3.859-9.206 0-0.106 0.001-0.212 0.004-0.318v0.016-157.46c0-3.772 1.291-6.945 3.855-9.509 2.39-2.46 5.729-3.986 9.424-3.986 0.078 0 0.157 0.001 0.235 0.002h36.362c3.772 0 6.935 1.328 9.509 3.984 2.382 2.344 3.859 5.603 3.859 9.206 0 0.106-0.001 0.212-0.004 0.318v-0.016 157.46c0.002 0.090 0.004 0.196 0.004 0.302 0 3.604-1.476 6.862-3.857 9.205l-0.002 0.002c-2.344 2.382-5.603 3.859-9.206 3.859-0.106 0-0.212-0.001-0.318-0.004h0.016zM785.74 889.717h-85.089c-0.090 0.002-0.196 0.004-0.302 0.004-3.604 0-6.862-1.476-9.205-3.857l-0.002-0.002c-2.384-2.413-3.857-5.73-3.857-9.392 0-0.086 0.001-0.172 0.002-0.258v0.013-23.14c0-3.772 1.282-6.945 3.855-9.509 2.322-2.457 5.604-3.987 9.244-3.987 0.093 0 0.186 0.001 0.279 0.003h85.075c3.781 0 6.945 1.328 9.518 3.984 2.382 2.344 3.859 5.603 3.859 9.206 0 0.106-0.001 0.212-0.004 0.318v-0.016 23.14c0 3.763-1.291 6.982-3.855 9.638-2.344 2.383-5.603 3.859-9.206 3.859-0.11 0-0.219-0.001-0.328-0.004h0.016zM760.682 956.554h-60.031c-0.090 0.002-0.196 0.004-0.302 0.004-3.604 0-6.862-1.476-9.205-3.857l-0.002-0.002c-2.384-2.41-3.857-5.725-3.857-9.385 0-0.089 0.001-0.178 0.003-0.266v0.013-23.14c0-3.772 1.282-6.935 3.855-9.509 2.344-2.382 5.603-3.859 9.206-3.859 0.106 0 0.212 0.001 0.318 0.004h60.015c0.090-0.002 0.196-0.004 0.302-0.004 3.604 0 6.862 1.476 9.205 3.857l0.002 0.002c2.656 2.573 3.984 5.737 3.984 9.509v23.14c0 3.772-1.328 6.982-3.984 9.638-2.344 2.382-5.603 3.859-9.206 3.859-0.106 0-0.212-0.001-0.318-0.004h0.016zM785.74 1023.908h-85.089c-0.090 0.002-0.196 0.004-0.302 0.004-3.604 0-6.862-1.476-9.205-3.857l-0.002-0.002c-2.382-2.344-3.859-5.603-3.859-9.206 0-0.106 0.001-0.212 0.004-0.318v0.016-23.269c0-3.772 1.282-6.935 3.855-9.509 2.344-2.382 5.603-3.859 9.206-3.859 0.106 0 0.212 0.001 0.318 0.004h85.073c0.093-0.002 0.202-0.004 0.311-0.004 3.604 0 6.863 1.476 9.205 3.857l0.002 0.002c2.382 2.344 3.859 5.603 3.859 9.206 0 0.106-0.001 0.212-0.004 0.318v-0.016 23.269c0.002 0.090 0.004 0.196 0.004 0.302 0 3.604-1.476 6.862-3.857 9.205l-0.002 0.002c-2.344 2.383-5.603 3.859-9.206 3.859-0.11 0-0.219-0.001-0.328-0.004h0.016zM600.271 889.717h-179.825c-3.772 0-6.982-1.282-9.638-3.855-2.39-2.413-3.866-5.735-3.866-9.402 0-0.083 0.001-0.166 0.002-0.249v0.012-23.14c0-3.772 1.291-6.945 3.864-9.509 2.39-2.46 5.728-3.986 9.424-3.986 0.075 0 0.15 0.001 0.225 0.002h179.814c3.772 0 6.935 1.328 9.509 3.984 2.382 2.344 3.859 5.603 3.859 9.206 0 0.106-0.001 0.212-0.004 0.318v-0.016 23.14c0 3.763-1.291 6.982-3.855 9.638-2.344 2.382-5.603 3.859-9.206 3.859-0.106 0-0.212-0.001-0.318-0.004h0.016zM528.675 1023.908h-36.374c-0.093 0.002-0.202 0.004-0.311 0.004-3.604 0-6.863-1.476-9.205-3.857l-0.002-0.002c-2.382-2.344-3.859-5.603-3.859-9.206 0-0.106 0.001-0.212 0.004-0.318v0.016-102.188c0-3.772 1.291-6.945 3.855-9.509 2.323-2.458 5.605-3.987 9.244-3.987 0.096 0 0.192 0.001 0.288 0.003h36.36c3.772 0 6.935 1.328 9.509 3.984 2.573 2.564 3.855 5.737 3.855 9.509v102.188c0.002 0.090 0.004 0.196 0.004 0.302 0 3.604-1.476 6.862-3.857 9.205l-0.002 0.002c-2.344 2.382-5.603 3.859-9.206 3.859-0.106 0-0.212-0.001-0.318-0.004h0.016zM271.213 1023.908h-36.374c-3.772 0-6.982-1.282-9.638-3.855-2.382-2.344-3.859-5.603-3.859-9.206 0-0.106 0.001-0.212 0.004-0.318v0.016-157.46c0-3.772 1.282-6.945 3.855-9.509 2.39-2.46 5.728-3.986 9.424-3.986 0.075 0 0.15 0.001 0.225 0.002h36.363c3.772 0 6.945 1.328 9.509 3.984 2.382 2.344 3.859 5.603 3.859 9.206 0 0.106-0.001 0.212-0.004 0.318v-0.016 157.46c0.002 0.090 0.004 0.196 0.004 0.302 0 3.604-1.476 6.862-3.857 9.205l-0.002 0.002c-2.344 2.382-5.603 3.859-9.206 3.859-0.106 0-0.212-0.001-0.318-0.004h0.016zM388.314 889.717h-85.098c-0.090 0.002-0.196 0.004-0.302 0.004-3.604 0-6.862-1.476-9.205-3.857l-0.002-0.002c-2.384-2.413-3.857-5.73-3.857-9.392 0-0.086 0.001-0.172 0.002-0.258v0.013-23.14c0-3.772 1.291-6.945 3.855-9.509 2.322-2.457 5.604-3.987 9.244-3.987 0.093 0 0.186 0.001 0.279 0.003h85.084c3.763 0 6.935 1.328 9.499 3.984 2.582 2.564 3.864 5.737 3.864 9.509v23.14c0 3.763-1.291 6.982-3.855 9.638-2.344 2.382-5.603 3.859-9.206 3.859-0.106 0-0.212-0.001-0.318-0.004h0.016zM363.247 956.554h-60.031c-0.090 0.002-0.196 0.004-0.302 0.004-3.604 0-6.862-1.476-9.205-3.857l-0.002-0.002c-2.384-2.41-3.857-5.725-3.857-9.385 0-0.089 0.001-0.178 0.003-0.266v0.013-23.14c0-3.772 1.291-6.935 3.855-9.509 2.344-2.382 5.603-3.859 9.206-3.859 0.106 0 0.212 0.001 0.318 0.004h60.015c0.090-0.002 0.196-0.004 0.302-0.004 3.604 0 6.862 1.476 9.205 3.857l0.002 0.002c2.656 2.573 3.984 5.737 3.984 9.509v23.14c0 3.772-1.328 6.982-3.984 9.638-2.344 2.382-5.603 3.859-9.206 3.859-0.106 0-0.212-0.001-0.318-0.004h0.016zM388.314 1023.908h-85.098c-0.090 0.002-0.196 0.004-0.302 0.004-3.604 0-6.862-1.476-9.205-3.857l-0.002-0.002c-2.382-2.344-3.859-5.603-3.859-9.206 0-0.106 0.001-0.212 0.004-0.318v0.016-23.269c0-3.772 1.291-6.935 3.855-9.509 2.344-2.382 5.603-3.859 9.206-3.859 0.106 0 0.212 0.001 0.318 0.004h85.082c0.087-0.002 0.19-0.003 0.293-0.003 3.603 0 6.862 1.476 9.204 3.857l0.002 0.002c2.388 2.345 3.868 5.607 3.868 9.215 0 0.103-0.001 0.206-0.004 0.309v-0.015 23.269c0.002 0.090 0.004 0.196 0.004 0.302 0 3.604-1.476 6.862-3.857 9.205l-0.002 0.002c-2.344 2.382-5.603 3.859-9.206 3.859-0.106 0-0.212-0.001-0.318-0.004h0.016zM92.163 1023.908h-10.791c-7.203 0-12.82-3.855-16.85-11.565l-59.256-112.213c-3.505-6.686-5.266-13.493-5.266-20.438v-26.608c0-3.772 1.291-6.945 3.855-9.509 2.39-2.46 5.728-3.986 9.424-3.986 0.075 0 0.15 0.001 0.225 0.002h22.105c6.253 0 10.92 2.914 14.009 8.734l51.795 98.978c2.673 4.935 4.244 10.805 4.244 17.041 0 0.108 0 0.216-0.001 0.323v-0.016 45.892c0 3.772-1.328 6.935-3.984 9.509-2.344 2.382-5.603 3.859-9.206 3.859-0.106 0-0.212-0.001-0.318-0.004h0.016zM134.836 1023.908h-10.542c-0.090 0.002-0.196 0.004-0.302 0.004-3.604 0-6.862-1.476-9.205-3.857l-0.002-0.002c-2.382-2.344-3.859-5.603-3.859-9.206 0-0.106 0.001-0.212 0.004-0.318v0.016-45.892c0-6.428 1.365-12.211 4.113-17.348l51.666-98.978c3.090-5.82 7.71-8.734 13.88-8.734h22.116c3.763 0 6.935 1.328 9.499 3.984 2.665 2.564 3.993 5.737 3.993 9.509v26.608c0 6.945-1.752 13.751-5.275 20.438l-59.247 112.213c-4.030 7.71-9.647 11.565-16.841 11.565zM1581.385 921.508h47.7c4.999 0 8.171 2.499 9.499 7.498l13.428 47.986c1.098 4.141 1.642 7.978 1.642 11.501v27.991c0 2.094-0.738 3.855-2.213 5.285-1.302 1.322-3.112 2.142-5.114 2.142-0.060 0-0.12-0.001-0.18-0.002h-6.991c-4.897 0-8.024-2.472-9.352-7.424l-17.283-60.981c-1.144-4.095-3.883-6.142-8.208-6.142h-22.928c-0.039 0.001-0.085 0.001-0.132 0.001-2.036 0-3.879-0.821-5.218-2.15v0c-1.329-1.338-2.15-3.182-2.15-5.218 0-0.046 0-0.092 0.001-0.139v0.007-12.856c-0.001-0.046-0.002-0.1-0.002-0.155 0-2.008 0.823-3.824 2.15-5.129l0.001-0.001c1.326-1.366 3.179-2.214 5.231-2.214 0.042 0 0.083 0 0.124 0.001h-0.006zM1681.147 921.508h47.626c2.094 0 3.855 0.738 5.285 2.213 1.476 1.43 2.213 3.191 2.213 5.285v12.856c0.001 0.035 0.001 0.077 0.001 0.118 0 2.052-0.848 3.905-2.213 5.229l-0.002 0.002c-1.306 1.328-3.122 2.151-5.13 2.151-0.054 0-0.109-0.001-0.163-0.002h-22.91c-4.335 0-7.074 2.047-8.217 6.142l-17.274 60.981c-1.337 4.953-4.455 7.424-9.361 7.424h-6.991c-0.051 0.001-0.111 0.002-0.171 0.002-2.001 0-3.811-0.819-5.113-2.141l-0.001-0.001c-1.328-1.306-2.151-3.122-2.151-5.13 0-0.054 0.001-0.109 0.002-0.163v0.008-27.991c0-3.717 0.526-7.544 1.577-11.501l13.493-47.986c1.337-4.999 4.501-7.498 9.499-7.498zM1609.026 959.708v56.775c0.001 0.046 0.002 0.1 0.002 0.155 0 2.008-0.823 3.824-2.15 5.129l-0.001 0.001c-1.297 1.322-3.102 2.142-5.098 2.142-0.062 0-0.124-0.001-0.186-0.002h-20.207c-0.043 0.001-0.094 0.001-0.144 0.001-2.030 0-3.869-0.818-5.205-2.142l0.001 0.001c-1.328-1.306-2.151-3.122-2.151-5.13 0-0.054 0.001-0.109 0.002-0.163v0.008-56.775c-0.001-0.046-0.002-0.1-0.002-0.155 0-2.008 0.823-3.824 2.15-5.129l0.001-0.001c1.326-1.366 3.179-2.214 5.231-2.214 0.042 0 0.083 0 0.124 0.001h20.21c2.094 0 3.855 0.738 5.275 2.213 1.328 1.306 2.151 3.122 2.151 5.13 0 0.054-0.001 0.109-0.002 0.163v-0.008zM1701.142 1016.483v-56.775c0-2.094 0.71-3.855 2.14-5.285 1.476-1.476 3.265-2.213 5.358-2.213h20.133c2.094 0 3.855 0.738 5.285 2.213 1.476 1.43 2.213 3.191 2.213 5.285v56.775c0 2.094-0.738 3.855-2.213 5.285-1.302 1.322-3.112 2.142-5.114 2.142-0.060 0-0.12-0.001-0.18-0.002h-20.124c-0.042 0.001-0.092 0.001-0.142 0.001-2.033 0-3.876-0.818-5.217-2.142l0.001 0.001c-1.322-1.302-2.142-3.112-2.142-5.114 0-0.060 0.001-0.12 0.002-0.18v0.009z"></path>
<path fill="#000" d="M1496.121 921.508h6.004c2.094 0 3.855 0.738 5.285 2.213 1.476 1.43 2.213 3.191 2.213 5.285v23.998c0 3.468-0.784 6.686-2.361 9.638l-7.138 13.705c-1.854 3.523-4.787 5.285-8.78 5.285h-17.994c-3.625 0-6.262-1.374-7.932-4.141-1.669-2.758-1.669-5.755 0-8.992l21.351-40.488c1.19-2.287 2.527-3.929 4.003-4.934 1.425-0.984 3.189-1.572 5.090-1.572 0.091 0 0.182 0.001 0.272 0.004h-0.013zM1519.98 921.508h5.847c0.079-0.002 0.172-0.004 0.265-0.004 1.902 0 3.667 0.588 5.124 1.592l-0.030-0.020c1.476 1.005 2.813 2.647 4.003 4.934l21.351 40.488c1.66 3.237 1.66 6.235 0 8.992-1.623 2.767-4.242 4.141-7.858 4.141h-17.855c-3.855 0-6.733-1.706-8.632-5.137l-7.36-13.853c-1.442-2.709-2.289-5.923-2.289-9.336 0-0.106 0.001-0.212 0.002-0.318v0.016-23.998c-0.001-0.046-0.002-0.1-0.002-0.155 0-2.008 0.823-3.824 2.15-5.129l0.001-0.001c1.287-1.365 3.107-2.215 5.125-2.215 0.056 0 0.112 0.001 0.167 0.002h-0.008zM1462.495 984.564h96.968c3.625 0 6.262 1.568 7.932 4.713l1.854 3.643c1.19 2.278 1.789 5.211 1.789 8.78v14.784c0 2.094-0.738 3.855-2.213 5.285-1.302 1.322-3.112 2.142-5.114 2.142-0.060 0-0.12-0.001-0.18-0.002h-12.276c-3.329 0-5.856-1.614-7.572-4.851l-1.928-3.643c-0.52-1.16-1.3-2.123-2.268-2.846l-0.019-0.013c-0.914-0.59-2.031-0.941-3.23-0.941-0.119 0-0.238 0.003-0.356 0.010l0.016-0.001h-49.84c-0.101-0.006-0.22-0.010-0.339-0.010-1.199 0-2.316 0.351-3.254 0.955l0.024-0.014c-0.988 0.736-1.767 1.699-2.269 2.814l-0.018 0.045-1.928 3.643c-1.715 3.237-4.242 4.851-7.572 4.851h-12.285c-0.043 0.001-0.094 0.001-0.144 0.001-2.030 0-3.869-0.818-5.205-2.142l0.001 0.001c-1.328-1.306-2.151-3.122-2.151-5.13 0-0.054 0.001-0.109 0.002-0.163v0.008-14.784c0-3.569 0.599-6.502 1.789-8.78l1.928-3.643c1.669-3.145 4.279-4.713 7.858-4.713z"></path>
</svg>
