<svg width="79" height="48" viewBox="0 0 79 48" fill="none" xmlns="http://www.w3.org/2000/svg">
<path fill-rule="evenodd" clip-rule="evenodd" d="M28.3054 1.15687C28.1375 1.34077 28.1265 2.02245 28.1574 10.368L28.1907 19.3806L28.436 20.23C28.8009 21.4936 29.6136 23.0919 30.3527 23.9994C31.2553 25.1076 36.586 30.3326 36.9541 30.4701C37.409 30.6397 41.0881 30.6111 41.4082 30.4353C41.8454 30.1952 47.4857 24.6728 48.0635 23.9192C48.7202 23.0625 49.572 21.3829 49.9075 20.2831L50.1503 19.4868L50.1841 10.4211C50.2154 2.02564 50.2045 1.34077 50.0365 1.15687C49.8736 0.978487 49.6789 0.958313 48.1225 0.958313C46.819 0.958313 46.2658 1.00015 45.8891 1.12735C45.205 1.35829 44.4032 2.09731 44.0888 2.78684L43.8331 3.34737L43.7795 10.8862C43.7262 18.3795 43.7245 18.4285 43.4868 19.009C43.1801 19.7582 42.7792 20.2274 40.9218 22.0109C39.6978 23.1861 39.3449 23.4686 39.0999 23.469C38.8487 23.4693 38.4976 23.1695 37.0791 21.7435C35.2487 19.9034 34.8795 19.372 34.6713 18.2778C34.6045 17.9268 34.5625 14.9644 34.5625 10.6102C34.5625 3.76912 34.5548 3.49422 34.3477 2.94569C34.0643 2.19531 33.314 1.45195 32.5566 1.1712C32.0681 0.990061 31.7212 0.958313 30.2345 0.958313C28.6634 0.958313 28.4685 0.978381 28.3054 1.15687ZM38.0866 1.10495C37.1425 1.4392 36.6042 1.94515 36.1466 2.92849L35.9022 3.45355V10.7291V18.0047L36.2441 18.6928C36.7049 19.6201 38.6545 21.5573 39.1271 21.5573C39.3796 21.5573 39.6733 21.3201 40.7399 20.2549C41.9078 19.0886 42.0625 18.8901 42.2187 18.3573C42.3739 17.8284 42.39 16.9553 42.363 10.5018L42.3327 3.24119L42.0148 2.67259C41.6169 1.96108 40.9653 1.38516 40.2847 1.14339C39.6737 0.926459 38.6418 0.908302 38.0866 1.10495Z" fill="#090C00"/>
<path d="M56.2008 38.7443H60.0139C60.4073 38.7443 60.6561 38.9468 60.7603 39.3519L62.1027 44.3048C62.1875 44.6134 62.23 44.922 62.23 45.2306V46.4399C62.23 46.6096 62.1721 46.7523 62.0564 46.8681C61.9406 46.9838 61.7979 47.0416 61.6282 47.0416H60.8239C60.4189 47.0416 60.1624 46.8411 60.0544 46.4399L58.7236 41.5101C58.6773 41.3365 58.6021 41.2092 58.4979 41.1282C58.3938 41.0433 58.2472 41.0009 58.0582 41.0009H56.2008C56.0311 41.0009 55.8864 40.9431 55.7668 40.8273C55.6511 40.7078 55.5933 40.5631 55.5933 40.3934V39.3519C55.5933 39.1821 55.6511 39.0394 55.7668 38.9237C55.8864 38.8041 56.0311 38.7443 56.2008 38.7443ZM64.7064 47.0416H63.0747C62.905 47.0416 62.7604 46.9838 62.6408 46.8681C62.525 46.7523 62.4672 46.6096 62.4672 46.4399V39.3519C62.4672 39.1821 62.525 39.0394 62.6408 38.9237C62.7604 38.8041 62.905 38.7443 63.0747 38.7443H64.7064C64.8761 38.7443 65.0189 38.8041 65.1346 38.9237C65.2542 39.0394 65.314 39.1821 65.314 39.3519V46.4399C65.314 46.6096 65.2542 46.7523 65.1346 46.8681C65.0189 46.9838 64.8761 47.0416 64.7064 47.0416ZM58.44 41.8399V46.4399C58.44 46.6096 58.3822 46.7523 58.2665 46.8681C58.1507 46.9838 58.008 47.0416 57.8383 47.0416H56.2008C56.0311 47.0416 55.8864 46.9838 55.7668 46.8681C55.6511 46.7523 55.5933 46.6096 55.5933 46.4399V41.8399C55.5933 41.6702 55.6511 41.5275 55.7668 41.4117C55.8864 41.2922 56.0311 41.2324 56.2008 41.2324H57.8383C58.008 41.2324 58.1507 41.2922 58.2665 41.4117C58.3822 41.5275 58.44 41.6702 58.44 41.8399Z" fill="black"/>
<path d="M49.292 38.7443H49.7781C49.9478 38.7443 50.0905 38.8041 50.2062 38.9237C50.3258 39.0394 50.3856 39.1821 50.3856 39.3519V41.296C50.3856 41.5776 50.3219 41.838 50.1947 42.0771L49.616 43.1881C49.4656 43.4735 49.2284 43.6162 48.9043 43.6162H47.4462C47.1531 43.6162 46.939 43.5044 46.804 43.2807C46.669 43.0569 46.669 42.8139 46.804 42.5516L48.534 39.2709C48.6305 39.0857 48.7385 38.9526 48.8581 38.8716C48.9776 38.7868 49.1223 38.7443 49.292 38.7443ZM51.2246 38.7443H51.699C51.8688 38.7443 52.0134 38.7868 52.133 38.8716C52.2526 38.9526 52.3606 39.0857 52.457 39.2709L54.1871 42.5516C54.3221 42.8139 54.3221 43.0569 54.1871 43.2807C54.0559 43.5044 53.8438 43.6162 53.5506 43.6162H52.1041C51.7916 43.6162 51.5583 43.4774 51.404 43.1996L50.808 42.0771C50.6845 41.8457 50.6228 41.5853 50.6228 41.296V39.3519C50.6228 39.1821 50.6807 39.0394 50.7964 38.9237C50.9121 38.8041 51.0549 38.7443 51.2246 38.7443ZM46.5667 43.8535H54.4243C54.7175 43.8535 54.9316 43.9808 55.0666 44.2354L55.217 44.5305C55.3135 44.7156 55.3617 44.9528 55.3617 45.2422V46.4399C55.3617 46.6096 55.3019 46.7523 55.1823 46.8681C55.0666 46.9838 54.9239 47.0416 54.7541 47.0416H53.7589C53.4889 47.0416 53.2844 46.9105 53.1456 46.6482L52.9894 46.3531C52.9354 46.2451 52.8736 46.1679 52.8042 46.1216C52.7348 46.0715 52.6383 46.0464 52.5149 46.0464H48.4762C48.3527 46.0464 48.2563 46.0715 48.1869 46.1216C48.1174 46.1679 48.0557 46.2451 48.0017 46.3531L47.8455 46.6482C47.7066 46.9105 47.5022 47.0416 47.2322 47.0416H46.2369C46.0672 47.0416 45.9226 46.9838 45.803 46.8681C45.6873 46.7523 45.6294 46.6096 45.6294 46.4399V45.2422C45.6294 44.9528 45.6776 44.7156 45.774 44.5305L45.9303 44.2354C46.0653 43.9808 46.2774 43.8535 46.5667 43.8535Z" fill="black"/>
<path d="M39.0565 39.3519V46.4399C39.0565 46.6096 38.9986 46.7523 38.8829 46.8681C38.7672 46.9838 38.6245 47.0416 38.4547 47.0416H36.8173C36.6475 47.0416 36.5029 46.9838 36.3833 46.8681C36.2676 46.7523 36.2097 46.6096 36.2097 46.4399V39.3519C36.2097 39.1821 36.2676 39.0394 36.3833 38.9237C36.5029 38.8041 36.6475 38.7443 36.8173 38.7443H38.4547C38.6245 38.7443 38.7672 38.8041 38.8829 38.9237C38.9986 39.0394 39.0565 39.1821 39.0565 39.3519ZM41.4751 41.0009H39.8955C39.7258 41.0009 39.583 40.9431 39.4673 40.8273C39.3516 40.7078 39.2937 40.5631 39.2937 40.3934V39.3519C39.2937 39.1821 39.3516 39.0394 39.4673 38.9237C39.583 38.8041 39.7258 38.7443 39.8955 38.7443H41.4172C41.7721 38.7443 42.1212 38.7713 42.4645 38.8253C42.8078 38.8755 43.0933 38.9314 43.3209 38.9931C43.5485 39.0548 43.7876 39.1397 44.0384 39.2477C44.2929 39.3519 44.4704 39.4309 44.5707 39.4849C44.6748 39.539 44.8079 39.6122 44.9699 39.7048C45.2554 39.8745 45.3981 40.1195 45.3981 40.4397V41.0472C45.3981 41.2169 45.3383 41.3597 45.2187 41.4754C45.103 41.5911 44.9603 41.649 44.7906 41.649H43.2052C42.9428 41.649 42.7172 41.5545 42.5282 41.3654C42.3006 41.1224 41.9496 41.0009 41.4751 41.0009ZM44.617 43.651C44.4241 43.7628 44.21 43.8188 43.9747 43.8188H39.8723C39.7026 43.8188 39.5637 43.7667 39.4557 43.6625C39.3477 43.5584 39.2937 43.4253 39.2937 43.2633C39.2937 43.1013 39.3477 42.9682 39.4557 42.864C39.5637 42.756 39.7026 42.702 39.8723 42.702H41.4751C42.0229 42.702 42.3739 42.569 42.5282 42.3028C42.6092 42.1601 42.7018 42.0559 42.8059 41.9903C42.9101 41.9209 43.0431 41.8862 43.2052 41.8862H44.7906C44.9641 41.8862 45.1088 41.9402 45.2245 42.0482C45.3402 42.1562 45.3981 42.2912 45.3981 42.4532V42.702C45.3981 42.9412 45.2978 43.1437 45.0972 43.3096C44.8889 43.4716 44.7288 43.5854 44.617 43.651ZM44.7906 47.0416H44.1136C43.94 47.0416 43.7896 47.0204 43.6623 46.978C43.535 46.9317 43.3864 46.8507 43.2167 46.735L41.3189 45.4157C41.072 45.2499 40.8078 45.1669 40.5262 45.1669H39.8723C39.7026 45.1669 39.5637 45.1149 39.4557 45.0107C39.3477 44.9066 39.2937 44.7735 39.2937 44.6115C39.2937 44.4495 39.3477 44.3164 39.4557 44.2122C39.5637 44.1081 39.7026 44.056 39.8723 44.056H43.9516C44.2023 44.056 44.4241 44.1235 44.617 44.2585L45.0278 44.542C45.2747 44.7233 45.3981 44.9606 45.3981 45.2537V46.4399C45.3981 46.6096 45.3383 46.7523 45.2187 46.8681C45.103 46.9838 44.9603 47.0416 44.7906 47.0416Z" fill="black"/>
<path d="M30.0995 47.0416H28.462C28.2923 47.0416 28.1477 46.9838 28.0281 46.8681C27.9124 46.7523 27.8545 46.6096 27.8545 46.4399V39.3519C27.8545 39.1821 27.9124 39.0394 28.0281 38.9237C28.1477 38.8041 28.2923 38.7443 28.462 38.7443H30.0995C30.2692 38.7443 30.412 38.8041 30.5277 38.9237C30.6434 39.0394 30.7013 39.1821 30.7013 39.3519V46.4399C30.7013 46.6096 30.6434 46.7523 30.5277 46.8681C30.412 46.9838 30.2692 47.0416 30.0995 47.0416ZM35.3707 41.0009H31.5403C31.3705 41.0009 31.2278 40.9431 31.1121 40.8273C30.9964 40.7078 30.9385 40.5631 30.9385 40.3934V39.3519C30.9385 39.1821 30.9964 39.0394 31.1121 38.9237C31.2278 38.8041 31.3705 38.7443 31.5403 38.7443H35.3707C35.5404 38.7443 35.6831 38.8041 35.7989 38.9237C35.9146 39.0394 35.9724 39.1821 35.9724 39.3519V40.3934C35.9724 40.5631 35.9146 40.7078 35.7989 40.8273C35.6831 40.9431 35.5404 41.0009 35.3707 41.0009ZM34.2424 44.0097H31.5403C31.3705 44.0097 31.2278 43.9518 31.1121 43.8361C30.9964 43.7165 30.9385 43.5719 30.9385 43.4022V42.3607C30.9385 42.1909 30.9964 42.0482 31.1121 41.9325C31.2278 41.8168 31.3705 41.7589 31.5403 41.7589H34.2424C34.4121 41.7589 34.5548 41.8168 34.6706 41.9325C34.7901 42.0482 34.8499 42.1909 34.8499 42.3607V43.4022C34.8499 43.5719 34.7901 43.7165 34.6706 43.8361C34.5548 43.9518 34.4121 44.0097 34.2424 44.0097ZM35.3707 47.0416H31.5403C31.3705 47.0416 31.2278 46.9838 31.1121 46.8681C30.9964 46.7523 30.9385 46.6096 30.9385 46.4399V45.3926C30.9385 45.2229 30.9964 45.0801 31.1121 44.9644C31.2278 44.8487 31.3705 44.7908 31.5403 44.7908H35.3707C35.5404 44.7908 35.6831 44.8487 35.7989 44.9644C35.9146 45.0801 35.9724 45.2229 35.9724 45.3926V46.4399C35.9724 46.6096 35.9146 46.7523 35.7989 46.8681C35.6831 46.9838 35.5404 47.0416 35.3707 47.0416Z" fill="black"/>
<path d="M27.0212 41.0009H18.9264C18.7567 41.0009 18.612 40.9431 18.4924 40.8273C18.3767 40.7078 18.3188 40.5631 18.3188 40.3934V39.3519C18.3188 39.1821 18.3767 39.0394 18.4924 38.9237C18.612 38.8041 18.7567 38.7443 18.9264 38.7443H27.0212C27.1909 38.7443 27.3336 38.8041 27.4494 38.9237C27.5651 39.0394 27.6229 39.1821 27.6229 39.3519V40.3934C27.6229 40.5631 27.5651 40.7078 27.4494 40.8273C27.3336 40.9431 27.1909 41.0009 27.0212 41.0009ZM23.7983 47.0416H22.1608C21.9911 47.0416 21.8484 46.9838 21.7327 46.8681C21.6169 46.7523 21.5591 46.6096 21.5591 46.4399V41.8399C21.5591 41.6702 21.6169 41.5275 21.7327 41.4117C21.8484 41.2922 21.9911 41.2324 22.1608 41.2324H23.7983C23.968 41.2324 24.1108 41.2922 24.2265 41.4117C24.3422 41.5275 24.4001 41.6702 24.4001 41.8399V46.4399C24.4001 46.6096 24.3422 46.7523 24.2265 46.8681C24.1108 46.9838 23.968 47.0416 23.7983 47.0416Z" fill="black"/>
<path d="M12.2086 47.0416H10.5712C10.4014 47.0416 10.2568 46.9838 10.1372 46.8681C10.0215 46.7523 9.96362 46.6096 9.96362 46.4399V39.3519C9.96362 39.1821 10.0215 39.0394 10.1372 38.9237C10.2568 38.8041 10.4014 38.7443 10.5712 38.7443H12.2086C12.3784 38.7443 12.5211 38.8041 12.6368 38.9237C12.7525 39.0394 12.8104 39.1821 12.8104 39.3519V46.4399C12.8104 46.6096 12.7525 46.7523 12.6368 46.8681C12.5211 46.9838 12.3784 47.0416 12.2086 47.0416ZM17.4798 41.0009H13.6494C13.4797 41.0009 13.3369 40.9431 13.2212 40.8273C13.1055 40.7078 13.0476 40.5631 13.0476 40.3934V39.3519C13.0476 39.1821 13.1055 39.0394 13.2212 38.9237C13.3369 38.8041 13.4797 38.7443 13.6494 38.7443H17.4798C17.6495 38.7443 17.7923 38.8041 17.908 38.9237C18.0237 39.0394 18.0816 39.1821 18.0816 39.3519V40.3934C18.0816 40.5631 18.0237 40.7078 17.908 40.8273C17.7923 40.9431 17.6495 41.0009 17.4798 41.0009ZM16.3515 44.0097H13.6494C13.4797 44.0097 13.3369 43.9518 13.2212 43.8361C13.1055 43.7165 13.0476 43.5719 13.0476 43.4022V42.3607C13.0476 42.1909 13.1055 42.0482 13.2212 41.9325C13.3369 41.8168 13.4797 41.7589 13.6494 41.7589H16.3515C16.5212 41.7589 16.664 41.8168 16.7797 41.9325C16.8993 42.0482 16.9591 42.1909 16.9591 42.3607V43.4022C16.9591 43.5719 16.8993 43.7165 16.7797 43.8361C16.664 43.9518 16.5212 44.0097 16.3515 44.0097ZM17.4798 47.0416H13.6494C13.4797 47.0416 13.3369 46.9838 13.2212 46.8681C13.1055 46.7523 13.0476 46.6096 13.0476 46.4399V45.3926C13.0476 45.2229 13.1055 45.0801 13.2212 44.9644C13.3369 44.8487 13.4797 44.7908 13.6494 44.7908H17.4798C17.6495 44.7908 17.7923 44.8487 17.908 44.9644C18.0237 45.0801 18.0816 45.2229 18.0816 45.3926V46.4399C18.0816 46.6096 18.0237 46.7523 17.908 46.8681C17.7923 46.9838 17.6495 47.0416 17.4798 47.0416Z" fill="black"/>
<path d="M4.14866 47.0418H3.66262C3.3386 47.0418 3.08594 46.8682 2.90464 46.521L0.237231 41.4697C0.0790771 41.1688 0 40.8622 0 40.5497V39.352C0 39.1823 0.0578613 39.0395 0.173584 38.9238C0.293164 38.8042 0.437817 38.7444 0.607544 38.7444H1.60276C1.88435 38.7444 2.09458 38.8756 2.23345 39.1379L4.56526 43.5932C4.69255 43.8324 4.7562 44.0928 4.7562 44.3744V46.44C4.7562 46.6097 4.69641 46.7525 4.57683 46.8682C4.46111 46.9839 4.31838 47.0418 4.14866 47.0418ZM6.06965 47.0418H5.59519C5.42546 47.0418 5.28274 46.9839 5.16702 46.8682C5.05129 46.7525 4.99343 46.6097 4.99343 46.44V44.3744C4.99343 44.085 5.05515 43.8247 5.17859 43.5932L7.50461 39.1379C7.64348 38.8756 7.85178 38.7444 8.12952 38.7444H9.12473C9.29446 38.7444 9.43718 38.8042 9.55291 38.9238C9.67249 39.0395 9.73228 39.1823 9.73228 39.352V40.5497C9.73228 40.8622 9.6532 41.1688 9.49504 41.4697L6.82764 46.521C6.64634 46.8682 6.39368 47.0418 6.06965 47.0418Z" fill="black"/>
<path d="M71.1869 42.4322H73.3342C73.5592 42.4322 73.7017 42.5447 73.7617 42.7697L74.366 44.9299C74.4153 45.1163 74.44 45.2888 74.44 45.4474V46.7075C74.44 46.8018 74.4068 46.8811 74.3403 46.9454C74.276 47.0097 74.1968 47.0418 74.1025 47.0418H73.7874C73.5667 47.0418 73.4263 46.9304 73.3663 46.7075L72.5884 43.9623C72.537 43.778 72.4138 43.6859 72.2187 43.6859H71.1869C71.0926 43.6859 71.0122 43.6537 70.9458 43.5894C70.8815 43.523 70.8494 43.4426 70.8494 43.3483V42.7697C70.8494 42.6754 70.8815 42.5961 70.9458 42.5318C71.0122 42.4654 71.0926 42.4322 71.1869 42.4322ZM75.6776 42.4322H77.8217C77.9159 42.4322 77.9952 42.4654 78.0595 42.5318C78.126 42.5961 78.1592 42.6754 78.1592 42.7697V43.3483C78.1592 43.4426 78.126 43.523 78.0595 43.5894C77.9952 43.6537 77.9159 43.6859 77.8217 43.6859H76.7898C76.5948 43.6859 76.4716 43.778 76.4201 43.9623L75.6422 46.7075C75.5822 46.9304 75.4418 47.0418 75.2211 47.0418H74.9061C74.8118 47.0418 74.7325 47.0097 74.6682 46.9454C74.6039 46.8811 74.5718 46.8018 74.5718 46.7075V45.4474C74.5718 45.2803 74.5954 45.1077 74.6425 44.9299L75.25 42.7697C75.31 42.5447 75.4526 42.4322 75.6776 42.4322ZM72.4309 44.152V46.7075C72.4309 46.8018 72.3988 46.8811 72.3345 46.9454C72.2702 47.0097 72.1909 47.0418 72.0966 47.0418H71.1869C71.0926 47.0418 71.0122 47.0097 70.9458 46.9454C70.8815 46.8811 70.8494 46.8018 70.8494 46.7075V44.152C70.8494 44.0577 70.8815 43.9784 70.9458 43.9141C71.0122 43.8476 71.0926 43.8144 71.1869 43.8144H72.0966C72.1909 43.8144 72.2702 43.8476 72.3345 43.9141C72.3988 43.9784 72.4309 44.0577 72.4309 44.152ZM76.5776 46.7075V44.152C76.5776 44.0577 76.6098 43.9784 76.6741 43.9141C76.7405 43.8476 76.8209 43.8144 76.9152 43.8144H77.8217C77.9159 43.8144 77.9952 43.8476 78.0595 43.9141C78.126 43.9784 78.1592 44.0577 78.1592 44.152V46.7075C78.1592 46.8018 78.126 46.8811 78.0595 46.9454C77.9952 47.0097 77.9159 47.0418 77.8217 47.0418H76.9152C76.8209 47.0418 76.7405 47.0097 76.6741 46.9454C76.6098 46.8811 76.5776 46.8018 76.5776 46.7075Z" fill="black"/>
<path d="M67.3488 42.4321H67.6188C67.7131 42.4321 67.7924 42.4653 67.8566 42.5318C67.9231 42.5961 67.9563 42.6754 67.9563 42.7697V43.8497C67.9563 44.0062 67.9209 44.1508 67.8502 44.2837L67.5288 44.9009C67.4452 45.0595 67.3134 45.1388 67.1334 45.1388H66.3233C66.1605 45.1388 66.0415 45.0766 65.9665 44.9523C65.8915 44.828 65.8915 44.693 65.9665 44.5473L66.9277 42.7247C66.9812 42.6218 67.0412 42.5479 67.1077 42.5028C67.1741 42.4557 67.2545 42.4321 67.3488 42.4321ZM68.4224 42.4321H68.686C68.7803 42.4321 68.8606 42.4557 68.9271 42.5028C68.9935 42.5479 69.0535 42.6218 69.1071 42.7247L70.0682 44.5473C70.1432 44.693 70.1432 44.828 70.0682 44.9523C69.9954 45.0766 69.8775 45.1388 69.7146 45.1388H68.911C68.7374 45.1388 68.6078 45.0616 68.5221 44.9073L68.191 44.2837C68.1224 44.1551 68.0881 44.0105 68.0881 43.8497V42.7697C68.0881 42.6754 68.1202 42.5961 68.1845 42.5318C68.2488 42.4653 68.3281 42.4321 68.4224 42.4321ZM65.8347 45.2705H70.2C70.3629 45.2705 70.4818 45.3413 70.5568 45.4827L70.6404 45.6466C70.694 45.7495 70.7208 45.8813 70.7208 46.042V46.7074C70.7208 46.8017 70.6876 46.881 70.6211 46.9453C70.5568 47.0096 70.4776 47.0417 70.3833 47.0417H69.8304C69.6804 47.0417 69.5668 46.9689 69.4896 46.8232L69.4028 46.6592C69.3728 46.5992 69.3385 46.5564 69.3 46.5306C69.2614 46.5028 69.2078 46.4889 69.1392 46.4889H66.8955C66.8269 46.4889 66.7734 46.5028 66.7348 46.5306C66.6962 46.5564 66.6619 46.5992 66.6319 46.6592L66.5451 46.8232C66.468 46.9689 66.3544 47.0417 66.2044 47.0417H65.6515C65.5572 47.0417 65.4768 47.0096 65.4104 46.9453C65.3461 46.881 65.314 46.8017 65.314 46.7074V46.042C65.314 45.8813 65.3408 45.7495 65.3943 45.6466L65.4811 45.4827C65.5561 45.3413 65.674 45.2705 65.8347 45.2705Z" fill="black"/>
</svg>
