<svg width="111" height="111" viewBox="0 0 111 111" fill="none" xmlns="http://www.w3.org/2000/svg">
<g clip-path="url(#clip0_8590_45535)">
<path fill-rule="evenodd" clip-rule="evenodd" d="M95 102C99.4183 102 103 98.4183 103 94C103 89.5817 99.4183 86 95 86C90.5817 86 87 89.5817 87 94C87 98.4183 90.5817 102 95 102ZM95 105C101.075 105 106 100.075 106 94C106 87.9249 101.075 83 95 83C88.9249 83 84 87.9249 84 94C84 100.075 88.9249 105 95 105Z" fill="#C9C6C5"/>
<path fill-rule="evenodd" clip-rule="evenodd" d="M86 34C88.7614 34 91 31.7614 91 29C91 26.2386 88.7614 24 86 24C83.2386 24 81 26.2386 81 29C81 31.7614 83.2386 34 86 34ZM86 37C90.4183 37 94 33.4183 94 29C94 24.5817 90.4183 21 86 21C81.5817 21 78 24.5817 78 29C78 33.4183 81.5817 37 86 37Z" fill="#C9C6C5"/>
<path fill-rule="evenodd" clip-rule="evenodd" d="M64 60C65.1046 60 66 59.1046 66 58C66 56.8954 65.1046 56 64 56C62.8954 56 62 56.8954 62 58C62 59.1046 62.8954 60 64 60ZM64 63C66.7614 63 69 60.7614 69 58C69 55.2386 66.7614 53 64 53C61.2386 53 59 55.2386 59 58C59 60.7614 61.2386 63 64 63Z" fill="#C9C6C5"/>
<path fill-rule="evenodd" clip-rule="evenodd" d="M46 58C47.1046 58 48 57.1046 48 56C48 54.8954 47.1046 54 46 54C44.8954 54 44 54.8954 44 56C44 57.1046 44.8954 58 46 58ZM46 61C48.7614 61 51 58.7614 51 56C51 53.2386 48.7614 51 46 51C43.2386 51 41 53.2386 41 56C41 58.7614 43.2386 61 46 61Z" fill="#C9C6C5"/>
<path fill-rule="evenodd" clip-rule="evenodd" d="M22 26C28.0751 26 33 21.0751 33 15C33 8.92487 28.0751 4 22 4C15.9249 4 11 8.92487 11 15C11 21.0751 15.9249 26 22 26ZM22 29C29.732 29 36 22.732 36 15C36 7.26801 29.732 1 22 1C14.268 1 8 7.26801 8 15C8 22.732 14.268 29 22 29Z" fill="#C9C6C5"/>
<path fill-rule="evenodd" clip-rule="evenodd" d="M58.8813 13.1396L11.1616 60.8594C6.08478 65.9362 6.08478 74.1673 11.1616 79.2441L33.7918 101.874C38.8686 106.951 47.0997 106.951 52.1765 101.874L99.8963 54.1546C104.973 49.0778 104.973 40.8466 99.8963 35.7698L77.2661 13.1396C72.1893 8.06281 63.9581 8.06282 58.8813 13.1396ZM9.04027 58.738C2.79188 64.9864 2.79188 75.1171 9.04027 81.3655L31.6704 103.996C37.9188 110.244 48.0495 110.244 54.2979 103.996L102.018 56.2759C108.266 50.0275 108.266 39.8969 102.018 33.6485L79.3874 11.0183C73.139 4.76992 63.0084 4.76992 56.76 11.0183L9.04027 58.738Z" fill="#C9C6C5"/>
<path fill-rule="evenodd" clip-rule="evenodd" d="M105.06 10.0604C105.646 10.6462 105.646 11.596 105.06 12.1818L89.1818 28.0604C88.596 28.6462 87.6462 28.6462 87.0604 28.0604C86.4746 27.4746 86.4746 26.5249 87.0604 25.9391L102.939 10.0604C103.525 9.47465 104.475 9.47465 105.06 10.0604Z" fill="#C9C6C5"/>
<path fill-rule="evenodd" clip-rule="evenodd" d="M52.7713 43.5176C53.5901 43.3917 54.356 43.9533 54.482 44.7721L58.482 70.7721C58.608 71.5909 58.0463 72.3568 57.2275 72.4828C56.4087 72.6087 55.6428 72.0471 55.5169 71.2283L51.5169 45.2283C51.3909 44.4095 51.9526 43.6436 52.7713 43.5176Z" fill="#C9C6C5"/>
<path fill-rule="evenodd" clip-rule="evenodd" d="M26.2485 64.834L48.1113 86.6967L84.6366 50.1714L62.7738 28.3087L26.2485 64.834ZM22.713 64.1269C22.3224 64.5174 22.3224 65.1506 22.713 65.5411L47.4042 90.2323C47.7947 90.6228 48.4278 90.6228 48.8184 90.2323L88.1721 50.8785C88.5626 50.488 88.5626 49.8548 88.1721 49.4643L63.4809 24.7731C63.0904 24.3826 62.4572 24.3826 62.0667 24.7731L22.713 64.1269Z" fill="#C9C6C5"/>
</g>
<defs>
<clipPath id="clip0_8590_45535">
<rect width="111" height="111" fill="white"/>
</clipPath>
</defs>
</svg>
