<svg width="111" height="111" viewBox="0 0 111 111" fill="none" xmlns="http://www.w3.org/2000/svg">
<g clip-path="url(#clip0_4869_842)">
<path d="M62.0667 24.7751L22.713 64.1288C22.3224 64.5194 22.3224 65.1525 22.713 65.543L47.4041 90.2342C47.7947 90.6247 48.4278 90.6247 48.8184 90.2342L88.1721 50.8805C88.5626 50.49 88.5626 49.8568 88.1721 49.4663L63.4809 24.7751C63.0904 24.3846 62.4572 24.3846 62.0667 24.7751Z" stroke="#C9C6C5" stroke-width="3"/>
<path d="M95 103.5C100.247 103.5 104.5 99.2467 104.5 94C104.5 88.7533 100.247 84.5 95 84.5C89.7533 84.5 85.5 88.7533 85.5 94C85.5 99.2467 89.7533 103.5 95 103.5Z" stroke="#C9C6C5" stroke-width="3"/>
<path d="M86 35.5C89.5899 35.5 92.5 32.5899 92.5 29C92.5 25.4101 89.5899 22.5 86 22.5C82.4101 22.5 79.5 25.4101 79.5 29C79.5 32.5899 82.4101 35.5 86 35.5Z" stroke="#C9C6C5" stroke-width="3"/>
<path d="M64 61.5C65.933 61.5 67.5 59.933 67.5 58C67.5 56.067 65.933 54.5 64 54.5C62.067 54.5 60.5 56.067 60.5 58C60.5 59.933 62.067 61.5 64 61.5Z" stroke="#C9C6C5" stroke-width="3"/>
<path d="M46 59.5C47.933 59.5 49.5 57.933 49.5 56C49.5 54.067 47.933 52.5 46 52.5C44.067 52.5 42.5 54.067 42.5 56C42.5 57.933 44.067 59.5 46 59.5Z" stroke="#C9C6C5" stroke-width="3"/>
<path d="M22 27.5C28.9036 27.5 34.5 21.9036 34.5 15C34.5 8.09644 28.9036 2.5 22 2.5C15.0964 2.5 9.5 8.09644 9.5 15C9.5 21.9036 15.0964 27.5 22 27.5Z" stroke="#C9C6C5" stroke-width="3"/>
<path d="M57.8204 12.0819L10.1007 59.8016C4.4381 65.4642 4.4381 74.6451 10.1007 80.3077L32.7309 102.938C38.3935 108.601 47.5744 108.601 53.237 102.938L100.957 55.2182C106.619 49.5556 106.619 40.3747 100.957 34.7121L78.3265 12.0819C72.6639 6.4193 63.483 6.4193 57.8204 12.0819Z" stroke="#C9C6C5" stroke-width="3"/>
<path d="M104 11.125L88.1211 27.0037" stroke="#C9C6C5" stroke-width="3" stroke-linecap="round"/>
<path d="M53 45L57 71" stroke="#C9C6C5" stroke-width="3" stroke-linecap="round"/>
</g>
<defs>
<clipPath id="clip0_4869_842">
<rect width="111" height="111" fill="white"/>
</clipPath>
</defs>
</svg>
