<svg width="24" height="24" viewBox="0 0 24 24" fill="none" xmlns="http://www.w3.org/2000/svg">
<g clip-path="url(#clip0_8590_45475)">
<path fill-rule="evenodd" clip-rule="evenodd" d="M9.88459 8.63507L9.40723 8.1748V8.77703V12.6902V14.3673V14.5875H9.6778H11.7205H11.9911H11.997H12.2676H14.3103H14.5809V14.3673V12.6902V8.77703V8.1748L14.1035 8.63507C13.9302 8.80213 13.7358 9.10894 13.5546 9.44954C13.3692 9.79813 13.1847 10.2076 13.037 10.5992C12.8902 10.9884 12.7757 11.3707 12.7367 11.6619C12.7178 11.8038 12.7134 11.9457 12.747 12.0609C12.764 12.1191 12.796 12.1896 12.8623 12.2484C12.9366 12.3143 13.0383 12.3513 13.1507 12.3513C13.2736 12.3513 13.3373 12.3936 13.3833 12.4551C13.4379 12.5283 13.4599 12.6256 13.4599 12.6902C13.4599 12.7549 13.4379 12.8522 13.3833 12.9253C13.3373 12.9869 13.2736 13.0291 13.1507 13.0291C12.8372 13.0291 12.5401 13.152 12.3159 13.2776C12.1962 13.3447 12.0869 13.4185 11.994 13.4889C11.9012 13.4185 11.7919 13.3447 11.6722 13.2776C11.448 13.152 11.1509 13.0291 10.8374 13.0291C10.7145 13.0291 10.6508 12.9869 10.6048 12.9253C10.5502 12.8522 10.5282 12.7549 10.5282 12.6902C10.5282 12.6256 10.5502 12.5283 10.6048 12.4551C10.6508 12.3936 10.7145 12.3513 10.8374 12.3513C10.9498 12.3513 11.0515 12.3143 11.1258 12.2484C11.1921 12.1896 11.2241 12.1191 11.2411 12.0609C11.2747 11.9457 11.2703 11.8038 11.2514 11.6619C11.2124 11.3707 11.0979 10.9884 10.9511 10.5992C10.8034 10.2076 10.6189 9.79813 10.4335 9.44954C10.2523 9.10894 10.0579 8.80213 9.88459 8.63507ZM12.2676 14.1472V13.8874C12.3557 13.8125 12.4807 13.7199 12.6229 13.6402C12.8143 13.5329 13.0004 13.4694 13.1507 13.4694C13.4917 13.4694 13.7178 13.3253 13.8458 13.1539C13.9048 13.0749 13.9434 12.9904 13.9674 12.9104H14.0397V14.1472H12.2676ZM11.7205 13.8874C11.6324 13.8125 11.5074 13.7199 11.3652 13.6402C11.1738 13.5329 10.9877 13.4694 10.8374 13.4694C10.4964 13.4694 10.2703 13.3253 10.1423 13.1539C10.0833 13.0749 10.0447 12.9904 10.0207 12.9104H9.94838V14.1472H11.7205V13.8874ZM9.94838 12.4701V9.64623C10.1215 9.97428 10.2947 10.3595 10.4338 10.7283C10.5769 11.1078 10.6799 11.4592 10.7134 11.7096C10.7259 11.803 10.727 11.8712 10.7223 11.9168C10.4448 11.9452 10.2553 12.0752 10.1423 12.2265C10.0833 12.3056 10.0447 12.3901 10.0207 12.4701H9.94838ZM14.0397 12.4701V9.64623C13.8666 9.97428 13.6934 10.3595 13.5543 10.7283C13.4112 11.1078 13.3082 11.4592 13.2747 11.7096C13.2622 11.803 13.2611 11.8712 13.2658 11.9168C13.5433 11.9452 13.7328 12.0752 13.8458 12.2265C13.9048 12.3056 13.9434 12.3901 13.9674 12.4701H14.0397Z" fill="#090C00"/>
<path fill-rule="evenodd" clip-rule="evenodd" d="M12.0782 8.00624C12.0576 8.00216 12.0361 8 12.014 8C11.8646 8 11.7434 8.09856 11.7434 8.22014V12.0376C11.3394 12.3582 10.8966 12.9036 10.7601 13.5938C10.6111 14.3469 10.8318 15.2491 11.8073 16.1886C11.8758 16.2546 11.9817 16.2796 12.0782 16.2604C12.1748 16.2796 12.2807 16.2546 12.3492 16.1886C13.3247 15.2491 13.5454 14.3469 13.3964 13.5938C13.2599 12.9036 12.817 12.3582 12.4131 12.0376V8.22014C12.4131 8.09856 12.2919 8 12.1425 8C12.1203 8 12.0988 8.00216 12.0782 8.00624ZM12.0782 12.3878C11.7567 12.6565 11.4049 13.1045 11.2943 13.6637C11.1793 14.2455 11.3209 14.9682 12.0782 15.7615C12.8356 14.9682 12.9772 14.2455 12.8621 13.6637C12.7515 13.1045 12.3997 12.6565 12.0782 12.3878Z" fill="#090C00"/>
<path fill-rule="evenodd" clip-rule="evenodd" d="M22.5999 6.64704L17.1788 9.35759L16.821 8.64205L22.5316 5.78677C22.9305 5.5873 23.3999 5.8774 23.3999 6.32343V17.6762C23.3999 18.1222 22.9305 18.4123 22.5316 18.2129L16.821 15.3576L17.1788 14.6421L22.5999 17.3526V6.64704Z" fill="#090C00"/>
<path fill-rule="evenodd" clip-rule="evenodd" d="M6.64728 1.39983L9.35784 6.82094L8.6423 7.17871L5.78702 1.46815C5.58755 1.06921 5.87764 0.599825 6.32367 0.599825L17.6765 0.599826C18.1225 0.599826 18.4126 1.06921 18.2131 1.46815L15.3578 7.17871L14.6423 6.82094L17.3529 1.39983L6.64728 1.39983Z" fill="#090C00"/>
<path fill-rule="evenodd" clip-rule="evenodd" d="M6.64728 22.6002L9.35784 17.1791L8.6423 16.8213L5.78702 22.5318C5.58755 22.9308 5.87764 23.4002 6.32367 23.4002L17.6765 23.4002C18.1225 23.4002 18.4126 22.9308 18.2131 22.5318L15.3578 16.8213L14.6423 17.1791L17.3529 22.6002L6.64728 22.6002Z" fill="#090C00"/>
<path fill-rule="evenodd" clip-rule="evenodd" d="M1.40007 6.64704L6.82118 9.35759L7.17896 8.64205L1.4684 5.78677C1.06946 5.5873 0.60007 5.8774 0.60007 6.32343V17.6762C0.60007 18.1222 1.06946 18.4123 1.4684 18.2129L7.17896 15.3576L6.82118 14.6421L1.40007 17.3526V6.64704Z" fill="#090C00"/>
<path d="M17.3931 12.1834C17.2382 12.1119 17.2381 11.8918 17.3929 11.8202L20.7499 10.2683L20.7499 13.7324L17.3931 12.1834Z" fill="#090C00"/>
<path d="M12.1817 6.60646C12.1102 6.76133 11.8901 6.76141 11.8185 6.60658L10.2666 3.24963L13.7307 3.24963L12.1817 6.60646Z" fill="#090C00"/>
<path d="M12.1829 17.3926C12.1114 17.2377 11.8913 17.2376 11.8198 17.3924L10.2678 20.7494L13.7319 20.7494L12.1829 17.3926Z" fill="#090C00"/>
<path d="M6.64723 12.1814C6.8021 12.11 6.80218 11.8899 6.64735 11.8183L3.2904 10.2664L3.2904 13.7305L6.64723 12.1814Z" fill="#090C00"/>
<path fill-rule="evenodd" clip-rule="evenodd" d="M12 17.2C14.8719 17.2 17.2 14.8719 17.2 12C17.2 9.12812 14.8719 6.8 12 6.8C9.12812 6.8 6.8 9.12812 6.8 12C6.8 14.8719 9.12812 17.2 12 17.2ZM12 18C15.3137 18 18 15.3137 18 12C18 8.68629 15.3137 6 12 6C8.68629 6 6 8.68629 6 12C6 15.3137 8.68629 18 12 18Z" fill="#090C00"/>
</g>
<defs>
<clipPath id="clip0_8590_45475">
<rect width="24" height="24" fill="white"/>
</clipPath>
</defs>
</svg>
