<svg width="24" height="24" viewBox="0 0 24 24" fill="none" xmlns="http://www.w3.org/2000/svg">
<path fill-rule="evenodd" clip-rule="evenodd" d="M15.0001 4.57617L15.2122 4.78826C16.0081 5.58397 16.6651 6.89561 16.7983 8.02786C16.8649 8.59419 16.8056 9.16141 16.5155 9.59653C16.2133 10.0497 15.7015 10.3004 15.0001 10.3004C14.1765 10.3004 13.6034 10.0376 13.2958 9.54122C13.0015 9.06615 13.0031 8.45654 13.1268 7.87547C13.3749 6.70968 14.1673 5.4089 14.7879 4.78828L15.0001 4.57617ZM15.0015 5.44467C14.4925 6.05405 13.9079 7.08729 13.7136 8.00035C13.6023 8.52345 13.6323 8.9451 13.8059 9.22523C13.9662 9.48402 14.3005 9.70041 15.0001 9.70041C15.5488 9.70041 15.8496 9.51365 16.0163 9.26367C16.195 8.99567 16.2608 8.59414 16.2024 8.09797C16.0976 7.20739 15.6095 6.1594 15.0015 5.44467Z" fill="#090C00"/>
<path fill-rule="evenodd" clip-rule="evenodd" d="M15.1025 1.03418L15.2685 1.36598C15.5122 1.85302 15.8638 2.4512 16.225 2.99785C16.589 3.54878 16.9498 4.02769 17.2104 4.28794C18.0228 5.09931 18.5499 6.42808 18.5501 7.68765C18.5504 8.95914 18.0079 10.2203 16.6118 10.7788C16.458 10.8403 16.2834 10.7655 16.2219 10.6116C16.1603 10.4578 16.2351 10.2832 16.389 10.2217C17.4929 9.78009 17.9504 8.79129 17.9501 7.68778C17.9499 6.57235 17.476 5.40112 16.7864 4.71249C16.481 4.40742 16.0929 3.88634 15.7244 3.3286C15.4302 2.88338 15.1404 2.4023 14.905 1.96656C12.6631 3.85678 11.7933 5.80844 11.737 7.32386C11.678 8.91009 12.4933 9.99304 13.559 10.206C13.7215 10.2385 13.8269 10.3965 13.7944 10.559C13.7619 10.7215 13.6039 10.8269 13.4414 10.7944C12.0054 10.5074 11.0708 9.09034 11.1374 7.30156C11.2042 5.50411 12.2649 3.30438 14.8128 1.26596L15.1025 1.03418Z" fill="#090C00"/>
<path fill-rule="evenodd" clip-rule="evenodd" d="M7.80322 11.8002C7.80617 11.9466 7.81129 12.1043 7.81895 12.2694L8.51656 11.8002H7.80322ZM9.46674 11.8842L8.53464 12.5111H10.1194L9.46674 11.8842ZM11.7186 12.5111L12.4757 11.9042L13.0694 12.5111H11.7186ZM14.5055 12.5111H15.5486L15.0081 11.9436L14.5055 12.5111ZM15.7001 11.8002L16.2489 12.3764L16.799 11.8002H15.7001ZM17.5002 11.9346L16.9498 12.5111H18.0509L17.5002 11.9346ZM19.4521 12.5111H20.4952L19.9922 11.9436L19.4521 12.5111ZM20.6668 11.8002L21.1511 12.3466L21.5918 11.8002H20.6668ZM21.8062 12.4901L21.7893 12.5111H21.8032C21.8042 12.5041 21.8052 12.4971 21.8062 12.4901ZM21.7024 13.1111C21.4341 14.5935 21.1505 15.4837 20.2505 16.8338C20.1586 16.9716 20.1958 17.1579 20.3337 17.2498C20.4715 17.3417 20.6578 17.3045 20.7497 17.1666C21.7809 15.6198 22.0568 14.6104 22.3553 12.8616C22.4301 12.4233 22.4704 12.0116 22.5036 11.6722C22.5084 11.6233 22.5131 11.5758 22.5176 11.53L22.5506 11.2002H7.60008C7.37981 11.2002 7.19886 11.3791 7.20045 11.6023C7.20293 11.9509 7.21814 12.3798 7.25195 12.8334C7.35567 14.2255 7.72274 15.1163 8.23175 16.1344C8.30585 16.2826 8.48605 16.3426 8.63424 16.2685C8.78244 16.1944 8.84251 16.0142 8.76841 15.866C8.31981 14.9688 8.00435 14.2139 7.88028 13.1111H21.7024ZM19.3004 11.8002L18.752 12.3764L18.2015 11.8002H19.3004ZM14.3337 11.8002L13.8013 12.4013L13.2133 11.8002H14.3337ZM11.6462 11.8002L10.8826 12.4123L10.2454 11.8002H11.6462Z" fill="#090C00"/>
<path fill-rule="evenodd" clip-rule="evenodd" d="M14.8086 15.1288C15.1 15.0759 15.4237 15.3008 15.3932 15.6559C15.3122 16.5965 14.5313 17.2619 13.7323 17.68C13.1364 17.9919 12.4577 18.2065 11.8519 18.3159C12.3037 18.6503 12.9077 18.8606 13.5786 18.91C14.488 18.977 15.4723 18.7428 16.2674 18.1747C18.094 16.8696 19.7299 16.6338 20.8574 16.798C21.4117 16.8787 21.8616 17.0594 22.1435 17.276C22.2741 17.3765 22.4248 17.5275 22.4764 17.7293C22.5052 17.8422 22.5032 17.9766 22.4383 18.1058C22.3752 18.2313 22.2737 18.3105 22.1787 18.358C20.7389 19.0776 19.5407 19.9149 18.437 20.6861C18.0295 20.9708 17.635 21.2466 17.2459 21.504C15.8351 22.4376 14.4675 23.1496 12.9341 22.894C8.46562 22.1493 6.13174 22.2774 4.80398 22.4587C4.48571 22.5021 4.2226 22.5489 3.99356 22.5897C3.98182 22.5918 3.97017 22.5939 3.95861 22.5959C3.72771 22.637 3.51438 22.6746 3.32534 22.6881C3.13083 22.7021 2.93473 22.6932 2.73824 22.6252C2.53951 22.5565 2.37247 22.4385 2.21705 22.283C1.97825 22.0442 1.77977 21.7073 1.61351 21.3468C1.4446 20.9805 1.2963 20.5617 1.16861 20.1362C0.913225 19.2853 0.731599 18.3787 0.632944 17.7501C0.600526 17.5436 0.699034 17.3708 0.823937 17.2739C0.945962 17.1792 1.12004 17.1332 1.29477 17.1868C1.4917 17.2472 1.79777 17.2885 2.18943 17.3077C2.57436 17.3266 3.01689 17.3232 3.47346 17.3055C4.34464 17.2718 5.24803 17.1866 5.86362 17.1121C7.85658 15.8815 9.49989 15.4901 10.9566 15.3562C11.5678 15.3 12.1474 15.2893 12.6911 15.2792C12.7952 15.2773 12.8979 15.2754 12.9993 15.2732C13.6375 15.2594 14.2269 15.2342 14.8086 15.1288ZM14.478 15.9866C13.9891 16.0453 13.5025 16.0625 13.0166 16.073C12.9107 16.0753 12.8049 16.0773 12.6991 16.0792C12.1556 16.0894 11.6093 16.0996 11.0299 16.1529C9.66414 16.2784 8.12082 16.6438 6.21198 17.8375L6.1371 17.8843L6.04948 17.8952C5.41669 17.9743 4.445 18.0685 3.50443 18.1049C3.03419 18.1232 2.56656 18.1271 2.15023 18.1067C1.92034 18.0954 1.6978 18.0764 1.49476 18.0459C1.59561 18.5979 1.74428 19.2713 1.93484 19.9062C2.05601 20.31 2.19195 20.6907 2.33998 21.0117C2.49067 21.3385 2.64185 21.5765 2.78273 21.7173C2.87731 21.8119 2.94464 21.8501 2.99982 21.8692C3.05724 21.8891 3.13458 21.8997 3.26819 21.8902C3.40728 21.8802 3.57676 21.8513 3.81852 21.8083C3.83065 21.8061 3.84293 21.804 3.85535 21.8017C4.08396 21.761 4.36107 21.7117 4.69579 21.666C6.11804 21.4719 8.53416 21.3497 13.0656 22.1049C14.2662 22.305 15.3987 21.7671 16.8044 20.8369C17.1644 20.5986 17.541 20.3355 17.9372 20.0586C18.9703 19.3366 20.1372 18.5212 21.493 17.8104C21.3239 17.7246 21.0723 17.6377 20.7421 17.5896C19.8363 17.4577 18.4058 17.6301 16.7324 18.8257C15.7713 19.5124 14.5978 19.7872 13.5198 19.7079C12.4469 19.6289 11.4201 19.1935 10.7952 18.3987C10.5203 18.0491 10.8028 17.6154 11.1638 17.5955C11.7788 17.5615 12.6439 17.3467 13.3614 16.9712C13.9048 16.6868 14.2932 16.3495 14.478 15.9866Z" fill="#090C00"/>
</svg>
