<svg width="109" height="109" viewBox="0 0 109 109" fill="none" xmlns="http://www.w3.org/2000/svg">
<g clip-path="url(#clip0_6844_26497)">
<path fill-rule="evenodd" clip-rule="evenodd" d="M8 4H86C88.2091 4 90 5.79086 90 8V42H94V8C94 3.58172 90.4183 0 86 0H8C3.58172 0 0 3.58172 0 8V79C0 83.4183 3.58172 87 8 87H32V83H8C5.79086 83 4 81.2091 4 79V8C4 5.79086 5.79086 4 8 4Z" fill="#C9C6C5"/>
<line x1="2" y1="16" x2="91" y2="16" stroke="#C9C6C5" stroke-width="4"/>
<path d="M40 9H54" stroke="#C9C6C5" stroke-width="4" stroke-linecap="round"/>
<circle cx="11" cy="9" r="2" fill="#C9C6C5"/>
<circle cx="25" cy="9" r="2" fill="#C9C6C5"/>
<circle cx="18" cy="9" r="2" fill="#C9C6C5"/>
<path fill-rule="evenodd" clip-rule="evenodd" d="M50.7237 47.7155C50.1108 48.7914 49.6934 49.959 49.483 51.1647C49.413 51.5658 49.3659 51.9711 49.3422 52.3787C49.3344 52.5126 49.3137 52.6443 49.2813 52.772C49.0919 53.518 48.5007 54.1242 47.7206 54.2004C46.8071 54.2897 45.9838 53.62 46.0033 52.7023C46.0069 52.5297 46.0138 52.3573 46.0238 52.1853C46.054 51.6684 46.1127 51.1543 46.1996 50.6453C46.4725 49.0458 47.023 47.4965 47.8355 46.0701C49.2681 43.5554 51.4448 41.5465 54.0661 40.3198C56.6874 39.0931 59.6245 38.7089 62.4731 39.2202C65.3217 39.7314 67.9419 41.1129 69.9731 43.1745C72.0042 45.2362 73.3465 47.8766 73.8153 50.7326C74.284 53.5885 73.8561 56.5195 72.5905 59.1222C71.3249 61.725 69.2838 63.8715 66.748 65.2665C65.3097 66.0577 63.7524 66.585 62.149 66.8341C62.0994 66.8418 62.0497 66.8493 62 66.8564V72C62 73.1046 61.1046 74 60 74C58.8955 74 58 73.1046 58 72V66C58 65.1806 58.4928 64.4764 59.1981 64.1673C59.441 63.9532 59.742 63.7987 60.0684 63.721C60.1966 63.6905 60.3286 63.6718 60.4626 63.666C60.8705 63.6483 61.2765 63.6073 61.6786 63.5433C62.8873 63.3508 64.061 62.9509 65.1459 62.3541C67.0796 61.2903 68.6361 59.6534 69.6012 57.6687C70.5664 55.6839 70.8926 53.4488 70.5352 51.2709C70.1778 49.0931 69.1541 47.0795 67.6052 45.5073C66.0563 43.9352 64.0582 42.8817 61.886 42.4919C59.7137 42.102 57.4739 42.395 55.475 43.3304C53.4761 44.2659 51.8162 45.7978 50.7237 47.7155Z" fill="#C9C6C5"/>
<circle cx="60" cy="77" r="2" fill="#C9C6C5"/>
<line x1="83.4142" y1="88.5858" x2="89.4142" y2="94.5858" stroke="#C9C6C5" stroke-width="4"/>
<line x1="88.4142" y1="83.5858" x2="94.4142" y2="89.5858" stroke="#C9C6C5" stroke-width="4"/>
<circle cx="60" cy="60" r="28" stroke="#C9C6C5" stroke-width="4"/>
<circle cx="60" cy="60" r="37" stroke="#C9C6C5" stroke-width="4"/>
<rect x="94.668" y="86.9241" width="20.5823" height="10.7705" rx="5.38526" transform="rotate(45 94.668 86.9241)" stroke="#C9C6C5" stroke-width="4"/>
</g>
<defs>
<clipPath id="clip0_6844_26497">
<rect width="109" height="109" fill="white"/>
</clipPath>
</defs>
</svg>
