<svg width="512" height="512" viewBox="0 0 512 512" fill="none" xmlns="http://www.w3.org/2000/svg">
<g clip-path="url(#clip0_8590_45532)">
<path fill-rule="evenodd" clip-rule="evenodd" d="M28.962 1.98159C17.154 5.72659 7.047 15.1736 2.243 26.9546L0 32.4546V204.955V377.455L3.201 384.214C6.982 392.195 14.561 400.582 21.314 404.257C31.623 409.868 32.774 409.955 96.771 409.955H155.621L163.811 417.055C224.283 469.486 312.312 475.448 378.794 431.616L388.376 425.298L398.938 435.893C405.932 442.908 409.5 447.23 409.5 448.684C409.5 449.892 410.463 453.484 411.639 456.667C413.558 461.859 416.004 464.7 435.382 484.248C461.419 510.513 463.633 511.955 477.91 511.954C485.87 511.954 487.746 511.595 493 509.073C500.305 505.566 505.543 500.266 508.931 492.955C511.07 488.342 511.482 485.99 511.49 478.365C511.505 464.163 510.012 461.854 484.291 436.316C462.577 414.757 458.39 411.557 450.342 410.365C446.505 409.797 444.768 408.506 435.422 399.277L424.843 388.831L431.179 379.221C463.02 330.927 469.291 269.967 447.937 216.305L443.5 205.154V122.104C443.5 65.1616 443.151 37.3876 442.391 33.7536C439.315 19.0516 427.662 6.30459 413.161 1.77759C407.596 0.0405869 398.574 -0.042413 221.161 0.010587C40.607 0.065587 34.818 0.124587 28.962 1.98159ZM404.768 17.5996C410.913 18.6146 418.551 23.8436 421.964 29.3716C424.987 34.2666 425.001 34.3616 425.316 51.1216L425.632 67.9546H221.066H16.5L16.524 54.7046C16.538 47.4166 17.01 39.4296 17.574 36.9546C19.603 28.0396 26.61 20.6956 35.321 18.3496C38.999 17.3596 78.623 17.0776 220.5 17.0326C319.775 17.0016 402.696 17.2566 404.768 17.5996ZM46.156 35.0876C43.779 36.4686 41.334 42.3176 42.159 44.6486C43.453 48.3046 46.787 50.9546 50.093 50.9546C54.71 50.9546 56.372 50.1026 58.037 46.8826C60.207 42.6866 59.835 40.1356 56.577 36.8776C53.496 33.7966 49.544 33.1176 46.156 35.0876ZM78.955 36.4096C75.632 39.7316 75.564 45.7266 78.814 48.7806C84.18 53.8206 93.5 49.9216 93.5 42.6366C93.5 35.0926 84.237 31.1266 78.955 36.4096ZM112.955 36.4096C107.562 41.8016 111.366 50.9546 119 50.9546C126.76 50.9546 130.506 41.6446 124.854 36.4066C121.303 33.1156 116.247 33.1166 112.955 36.4096ZM189.955 36.4096C186.41 39.9536 186.332 45.0016 189.764 48.7046C191.835 50.9396 192.045 50.9546 221.22 50.9546H250.591L253.045 48.4996C256.485 45.0606 256.4 39.6936 252.854 36.4066L250.208 33.9546H221.309H192.409L189.955 36.4096ZM425.468 130.705L425.437 175.455L423.228 172.455C399.598 140.359 358.287 114.338 317.677 105.973C256.846 93.4416 194.579 112.692 151.808 157.252C105.426 205.575 89.903 274.374 111.058 337.861C117.07 355.902 125.017 371.076 138.372 390.01C139.726 391.929 139.069 391.954 88.372 391.911C49.187 391.878 36.148 391.563 33.41 390.584C27.795 388.577 23.081 384.43 19.911 378.709L17 373.455L16.733 229.705L16.467 85.9546H220.983H425.5L425.468 130.705ZM312.651 122.816C344.971 129.482 371.582 143.878 395.04 167.387C412.637 185.022 422.459 199.654 430.957 220.896C439.162 241.404 442.49 258.777 442.496 281.133C442.501 298.345 441.408 307.269 437.382 322.899C421.248 385.54 368.111 432.6 303 441.914C290.834 443.654 267.03 443.183 253.919 440.941C187.969 429.666 136.806 379.899 122.345 312.955C120.393 303.917 120.077 299.53 120.077 281.455C120.077 263.366 120.392 259 122.348 249.955C137.158 181.501 188.465 132.681 257.428 121.422C269.74 119.412 299.829 120.171 312.651 122.816ZM265.153 137.132C240.93 139.617 214.887 149.899 194.471 165.036C139.238 205.989 120.242 281.299 149.601 342.927C169.667 385.05 206.9 414.337 252.812 424.111C266.55 427.036 293.616 427.281 307 424.602C337.546 418.488 361.849 405.588 383.558 383.966C405.027 362.583 418.053 338.013 424.139 307.419C426.572 295.188 426.584 269.115 424.162 255.955C413.699 199.086 369.877 153.016 314 140.142C296.953 136.214 282.676 135.334 265.153 137.132ZM308.5 156.821C338.8 163.828 364.793 180.572 383.054 204.845C399.261 226.388 407.229 249.106 408.217 276.586C409.266 305.782 402.482 329.63 386.21 353.947C379.76 363.586 363.131 380.215 353.492 386.665C329.175 402.937 305.327 409.721 276.131 408.672C248.651 407.684 225.933 399.716 204.39 383.509C179.649 364.897 162.651 338.069 155.885 306.955C153.31 295.113 153.287 267.894 155.843 256.159C162.519 225.51 178.719 199.523 202.776 180.871C220.514 167.118 240.532 158.52 263 155.003C272.592 153.502 298.648 154.543 308.5 156.821ZM267 180.357C239.732 186.604 219.084 207.722 213.935 234.628C211.819 245.688 212.045 249.261 215.089 252.878C218.335 256.736 223.114 257.051 227.049 253.667C229.338 251.698 229.821 250.269 230.512 243.417C231.884 229.826 236.645 219.934 246.2 210.821C256.097 201.383 267.234 196.955 281.076 196.955C322.293 196.955 346.153 243.659 322.134 277.32C314.866 287.505 304.128 294.322 290.511 297.397C281.306 299.475 277.578 301.692 274.712 306.792C272.671 310.423 272.5 312.038 272.5 327.705V344.682L275.136 347.319C278.629 350.812 283.657 350.888 287.045 347.5C289.432 345.114 289.5 344.633 289.5 330.136V315.227L294 314.61C300.368 313.737 312.127 308.973 318.727 304.592C330.887 296.521 341.767 282.169 346.5 267.955C349.481 259.004 350.23 242.961 348.128 233.089C343.091 209.439 324.483 189.247 301 181.95C292.073 179.175 275.536 178.401 267 180.357ZM274.955 369.41C269.562 374.802 273.366 383.955 281 383.955C285.877 383.955 289.5 380.332 289.5 375.455C289.5 367.821 280.347 364.017 274.955 369.41ZM419.721 408.705L425.38 414.455L422.18 416.851C420.419 418.169 417.821 420.733 416.406 422.549L413.833 425.85L407.949 419.904L402.065 413.958L407.499 408.456C410.487 405.431 413.186 402.955 413.497 402.955C413.808 402.955 416.609 405.542 419.721 408.705ZM449.782 428.345C451.552 429.109 461.848 438.671 472.661 449.595C489.256 466.357 492.498 470.118 493.45 473.705C495.388 481.011 491.933 489.129 485.461 492.475C481.826 494.355 473.218 494.386 469.7 492.531C468.215 491.748 458.149 482.186 447.33 471.281C426.345 450.13 425.383 448.69 426.892 440.705C428.865 430.262 440.133 424.177 449.782 428.345Z" fill="#C9C6C4"/>
</g>
<defs>
<clipPath id="clip0_8590_45532">
<rect width="512" height="512" fill="white"/>
</clipPath>
</defs>
</svg>
