<svg width="24" height="24" viewBox="0 0 24 24" fill="none" xmlns="http://www.w3.org/2000/svg">
<path fill-rule="evenodd" clip-rule="evenodd" d="M7 2.5C4.51472 2.5 2.5 4.51472 2.5 7V17C2.5 19.4853 4.51472 21.5 7 21.5H17C19.4853 21.5 21.5 19.4853 21.5 17V7C21.5 4.51472 19.4853 2.5 17 2.5H7ZM1.5 7C1.5 3.96243 3.96243 1.5 7 1.5H17C20.0376 1.5 22.5 3.96243 22.5 7V17C22.5 20.0376 20.0376 22.5 17 22.5H7C3.96243 22.5 1.5 20.0376 1.5 17V7Z" fill="#090C00"/>
<path fill-rule="evenodd" clip-rule="evenodd" d="M12.5566 8.49465C11.8284 8.38666 11.0847 8.51105 10.4312 8.85011C9.77777 9.18917 9.24787 9.72565 8.9169 10.3832C8.58592 11.0408 8.47071 11.786 8.58767 12.5128C8.70463 13.2397 9.04779 13.9111 9.56834 14.4317C10.0889 14.9522 10.7603 15.2954 11.4872 15.4123C12.214 15.5293 12.9592 15.4141 13.6168 15.0831C14.2744 14.7521 14.8108 14.2222 15.1499 13.5688C15.489 12.9153 15.6133 12.1716 15.5054 11.4434C15.3952 10.7006 15.0491 10.0129 14.5181 9.48192C13.9871 8.95093 13.2994 8.6048 12.5566 8.49465ZM9.97065 7.96249C10.8108 7.52655 11.767 7.36663 12.7033 7.50547C13.6583 7.64709 14.5425 8.09211 15.2252 8.77481C15.9079 9.45751 16.3529 10.3417 16.4945 11.2967C16.6334 12.233 16.4735 13.1892 16.0375 14.0294C15.6016 14.8695 14.9118 15.5508 14.0664 15.9763C13.2209 16.4019 12.2628 16.55 11.3283 16.3996C10.3938 16.2493 9.53052 15.8081 8.86124 15.1388C8.19195 14.4695 7.75074 13.6062 7.60037 12.6717C7.45 11.7372 7.59812 10.7791 8.02366 9.93364C8.4492 9.08818 9.1305 8.39842 9.97065 7.96249Z" fill="#090C00"/>
<path fill-rule="evenodd" clip-rule="evenodd" d="M17 6.5C17 6.22386 17.2239 6 17.5 6H17.51C17.7861 6 18.01 6.22386 18.01 6.5C18.01 6.77614 17.7861 7 17.51 7H17.5C17.2239 7 17 6.77614 17 6.5Z" fill="#090C00"/>
</svg>
