<svg width="24" height="24" viewBox="0 0 24 24" fill="none" xmlns="http://www.w3.org/2000/svg">
<path fill-rule="evenodd" clip-rule="evenodd" d="M16 8.5C14.5413 8.5 13.1424 9.07946 12.1109 10.1109C11.0795 11.1424 10.5 12.5413 10.5 14V20.5H13.5V14C13.5 13.337 13.7634 12.7011 14.2322 12.2322C14.7011 11.7634 15.337 11.5 16 11.5C16.663 11.5 17.2989 11.7634 17.7678 12.2322C18.2366 12.7011 18.5 13.337 18.5 14V20.5H21.5V14C21.5 12.5413 20.9205 11.1424 19.8891 10.1109C18.8576 9.07946 17.4587 8.5 16 8.5ZM11.4038 9.40381C12.6228 8.18482 14.2761 7.5 16 7.5C17.7239 7.5 19.3772 8.18482 20.5962 9.40381C21.8152 10.6228 22.5 12.2761 22.5 14V21C22.5 21.2761 22.2761 21.5 22 21.5H18C17.7239 21.5 17.5 21.2761 17.5 21V14C17.5 13.6022 17.342 13.2206 17.0607 12.9393C16.7794 12.658 16.3978 12.5 16 12.5C15.6022 12.5 15.2206 12.658 14.9393 12.9393C14.658 13.2206 14.5 13.6022 14.5 14V21C14.5 21.2761 14.2761 21.5 14 21.5H10C9.72386 21.5 9.5 21.2761 9.5 21V14C9.5 12.2761 10.1848 10.6228 11.4038 9.40381Z" fill="#090C00"/>
<path fill-rule="evenodd" clip-rule="evenodd" d="M1.5 9C1.5 8.72386 1.72386 8.5 2 8.5H6C6.27614 8.5 6.5 8.72386 6.5 9V21C6.5 21.2761 6.27614 21.5 6 21.5H2C1.72386 21.5 1.5 21.2761 1.5 21V9ZM2.5 9.5V20.5H5.5V9.5H2.5Z" fill="#090C00"/>
<path fill-rule="evenodd" clip-rule="evenodd" d="M4 2.5C3.17157 2.5 2.5 3.17157 2.5 4C2.5 4.82843 3.17157 5.5 4 5.5C4.82843 5.5 5.5 4.82843 5.5 4C5.5 3.17157 4.82843 2.5 4 2.5ZM1.5 4C1.5 2.61929 2.61929 1.5 4 1.5C5.38071 1.5 6.5 2.61929 6.5 4C6.5 5.38071 5.38071 6.5 4 6.5C2.61929 6.5 1.5 5.38071 1.5 4Z" fill="#090C00"/>
</svg>
