<svg width="123" height="165" viewBox="0 0 123 165" fill="none" xmlns="http://www.w3.org/2000/svg">
<g filter="url(#filter0_b_3345_4083)">
<path fill-rule="evenodd" clip-rule="evenodd" d="M0.901278 1.10589C-0.0353624 2.13016 -0.0963379 5.92685 0.0758079 52.4084L0.261704 102.605L1.62991 107.336C3.66457 114.374 8.19715 123.276 12.3197 128.33C17.3531 134.503 47.0836 163.603 49.1368 164.369C51.6735 165.314 72.1929 165.155 73.9777 164.176C76.4165 162.838 107.873 132.081 111.095 127.883C114.758 123.112 119.509 113.757 121.38 107.632L122.734 103.196L122.923 52.7041C123.097 5.94459 123.036 2.13016 122.1 1.10589C121.191 0.112362 120.105 0 111.425 0C104.155 0 101.07 0.233005 98.9688 0.941483C95.1535 2.22774 90.6818 6.34377 88.9281 10.1842L87.5019 13.3061L87.2031 55.2944C86.906 97.0295 86.8965 97.3022 85.5707 100.535C83.86 104.708 81.6245 107.321 71.2653 117.255C64.4386 123.8 62.4703 125.374 61.1039 125.376C59.7034 125.378 57.7452 123.708 49.8337 115.766C39.6251 105.517 37.5659 102.557 36.4051 96.463C36.0328 94.5079 35.7984 78.0089 35.7984 53.7574C35.7984 15.6551 35.7554 14.124 34.6 11.0689C33.0196 6.88962 28.8349 2.74934 24.6108 1.18573C21.8863 0.176824 19.9521 0 11.6604 0C2.89769 0 1.81102 0.111771 0.901278 1.10589ZM55.4529 0.816701C50.1876 2.67838 47.1852 5.49632 44.6329 10.9731L43.27 13.8975V54.4197V94.9419L45.1768 98.7741C47.747 103.939 58.6203 114.728 61.2557 114.728C62.6639 114.728 64.3023 113.407 70.2509 107.475C76.7644 100.979 77.6269 99.8735 78.4984 96.9059C79.3639 93.9603 79.4535 89.0973 79.3029 53.1536L79.1338 12.7148L77.3609 9.54789C75.1421 5.58503 71.5079 2.37736 67.7118 1.03078C64.3041 -0.177415 58.5492 -0.278541 55.4529 0.816701Z" fill="#F5F5F3" fill-opacity="0.4"/>
</g>
<defs>
<filter id="filter0_b_3345_4083" x="-64" y="-64" width="251" height="293" filterUnits="userSpaceOnUse" color-interpolation-filters="sRGB">
<feFlood flood-opacity="0" result="BackgroundImageFix"/>
<feGaussianBlur in="BackgroundImageFix" stdDeviation="32"/>
<feComposite in2="SourceAlpha" operator="in" result="effect1_backgroundBlur_3345_4083"/>
<feBlend mode="normal" in="SourceGraphic" in2="effect1_backgroundBlur_3345_4083" result="shape"/>
</filter>
</defs>
</svg>
