<svg width="24" height="24" viewBox="0 0 24 24" fill="none" xmlns="http://www.w3.org/2000/svg">
<path fill-rule="evenodd" clip-rule="evenodd" d="M9.82737 0.25915C8.8986 0.591974 7.67558 1.88319 7.28501 2.94359C7.11544 3.40361 6.9768 3.99807 6.9768 4.26447C6.9768 4.53102 6.88104 4.93547 6.76391 5.16353C6.31292 6.04161 6.70179 7.20085 7.53964 7.47579C7.97738 7.61948 8.0492 7.71759 8.19397 8.37079C8.36667 9.14888 8.64753 9.68009 9.21379 10.2993L9.56134 10.6794L7.80596 10.744C5.69094 10.8217 4.89555 11.1105 3.93942 12.1486C3.37572 12.7606 3.26072 13.0704 3.26072 13.0704C3.26072 13.0704 2.91771 13.539 3.08954 13.7539C3.31577 14.0368 4.69036 14.1177 4.69036 14.1177L5.88887 14.402L5.50014 19L2.93499 19.2686C2.93499 19.2686 3.33707 15.4444 3.50079 15C3.81656 14.1431 3.65622 14.0489 3.00007 14C2.75955 14.0486 2.51714 15.429 2.50146 16C2.49448 16.2573 2.50035 16.5898 2.50035 16.5898C2.50035 16.5898 2.48685 17.1694 2.44467 17.5886C2.42059 17.8273 2.30845 18.4024 2.19531 18.8665C1.93298 19.9422 2.04573 21.7859 2.19575 22.609C2.35232 23.4681 2.429 23.2683 3.00079 23C3.39132 22.8168 4.0008 22.5308 4.0008 22.5308L5.83685 21.6694V22.3523C5.83685 22.9777 5.86379 23.0313 6.15746 22.989C6.43105 22.9495 6.48448 22.8418 6.52153 22.2553L6.56499 21.568L6.50014 20H8.00014H9.00014H10.0697H11.9129L17.252 20.0273L17.2363 16.5033L17.2551 20.7232L17.2651 21.3566V21.7812V22.0859C17.2651 22.0859 17.23 22.006 17.2651 22.4291C17.2987 22.8355 17.3745 22.9524 17.6281 22.989C17.9259 23.0318 17.9489 22.9803 17.9509 22.2655C17.9533 21.448 17.9618 21.2032 18.2062 21.3566C18.288 21.4079 18.9506 21.5547 18.9506 21.5547L19.9675 21.1304C19.9675 21.1304 20.3861 23.702 20.7503 22.989C21.0001 22.5 20.8178 22.1106 20.8243 21.5466C20.8261 21.3841 20.8243 21.1304 20.8243 21.1304V20.42L20.7919 19.8114C20.7919 19.8114 20.6621 19.0219 20.7503 18.8333C20.81 18.7058 20.8821 18.0642 20.9105 17.4077C20.9583 16.2994 20.9419 16.2139 20.6818 16.2139C20.3259 16.2139 20.2286 16.479 20.2286 17.4489C20.2286 18.2771 20.0008 19.5 20.0008 19.5C20.0008 19.5 19.8191 20.2012 19.5008 20.5C18.7098 21.2426 18.0008 20.5 18.0008 20.5C18.0008 20.5 18.0157 18.9718 17.9509 17.8389C17.9205 17.3074 17.9487 17.0835 17.9487 16.2383C17.9487 15.364 17.8369 14.2463 17.6638 13.3921C17.507 12.6185 17.3788 11.895 17.3788 11.7844C17.3788 11.5061 17.7215 11.5329 18.3463 11.8599C19.3923 12.4075 20.2286 13.6248 20.2286 14.5997C20.2286 15.0493 20.5467 15.4314 20.7923 15.2772C21.0528 15.1137 20.9499 13.9961 20.6051 13.2443C20.1716 12.2988 19.4928 11.6231 18.5196 11.1681C17.8507 10.8555 17.4781 10.7924 15.993 10.7409L14.2509 10.6803L14.7384 10.1021C15.2127 9.53915 15.6689 8.47715 15.6689 7.93523C15.6689 7.78777 15.781 7.63077 15.9182 7.5862C16.5532 7.38014 16.8677 7.13385 17.0446 6.70407C17.2887 6.11121 17.2866 5.73628 17.0361 5.1657C16.9259 4.91492 16.8013 4.373 16.7591 3.96131C16.6276 2.67748 15.5765 1.00279 15.0349 1.21392C14.7268 1.33403 14.7593 1.64833 15.1134 1.97377C15.2783 2.12514 15.5043 2.42829 15.6159 2.64738C15.8143 3.03722 16.461 4.64602 16.0607 4.64602C15.7452 4.64602 13.8891 4.56502 12.8903 4.56502C11.6512 4.56502 8.25553 4.60525 7.7843 4.52885C7.15976 4.42741 8.00007 1.5 10.07 0.859001C10.1456 0.782307 12.6711 0.67547 13.1581 0.804258C14.0221 1.03275 14.2439 0.999611 14.2439 0.642043C14.2439 0.0267524 11.21 -0.236323 9.82737 0.25915ZM8.11674 6.15679C8.11674 6.59453 8.05262 6.95267 7.97425 6.95267C7.68698 6.95267 7.26178 6.36256 7.26178 5.9639C7.26178 5.46582 7.35269 5.36091 7.7843 5.36091C8.09223 5.36091 8.11674 5.41951 8.11674 6.15679ZM14.9533 6.84414C14.9498 8.49799 14.7362 9.18621 14.0125 9.8753C12.4877 11.3274 9.97741 10.8322 9.09937 8.90621C8.8976 8.46369 8.83476 7.97792 8.83234 6.84414L8.8292 5.36091H11.8928H14.9564L14.9533 6.84414ZM16.499 5.84625C16.5435 6.24029 16.0847 6.95267 15.7866 6.95267C15.7219 6.95267 15.6689 6.59019 15.6689 6.14724C15.6689 5.35382 15.6747 5.34238 16.0607 5.38753C16.3725 5.42385 16.4621 5.51762 16.499 5.84625ZM13.104 11.6889C13.104 11.9219 12.9386 12.0971 12.5084 12.3201L11.9129 12.6286L11.2972 12.3249C10.8409 12.0997 10.6816 11.9365 10.6816 11.6937C10.6816 11.3792 10.7296 11.3662 11.8928 11.3662C13.0506 11.3662 13.104 11.3804 13.104 11.6889ZM8.5143 12.7869L8.55562 14.0628L9.01302 14.2538C9.79901 14.5817 11.5421 14.8079 12.5511 14.7125C13.7233 14.602 13.9589 14.5162 13.9589 14.2003C13.9589 13.981 13.7607 13.9551 12.1422 13.9625C10.9753 13.9679 10.1343 13.9022 9.79103 13.7787L9.25668 13.5867V12.5126C9.25668 11.4635 9.26495 11.4386 9.61292 11.4386C9.92483 11.4386 9.96915 11.5014 9.96915 11.943C9.96915 12.4207 10.0202 12.4736 10.9307 12.9397L11.8921 13.432L12.8543 12.9399C13.7656 12.4738 13.8165 12.4213 13.8165 11.9432C13.8165 11.5014 13.8608 11.4386 14.1727 11.4386C14.5236 11.4386 14.5289 11.4561 14.5311 12.6324C14.5335 13.9075 14.6516 14.2822 15.0076 14.1434C15.1813 14.0758 15.2391 13.7773 15.2713 12.7839L15.3126 11.5109L15.9135 11.4666C16.5975 11.4163 16.494 11.2122 16.9524 13.5165C17.1086 14.3013 17.2363 15.1316 17.2363 15.3615V15.7797H14.2461H11.256H6.50014C6.50014 15.7797 6.68768 14.2372 6.92151 13.0704C7.28031 11.2811 7.19966 11.4171 7.87208 11.4666L8.47297 11.5109L8.5143 12.7869ZM6.40683 11.7475C6.40683 12.3538 6.04532 13.7539 5.88887 13.7539C5.59676 13.7539 4.12694 13.1653 4.12694 13.0483C4.12694 12.8764 5.01781 12.0699 5.48062 11.823C5.98733 11.5526 6.40683 11.5183 6.40683 11.7475ZM12.0001 16.5C12.0001 16.5 16.935 16.4411 17.0001 16.5C17.1151 16.604 17.0331 18.1468 16.6579 19.0995C16.5001 19.5 13.2923 19.5 11.0001 19.5C9.35077 19.5 6.85701 19.5552 6.56499 19.0995C6.01709 18.2445 6.50014 16.5 6.50014 16.5H9.50014H12.0001ZM9.76853 17.4631C9.67677 17.5754 9.7436 18.0765 9.78848 18.1504C9.90006 18.3336 10.4341 18.5592 11.5001 18.5C11.9496 18.475 13.3936 18.7226 13.6427 18.3477C13.8259 18.0719 13.9737 17.5 13.6427 17.5C13.5001 17.5 12.3368 17.5099 11.5001 17.5C10.8238 17.492 9.9096 17.2905 9.76853 17.4631ZM17.2363 16.5033L17.2421 17.8008L17.2432 18.0469L17.2445 18.3477L17.246 18.6915L17.2469 18.8867L17.2476 19.0508L17.2487 19.2851L17.251 19.8008L17.2518 20L17.2651 20.1715V21V21.3566L17.2551 20.7232L17.2363 16.5033ZM5.50014 19.5V20V20.5C5.50014 20.5 5.46409 20.8081 5.50014 21C5.55417 21.2876 5.83685 21.6694 5.83685 21.6694C5.83685 21.6694 4.10834 22.4804 3.00079 23C2.6574 22.5378 2.93499 19.2686 2.93499 19.2686L5.50014 19V19.5Z" fill="#090C00"/>
<path fill-rule="evenodd" clip-rule="evenodd" d="M9.65458 8.16253L7.86572 7.2681L8.13405 6.73145L9.92291 7.62587C10.0201 7.67447 10.1273 7.69977 10.236 7.69977H10.5857C10.7713 7.69977 10.9494 7.62602 11.0806 7.49475C11.5883 6.98707 12.4114 6.98707 12.9191 7.49475C13.0504 7.62602 13.2284 7.69977 13.4141 7.69977H13.6971C13.8353 7.69977 13.9704 7.65887 14.0854 7.58221L15.3335 6.75016L15.6663 7.24939L14.4182 8.08144C14.2047 8.2238 13.9538 8.29977 13.6971 8.29977H13.4141C13.0693 8.29977 12.7387 8.16281 12.4949 7.91901C12.2215 7.64565 11.7783 7.64565 11.5049 7.91901C11.2611 8.16281 10.9305 8.29977 10.5857 8.29977H10.236C10.0341 8.29977 9.83509 8.25278 9.65458 8.16253Z" fill="#090C00"/>
<path fill-rule="evenodd" clip-rule="evenodd" d="M6.99995 9.3002C6.61335 9.3002 6.29995 9.6136 6.29995 10.0002V11.5002H5.69995V10.0002C5.69995 9.28223 6.28198 8.7002 6.99995 8.7002H8.49995V9.3002H6.99995Z" fill="#090C00"/>
<path fill-rule="evenodd" clip-rule="evenodd" d="M16.5 9.3002C16.8866 9.3002 17.2 9.6136 17.2 10.0002V11.5002H17.8V10.0002C17.8 9.28223 17.218 8.7002 16.5 8.7002H15V9.3002H16.5Z" fill="#090C00"/>
<path fill-rule="evenodd" clip-rule="evenodd" d="M20 6.92462L17.2121 9.71249L16.7878 9.28823L19.6464 6.42965C19.8417 6.23439 20.1583 6.23439 20.3535 6.42965L21.0707 7.14681C21.2659 7.34207 21.2659 7.65865 21.0707 7.85391L17.7121 11.2125L17.2878 10.7882L20.5757 7.50036L20 6.92462Z" fill="#090C00"/>
<path fill-rule="evenodd" clip-rule="evenodd" d="M19.5 9.42462L18.2121 10.7125L17.7878 10.2882L19.1464 8.92965C19.3417 8.73439 19.6583 8.73439 19.8535 8.92965L20.5707 9.64681C20.7659 9.84207 20.7659 10.1587 20.5707 10.3539L19.2121 11.7125L18.7878 11.2882L20.0757 10.0004L19.5 9.42462Z" fill="#090C00"/>
<path d="M18.1363 6.82603C18.061 6.74521 18.0655 6.61865 18.1463 6.54336L18.5854 6.13438C18.6662 6.05909 18.7927 6.06357 18.868 6.14439L19.4463 6.76512C19.5216 6.84594 19.5171 6.9725 19.4363 7.04779L18.9973 7.45677C18.9164 7.53206 18.7899 7.52758 18.7146 7.44676L18.1363 6.82603Z" fill="#090C00"/>
<path fill-rule="evenodd" clip-rule="evenodd" d="M9.12299 2.3002C8.7364 2.3002 8.42299 2.6136 8.42299 3.0002C8.42299 3.38679 8.7364 3.7002 9.12299 3.7002H10.3518C10.5053 3.7002 10.6545 3.64975 10.7765 3.55663L11.5055 3.0002L10.7765 2.44376C10.6545 2.35064 10.5053 2.3002 10.3518 2.3002H9.12299ZM12.4818 3.0002L13.1701 3.54794C13.294 3.64652 13.4477 3.7002 13.606 3.7002H14.8868C15.2556 3.7002 15.5612 3.41394 15.5853 3.04585L15.5882 3.0002L15.5853 2.95454C15.5612 2.58645 15.2556 2.3002 14.8868 2.3002H13.606C13.4477 2.3002 13.294 2.35387 13.1701 2.45245L12.4818 3.0002ZM16 3.00746L16.1883 3.01976L16.184 3.08498C16.1393 3.76858 15.5718 4.3002 14.8868 4.3002H13.606C13.312 4.3002 13.0266 4.20052 12.7965 4.01743L11.9962 3.38053L11.1406 4.03358C10.914 4.20652 10.6368 4.3002 10.3518 4.3002H9.12299C8.50828 4.3002 7.99321 3.87354 7.85778 3.3002H7.5V2.7002H7.85778C7.99321 2.12686 8.50828 1.7002 9.12299 1.7002H10.3518C10.6368 1.7002 10.914 1.79387 11.1406 1.96681L11.9962 2.61986L12.7965 1.98296C13.0266 1.79987 13.312 1.7002 13.606 1.7002H14.8868C15.5718 1.7002 16.1393 2.23181 16.184 2.91541L16.1883 2.98063L16 2.99293V3.00746Z" fill="#090C00"/>
<path fill-rule="evenodd" clip-rule="evenodd" d="M8.24995 21.3002C8.00142 21.3002 7.79995 21.5017 7.79995 21.7502C7.79995 21.9987 8.00142 22.2002 8.24995 22.2002H15.25C15.4985 22.2002 15.7 21.9987 15.7 21.7502C15.7 21.5017 15.4985 21.3002 15.25 21.3002H8.24995ZM7.19995 21.7502C7.19995 21.1703 7.67005 20.7002 8.24995 20.7002H15.25C15.8299 20.7002 16.3 21.1703 16.3 21.7502C16.3 22.3301 15.8299 22.8002 15.25 22.8002H8.24995C7.67005 22.8002 7.19995 22.3301 7.19995 21.7502Z" fill="#090C00"/>
</svg>
