<svg width="24" height="24" viewBox="0 0 24 24" fill="none" xmlns="http://www.w3.org/2000/svg">
<path fill-rule="evenodd" clip-rule="evenodd" d="M4.60004 1.59961C4.60004 1.32347 4.82389 1.09961 5.10004 1.09961H10.418C10.6483 1.09961 10.8628 1.25958 10.9085 1.50569C11.1053 2.5639 11.141 4.12763 11.1105 5.62962C11.081 7.08348 10.9884 8.5109 10.9078 9.42986C11.1137 9.91891 11.1784 10.6132 11.1745 11.3642C11.1702 12.1925 11.0806 13.1614 10.9463 14.1533C10.6919 16.0329 10.2727 18.0291 9.94431 19.3763L10.2848 19.7168C10.7971 20.2291 10.8926 20.8669 10.8238 21.4122C10.7561 21.9484 10.5282 22.4313 10.3347 22.7215L10.216 22.8996H2.25282L2.14227 22.6785C1.84915 22.0923 2.05664 21.5147 2.32912 21.1036C2.60392 20.689 2.99766 20.3538 3.27816 20.1668L3.33581 20.1284L5.36043 19.6222L7.0658 18.7695L5.78822 9.19277C5.11119 8.52372 4.73942 7.60637 4.61198 7.09662L4.60004 7.04885V1.59961ZM6.67686 9.80415L7.93428 19.2297L5.63965 20.377L3.66717 20.8701C3.45367 21.0217 3.17999 21.2679 2.99595 21.5456C2.859 21.7522 2.79523 21.9361 2.80133 22.0996H9.77415C9.88508 21.8889 9.9929 21.6067 10.0301 21.3121C10.078 20.9323 10.0068 20.5701 9.71908 20.2825L9.05902 19.6224L9.11382 19.4028C9.44401 18.0795 9.88986 15.9944 10.1536 14.046C10.2855 13.0712 10.3705 12.1401 10.3745 11.36C10.3787 10.5603 10.296 9.9865 10.1421 9.67822L10.0914 9.57662L10.1017 9.46353C10.1829 8.56683 10.2804 7.10325 10.3106 5.61337C10.3386 4.23681 10.3083 2.86607 10.1634 1.89961H5.40004V6.94846C5.52265 7.40194 5.86477 8.18824 6.43419 8.70284C6.64103 8.88977 6.87154 9.03514 7.12653 9.12014L6.87355 9.87908C6.80627 9.85666 6.74071 9.83159 6.67686 9.80415Z" fill="#090C00"/>
<path fill-rule="evenodd" clip-rule="evenodd" d="M13.2 1.6002C13.2 1.37928 13.379 1.2002 13.6 1.2002H18.4C18.6209 1.2002 18.8 1.37928 18.8 1.6002V6.58623L18.7544 6.65919C18.4982 7.06906 18.123 7.52775 17.6626 7.89243C17.5016 8.01988 17.3279 8.13772 17.143 8.23805L17.693 8.76952C17.7169 8.79263 17.7415 8.82075 17.764 8.85592C17.9959 9.2186 18.1172 9.77961 18.1807 10.4003C18.2454 11.0343 18.2539 11.7806 18.2282 12.5508C18.1768 14.0922 17.9878 15.7587 17.8222 16.8756C17.7854 17.1233 17.5728 17.3002 17.3284 17.3002H16.3V19.2002H19.0297L19.0588 19.206C20.144 19.4231 20.7692 19.9792 21.0839 20.6474C21.3902 21.2977 21.3848 22.0159 21.2959 22.5495L21.2541 22.8002H14.5C14.0337 22.8002 13.6866 22.6512 13.4657 22.3751C13.2551 22.1118 13.2 21.7822 13.2 21.5002V21.4633L13.671 19.5789C13.7267 19.3563 13.9267 19.2002 14.1561 19.2002H15.7V17.3002H14.6561C14.4271 17.3002 14.225 17.144 14.1711 16.9181C13.4133 13.7476 13.6984 10.5034 14.2002 8.95138C14.2251 8.87454 14.2672 8.80885 14.3199 8.75572L14.8028 8.26884C14.2694 7.97615 13.7438 7.45645 13.2456 6.6592L13.2 6.58623V1.6002ZM15.994 7.9657H15.862C15.258 7.94071 14.5403 7.56708 13.8 6.41321V1.8002H18.2V6.41252C17.9754 6.75612 17.6614 7.12794 17.29 7.42209C16.8933 7.7363 16.4507 7.94688 15.994 7.9657ZM15.3534 8.5657L14.7632 9.16084C14.3066 10.598 14.0293 13.6706 14.7361 16.7002H17.2415C17.4017 15.6 17.5794 14.0035 17.6285 12.5308C17.6537 11.7743 17.6447 11.0578 17.5838 10.4613C17.5226 9.86217 17.4127 9.42957 17.2664 9.19165L16.6187 8.5657H16.0054C15.9527 8.56756 15.8999 8.56757 15.8471 8.5657H15.3534ZM14.2342 19.8002L13.8004 21.5355C13.805 21.7366 13.8497 21.8947 13.9342 22.0003C14.0133 22.0992 14.1662 22.2002 14.5 22.2002H20.7361C20.7731 21.7862 20.7358 21.3165 20.5411 20.903C20.3165 20.4262 19.8655 19.9866 18.9697 19.8002H14.2342Z" fill="#090C00"/>
<path fill-rule="evenodd" clip-rule="evenodd" d="M16 11.2C16.6627 11.2 17.2 10.6627 17.2 10C17.2 9.33726 16.6627 8.8 16 8.8C15.3373 8.8 14.8 9.33726 14.8 10C14.8 10.6627 15.3373 11.2 16 11.2ZM16 12C17.1046 12 18 11.1046 18 10C18 8.89543 17.1046 8 16 8C14.8954 8 14 8.89543 14 10C14 11.1046 14.8954 12 16 12Z" fill="#090C00"/>
<path fill-rule="evenodd" clip-rule="evenodd" d="M13.7661 2.54463C13.7199 2.56362 13.6682 2.57131 13.6151 2.56467C13.4507 2.54411 13.3341 2.39418 13.3546 2.22977C13.365 2.14715 13.4058 2.09056 13.434 2.06029C13.4619 2.03031 13.4899 2.01232 13.5059 2.00304C13.5376 1.98465 13.5665 1.97533 13.5793 1.97142C13.6084 1.96253 13.6374 1.95736 13.6566 1.95429C13.6985 1.94758 13.7484 1.94257 13.7924 1.93887C13.879 1.93161 13.9769 1.92676 14.0076 1.92676H14.5507C14.678 1.92676 14.9759 1.93334 15.1525 2.19014C15.1593 2.20013 15.164 2.20627 15.1715 2.2161C15.1766 2.22274 15.183 2.23106 15.1922 2.2434C15.2112 2.26894 15.2363 2.30425 15.2599 2.34945C15.275 2.37851 15.285 2.39884 15.293 2.41515C15.3042 2.43783 15.3115 2.45274 15.3236 2.47257C15.3636 2.538 15.4169 2.60595 15.4734 2.66585L15.4943 2.68801C15.5006 2.69465 15.5058 2.70007 15.5105 2.70485C15.511 2.70536 15.5115 2.70585 15.512 2.70633C15.5268 2.70698 15.5398 2.70762 15.5514 2.70818C15.6027 2.71067 15.6258 2.7118 15.6466 2.70753C15.6779 2.70114 15.7125 2.68864 15.7728 2.66519C15.7759 2.66397 15.7791 2.66272 15.7824 2.66143C15.8345 2.6411 15.9096 2.61181 15.9903 2.59388C16.0003 2.59165 16.0125 2.58851 16.0268 2.58486C16.0999 2.56608 16.2248 2.53399 16.3653 2.54523C16.5019 2.55615 16.6099 2.62525 16.6786 2.68452C16.7504 2.74639 16.8122 2.8255 16.8519 2.90851C16.8779 2.96286 16.8979 3.02066 16.9125 3.06292C16.9138 3.06667 16.9151 3.07035 16.9163 3.07394C16.9309 3.11613 16.9417 3.14745 16.954 3.17668C16.9656 3.20401 16.9741 3.21833 16.9785 3.22494C17.0231 3.24214 17.068 3.24184 17.1759 3.24111C17.201 3.24094 17.2294 3.24075 17.2621 3.24075C17.3148 3.24075 17.3655 3.24106 17.4152 3.24136C17.5106 3.24193 17.602 3.24248 17.6962 3.2408C17.8502 3.23805 17.9843 3.23467 18.0924 3.21065C18.1057 3.20769 18.1182 3.20564 18.1255 3.20447L18.1483 3.20102C18.151 3.20061 18.1536 3.20023 18.156 3.19987C18.2401 3.15184 18.3459 3.14539 18.4391 3.19198C18.5873 3.26607 18.6474 3.44627 18.5733 3.59447C18.5423 3.65634 18.4985 3.69413 18.47 3.71448C18.4405 3.73549 18.4125 3.74849 18.3933 3.75629C18.3555 3.7716 18.3193 3.77976 18.2974 3.78417C18.2735 3.789 18.2505 3.79243 18.2365 3.79451C18.2239 3.79637 18.2196 3.79707 18.2193 3.79708C18.0477 3.83472 17.8584 3.83805 17.7209 3.84046C17.7162 3.84054 17.7115 3.84062 17.7069 3.8407C17.6059 3.84251 17.5016 3.8419 17.4018 3.84131C17.3539 3.84103 17.3071 3.84075 17.2621 3.84075C17.2482 3.84075 17.2321 3.84113 17.2139 3.84156C17.098 3.8443 16.9022 3.84891 16.7211 3.7674C16.5316 3.68212 16.4451 3.51384 16.4013 3.41004C16.3805 3.36093 16.3631 3.3101 16.3497 3.27137C16.3482 3.26699 16.3468 3.26277 16.3454 3.25873C16.3297 3.21325 16.3198 3.18653 16.3106 3.16739C16.3106 3.16741 16.3084 3.1631 16.3031 3.15626C16.2994 3.15143 16.2953 3.14688 16.2913 3.14298C16.28 3.14362 16.2681 3.1453 16.2536 3.14815C16.2388 3.15105 16.2226 3.15489 16.1998 3.16055C16.1969 3.16127 16.1938 3.16202 16.1907 3.16281C16.1708 3.16774 16.1462 3.17386 16.1204 3.17959C16.0878 3.18684 16.0529 3.20002 15.9904 3.22434L15.9866 3.22581C15.9323 3.24698 15.8535 3.27765 15.7669 3.29536C15.6623 3.31675 15.5358 3.30926 15.474 3.3056C15.4634 3.30497 15.4547 3.30446 15.4483 3.30422C15.3209 3.2995 15.2247 3.24459 15.1621 3.19652C15.1116 3.15771 15.0674 3.11016 15.0448 3.08596C15.0419 3.08284 15.0394 3.0801 15.0372 3.07782C14.9567 2.99258 14.8767 2.89184 14.8116 2.78544C14.7857 2.74306 14.7574 2.68606 14.7401 2.65133C14.7349 2.64085 14.7307 2.63239 14.7279 2.62699C14.7257 2.62279 14.7221 2.61672 14.711 2.6019L14.6892 2.57305C14.6817 2.5631 14.6728 2.55115 14.6633 2.53768C14.6625 2.5374 14.6616 2.53711 14.6605 2.53679C14.6523 2.53432 14.6393 2.53156 14.6198 2.52959C14.6003 2.52762 14.5777 2.52676 14.5507 2.52676H14.0076C14.0077 2.52676 14.008 2.52675 14.0076 2.52676C14.0046 2.52685 13.9858 2.52745 13.9534 2.52921C13.9208 2.53098 13.8809 2.53356 13.8426 2.53677C13.8115 2.53938 13.7853 2.5421 13.7661 2.54463Z" fill="#090C00"/>
<path fill-rule="evenodd" clip-rule="evenodd" d="M13.3835 4.16426C13.3835 3.99857 13.5179 3.86426 13.6835 3.86426C13.8086 3.86426 13.9515 3.87001 14.0853 3.87541C14.1771 3.8791 14.2647 3.88263 14.3393 3.88401C14.3475 3.88416 14.3559 3.88431 14.3646 3.88447C14.4902 3.88669 14.6643 3.88977 14.8353 3.91357C15.0119 3.93816 15.2319 3.99019 15.4046 4.12449C15.6972 4.35207 15.6977 4.71236 15.6977 4.89219C15.6977 4.91501 15.6972 4.93768 15.6968 4.95726L15.6967 4.96192C15.6963 4.98053 15.6959 4.99661 15.6958 5.01257C15.6955 5.04753 15.6966 5.07089 15.699 5.08803C15.6993 5.08963 15.6995 5.0911 15.6997 5.09244C15.7148 5.1034 15.7278 5.11353 15.7372 5.12079C15.738 5.12145 15.7389 5.12208 15.7396 5.12269C15.744 5.12603 15.7474 5.12871 15.7503 5.13088C15.7522 5.1311 15.7542 5.13132 15.7562 5.13154C15.8273 5.13954 15.8757 5.14498 15.9297 5.14498C15.9949 5.14498 16.0582 5.1305 16.1612 5.1047C16.1643 5.10394 16.1674 5.10316 16.1706 5.10237C16.264 5.07893 16.3935 5.04646 16.5395 5.04646C16.774 5.04646 16.9139 5.20108 16.9817 5.31704C17.0483 5.43093 17.0785 5.55701 17.0929 5.63651C17.1168 5.76794 17.1073 5.8829 17.0648 5.99527C17.0369 6.06916 16.9918 6.14392 16.9593 6.19773C16.9528 6.2086 16.9467 6.21862 16.9414 6.2276C16.8931 6.30983 16.826 6.35958 16.7774 6.38849C16.7284 6.41761 16.6801 6.43591 16.6509 6.44642C16.5084 6.49774 16.3705 6.54854 16.2384 6.60392C16.2204 6.61148 16.202 6.61883 16.1862 6.62513C16.1842 6.62593 16.1823 6.62672 16.1803 6.62749C16.1623 6.63471 16.1473 6.64078 16.1332 6.64681C16.1241 6.65073 16.1164 6.65422 16.1099 6.6573C16.0947 6.90112 15.9705 7.09511 15.8037 7.22325C15.6313 7.35566 15.4135 7.41978 15.2051 7.41978C15.07 7.41978 14.9411 7.37475 14.8475 7.33435C14.7486 7.29168 14.6569 7.23963 14.5914 7.20125C14.549 7.17641 14.5035 7.15941 14.4306 7.13225C14.413 7.12568 14.3937 7.11851 14.3726 7.11049C14.2789 7.075 14.1475 7.02217 14.0316 6.92407C13.821 6.7459 13.6036 6.54705 13.4546 6.24906C13.3805 6.10087 13.4406 5.92067 13.5888 5.84657C13.737 5.77247 13.9172 5.83254 13.9913 5.98074C14.0822 6.16262 14.2177 6.2956 14.4192 6.46604C14.4507 6.49269 14.4973 6.51611 14.5851 6.5494C14.5964 6.55368 14.609 6.55831 14.6226 6.56332C14.6971 6.59071 14.8025 6.6295 14.8949 6.68363C14.9558 6.71936 15.0215 6.75597 15.0852 6.78344C15.1541 6.81319 15.193 6.81978 15.2051 6.81978C15.2971 6.81978 15.3825 6.79018 15.4382 6.74739C15.488 6.70913 15.5115 6.66457 15.5115 6.60639C15.5115 6.39362 15.6281 6.25511 15.7465 6.1751C15.8242 6.12256 15.926 6.08245 15.9804 6.061C15.9911 6.0568 15.9999 6.05332 16.0064 6.0506C16.1537 5.98883 16.3039 5.93364 16.4477 5.88189C16.4482 5.8817 16.4488 5.8815 16.4493 5.88131C16.4508 5.87883 16.4522 5.87642 16.4536 5.87408C16.4637 5.85736 16.4718 5.84382 16.4811 5.82755C16.495 5.80306 16.5008 5.79056 16.5035 5.78327C16.5054 5.7782 16.5056 5.77661 16.5056 5.7755L16.5057 5.77536C16.5058 5.77339 16.5063 5.76432 16.5026 5.74385C16.4983 5.71986 16.4924 5.69457 16.4849 5.67103C16.4825 5.66349 16.4802 5.65666 16.4778 5.65052C16.4304 5.65651 16.378 5.66896 16.3069 5.68674C16.3036 5.68757 16.3003 5.68841 16.2969 5.68927C16.2038 5.71261 16.0748 5.74498 15.9297 5.74498C15.8394 5.74498 15.7558 5.73544 15.6876 5.72764C15.6781 5.72656 15.669 5.72552 15.6602 5.72454C15.561 5.71352 15.4866 5.67686 15.4308 5.63981C15.4073 5.62423 15.3863 5.60794 15.3734 5.59794L15.372 5.59687C15.357 5.58521 15.349 5.57909 15.3408 5.57342C15.1767 5.45978 15.1224 5.29613 15.1049 5.17145C15.093 5.08709 15.0956 4.98484 15.0971 4.92639C15.0974 4.91205 15.0977 4.90035 15.0977 4.89219C15.0977 4.79687 15.0936 4.72902 15.08 4.67634C15.0681 4.63036 15.0529 4.61106 15.0362 4.5981C14.9903 4.56239 14.8988 4.5282 14.7525 4.50784C14.6188 4.48921 14.478 4.48664 14.3466 4.48425C14.3405 4.48414 14.3343 4.48402 14.3282 4.48391C14.2185 4.48188 14.1238 4.4778 14.0327 4.47388C13.9179 4.46894 13.809 4.46426 13.6835 4.46426C13.5179 4.46426 13.3835 4.32994 13.3835 4.16426Z" fill="#090C00"/>
</svg>
