<svg width="24" height="24" viewBox="0 0 24 24" fill="none" xmlns="http://www.w3.org/2000/svg">
<path fill-rule="evenodd" clip-rule="evenodd" d="M9.79906 7.53423C9.77643 7.57056 9.7332 7.58847 9.69152 7.57878L5.79239 6.67209C5.72027 6.65532 5.65557 6.72002 5.67234 6.79214L6.57902 10.6913C6.58871 10.733 6.57081 10.7762 6.53448 10.7988L3.13625 12.9148C3.0734 12.9539 3.0734 13.0454 3.13625 13.0846L6.53448 15.2005C6.57081 15.2232 6.58871 15.2664 6.57902 15.3081L5.67234 19.2072C5.65557 19.2793 5.72027 19.344 5.79239 19.3273L9.69152 18.4206C9.7332 18.4109 9.77643 18.4288 9.79906 18.4651L11.915 21.8633C11.9542 21.9262 12.0457 21.9262 12.0848 21.8633L14.2008 18.4651C14.2234 18.4288 14.2666 18.4109 14.3083 18.4206L18.2075 19.3273C18.2796 19.344 18.3443 19.2793 18.3275 19.2072L17.4208 15.3081C17.4111 15.2664 17.429 15.2232 17.4654 15.2005L20.8636 13.0846C20.9265 13.0454 20.9265 12.9539 20.8636 12.9148L17.4654 10.7988C17.429 10.7762 17.4111 10.733 17.4208 10.6913L18.3275 6.79214C18.3443 6.72002 18.2796 6.65532 18.2075 6.67209L14.3083 7.57878C14.2666 7.58847 14.2234 7.57056 14.2008 7.53423L12.0848 4.13601C12.0457 4.07315 11.9542 4.07315 11.915 4.13601L9.79906 7.53423ZM11.9999 5.1348L10.3084 7.85138C10.15 8.10568 9.84741 8.23103 9.55562 8.16318L6.43862 7.43837L7.16343 10.5554C7.23128 10.8472 7.10593 11.1498 6.85162 11.3081L4.13505 12.9997L6.85162 14.6912C7.10593 14.8496 7.23128 15.1522 7.16343 15.444L6.43862 18.561L9.55562 17.8362C9.84741 17.7683 10.15 17.8937 10.3084 18.148L11.9999 20.8646L13.6915 18.148C13.8498 17.8937 14.1524 17.7683 14.4442 17.8362L17.5612 18.561L16.8364 15.444C16.7686 15.1522 16.8939 14.8496 17.1482 14.6912L19.8648 12.9997L17.1482 11.3081C16.8939 11.1498 16.7686 10.8472 16.8364 10.5554L17.5612 7.43837L14.4442 8.16318C14.1524 8.23103 13.8498 8.10568 13.6915 7.85138L11.9999 5.1348Z" fill="#090C00"/>
<path fill-rule="evenodd" clip-rule="evenodd" d="M9.6 9.48815V15.7251L12 16.7168L14.4 15.7251V9.48815H9.6ZM9.12806 9C9.05734 9 9 9.04665 9 9.10419V15.9607C9 15.9999 9.02708 16.0358 9.07007 16.0536L11.942 17.2403C11.9785 17.2554 12.0215 17.2554 12.058 17.2403L14.9299 16.0536C14.9729 16.0358 15 15.9999 15 15.9607V9.10419C15 9.04665 14.9427 9 14.8719 9H9.12806Z" fill="#090C00"/>
<path fill-rule="evenodd" clip-rule="evenodd" d="M10.4349 10.5482L10.082 10.208V10.6532V13.5457V14.7853V14.948H10.282H11.7919H11.9919H11.9963H12.1963H13.7062H13.9062V14.7853V13.5457V10.6532V10.208L13.5534 10.5482C13.4253 10.6717 13.2816 10.8985 13.1477 11.1502C13.0106 11.4079 12.8742 11.7106 12.765 12C12.6565 12.2877 12.5719 12.5703 12.5431 12.7855C12.5291 12.8904 12.5258 12.9954 12.5507 13.0805C12.5632 13.1235 12.5869 13.1756 12.6359 13.2191C12.6908 13.2678 12.766 13.2952 12.8491 13.2952C12.9399 13.2952 12.987 13.3264 13.021 13.3719C13.0614 13.426 13.0776 13.4978 13.0776 13.5457C13.0776 13.5935 13.0614 13.6654 13.021 13.7194C12.987 13.7649 12.9399 13.7961 12.8491 13.7961C12.6173 13.7961 12.3977 13.8869 12.232 13.9798C12.1435 14.0294 12.0627 14.084 11.9941 14.136C11.9255 14.084 11.8447 14.0294 11.7562 13.9798C11.5905 13.8869 11.3709 13.7961 11.1392 13.7961C11.0484 13.7961 11.0012 13.7649 10.9672 13.7194C10.9269 13.6654 10.9106 13.5935 10.9106 13.5457C10.9106 13.4978 10.9269 13.426 10.9672 13.3719C11.0012 13.3264 11.0484 13.2952 11.1392 13.2952C11.2222 13.2952 11.2974 13.2678 11.3523 13.2191C11.4013 13.1756 11.425 13.1235 11.4375 13.0805C11.4624 12.9954 11.4592 12.8904 11.4451 12.7855C11.4163 12.5703 11.3317 12.2877 11.2232 12C11.1141 11.7106 10.9776 11.4079 10.8406 11.1502C10.7067 10.8985 10.563 10.6717 10.4349 10.5482ZM12.1963 14.6226V14.4306C12.2614 14.3752 12.3539 14.3067 12.459 14.2478C12.6004 14.1685 12.738 14.1216 12.8491 14.1216C13.1011 14.1216 13.2682 14.0151 13.3628 13.8884C13.4065 13.83 13.435 13.7675 13.4527 13.7084H13.5062V14.6226H12.1963ZM11.7919 14.4306C11.7268 14.3752 11.6344 14.3067 11.5293 14.2478C11.3878 14.1685 11.2503 14.1216 11.1392 14.1216C10.8871 14.1216 10.72 14.0151 10.6254 13.8884C10.5818 13.83 10.5532 13.7675 10.5355 13.7084H10.482V14.6226H11.7919V14.4306ZM10.482 13.3829V11.2956C10.61 11.5381 10.738 11.8228 10.8408 12.0955C10.9466 12.376 11.0227 12.6357 11.0475 12.8208C11.0567 12.8899 11.0576 12.9403 11.0541 12.974C10.849 12.995 10.7089 13.0911 10.6254 13.2029C10.5818 13.2613 10.5532 13.3238 10.5355 13.3829H10.482ZM13.5062 13.3829V11.2956C13.3782 11.5381 13.2502 11.8228 13.1474 12.0955C13.0416 12.376 12.9655 12.6357 12.9407 12.8208C12.9315 12.8899 12.9307 12.9403 12.9342 12.974C13.1393 12.995 13.2793 13.0911 13.3628 13.2029C13.4065 13.2613 13.435 13.3238 13.4527 13.3829H13.5062Z" fill="#090C00"/>
<path fill-rule="evenodd" clip-rule="evenodd" d="M12.0564 10.0837C12.0412 10.0807 12.0253 10.0791 12.0089 10.0791C11.8984 10.0791 11.8089 10.152 11.8089 10.2418V13.0636C11.5103 13.3006 11.1829 13.7036 11.082 14.2138C10.9719 14.7705 11.135 15.4374 11.8561 16.1318C11.9067 16.1806 11.985 16.1991 12.0564 16.1849C12.1277 16.1991 12.206 16.1806 12.2567 16.1318C12.9777 15.4374 13.1408 14.7705 13.0307 14.2138C12.9298 13.7036 12.6025 13.3006 12.3039 13.0636V10.2418C12.3039 10.152 12.2143 10.0791 12.1039 10.0791C12.0875 10.0791 12.0716 10.0807 12.0564 10.0837ZM12.0564 13.3224C11.8187 13.521 11.5587 13.8522 11.477 14.2655C11.3919 14.6955 11.4966 15.2298 12.0564 15.8161C12.6162 15.2298 12.7209 14.6955 12.6358 14.2655C12.5541 13.8522 12.294 13.521 12.0564 13.3224Z" fill="#090C00"/>
<path fill-rule="evenodd" clip-rule="evenodd" d="M1.66786 0.599609H22.3318L22.393 0.925849C22.5567 1.79864 22.6736 2.64433 22.7482 3.46335C23.1354 7.7178 22.6618 12.2721 21.366 15.1632C19.8441 18.5588 17.5376 20.7365 15.6137 22.064C14.6518 22.7278 13.7841 23.1801 13.1546 23.4673C12.8397 23.611 12.584 23.7135 12.4055 23.7806C12.3162 23.8142 12.2461 23.8389 12.1976 23.8555C12.1733 23.8638 12.1544 23.87 12.1411 23.8744L12.1254 23.8794L12.1208 23.8809L12.1194 23.8813C12.1192 23.8814 12.1185 23.8816 11.9998 23.4996C11.8811 23.8816 11.881 23.8815 11.8808 23.8815L11.8788 23.8808L11.8742 23.8794L11.8585 23.8744C11.8452 23.87 11.8263 23.8638 11.8021 23.8555C11.7535 23.8389 11.6835 23.8142 11.5942 23.7806C11.4158 23.7135 11.1602 23.611 10.8454 23.4673C10.2162 23.1801 9.34878 22.7277 8.38726 22.064C6.46408 20.7364 4.1583 18.5587 2.63645 15.1632C1.3407 12.2722 0.86482 7.71799 1.25169 3.46339C1.32616 2.64436 1.44302 1.79867 1.60667 0.925889L1.66786 0.599609ZM11.9998 23.4996L11.8808 23.8815L11.9998 23.9185L12.1194 23.8813L11.9998 23.4996ZM11.9998 23.0772C12.0343 23.065 12.0758 23.0499 12.124 23.0318C12.2869 22.9706 12.5256 22.875 12.8225 22.7395C13.4166 22.4685 14.2422 22.0384 15.1594 21.4056C16.9935 20.1399 19.1875 18.0676 20.6359 14.836C21.8193 12.1957 22.3037 7.96935 21.9824 3.89961H2.01753C1.69674 7.9692 2.18307 12.1956 3.36648 14.836C4.8149 18.0677 7.0083 20.14 8.84173 21.4056C9.75851 22.0385 10.5838 22.4685 11.1776 22.7395C11.4744 22.875 11.713 22.9706 11.8758 23.0318C11.9239 23.0499 11.9654 23.065 11.9998 23.0772ZM2.09195 3.09961H21.9079C21.8477 2.54604 21.7675 1.97943 21.6659 1.39961H2.3338C2.23222 1.97943 2.1521 2.54604 2.09195 3.09961Z" fill="#090C00"/>
<path fill-rule="evenodd" clip-rule="evenodd" d="M11.7 9V4.5H12.3V9H11.7Z" fill="#090C00"/>
<path fill-rule="evenodd" clip-rule="evenodd" d="M17.9242 7.50044L14.9999 10.4247L14.5757 10.0004L17.4999 7.07617L17.9242 7.50044Z" fill="#090C00"/>
<path fill-rule="evenodd" clip-rule="evenodd" d="M6.49995 7.07617L9.42421 10.0004L8.99995 10.4247L6.07568 7.50044L6.49995 7.07617Z" fill="#090C00"/>
<path fill-rule="evenodd" clip-rule="evenodd" d="M14.5 12.7002H20V13.3002H14.5V12.7002Z" fill="#090C00"/>
<path fill-rule="evenodd" clip-rule="evenodd" d="M9.5 13.3002H3.5V12.7002H9.5V13.3002Z" fill="#090C00"/>
<path fill-rule="evenodd" clip-rule="evenodd" d="M9.42424 16.0004L6.21211 19.2126L5.78784 18.7883L8.99997 15.5762L9.42424 16.0004Z" fill="#090C00"/>
<path fill-rule="evenodd" clip-rule="evenodd" d="M14.9999 15.5762L18.2121 18.7883L17.7878 19.2126L14.5757 16.0004L14.9999 15.5762Z" fill="#090C00"/>
<path fill-rule="evenodd" clip-rule="evenodd" d="M12.3 17V21.5H11.7V17H12.3Z" fill="#090C00"/>
</svg>
