<svg width="24" height="24" viewBox="0 0 24 24" fill="none" xmlns="http://www.w3.org/2000/svg">
<path d="M18.4582 12.5759H13.8898V11.7081L21.6171 11.7082C21.6258 11.8944 21.6302 12.0827 21.6302 12.273C21.6302 14.796 20.9218 16.9176 19.7182 18.5331L18.9364 17.9264C19.6216 17.0256 20.0958 15.9723 20.3148 14.8179L20.7402 12.5759H18.4582Z" fill="#F5F5F3" stroke="#F5F5F3" stroke-width="3.77953"/>
<path d="M5.27461 14.2842L4.39625 14.9566L1.28711 17.3783C3.26165 21.2947 7.30862 24.0002 11.9995 24.0002C15.2394 24.0002 17.9557 22.9311 19.9412 21.0984L16.0467 18.0765C14.9776 18.7965 13.614 19.2329 11.9995 19.2329C8.87951 19.2329 6.22868 17.1275 5.27952 14.2911L5.27461 14.2842Z" fill="#F5F5F3"/>
<path d="M1.28718 6.62158C0.469042 8.23606 0 10.0579 0 11.9997C0 13.9415 0.469042 15.7633 1.28718 17.3778C1.28718 17.3886 5.27997 14.2796 5.27997 14.2796C5.03998 13.5596 4.89812 12.796 4.89812 11.9996C4.89812 11.2031 5.03998 10.4395 5.27997 9.71951L1.28718 6.62158Z" fill="#F5F5F3"/>
<path d="M11.9997 4.77818C13.767 4.77818 15.3379 5.38907 16.5925 6.56727L20.0288 3.13095C17.9452 1.18917 15.2398 0 11.9997 0C7.30887 0 3.26165 2.69454 1.28711 6.62183L5.27978 9.72001C6.22882 6.88362 8.87976 4.77818 11.9997 4.77818Z" fill="#F5F5F3"/>
</svg>
