<svg width="25" height="24" viewBox="0 0 25 24" fill="none" xmlns="http://www.w3.org/2000/svg">
<g clip-path="url(#clip0_6753_25449)">
<path d="M9.10128 22.9888C4.40909 21.539 1 17.1672 1 12C1 5.64878 6.14878 0.5 12.5 0.5C18.8512 0.5 24 5.64876 24.0005 12L9.10128 22.9888ZM9.10128 22.9888V16.1672H7.12688H6.62688V15.6672V12V11.5H7.12688H9.10128V10.4198C9.10128 8.31296 9.57699 6.6654 10.6695 5.54968C11.7642 4.43178 13.385 3.9424 15.4597 3.9424C16.2494 3.9424 17.609 4.09422 18.2021 4.25866L18.5685 4.36026V4.74048V8.06448V8.61978L18.0162 8.56174C17.7614 8.53496 17.2923 8.51984 16.6822 8.51984C15.7416 8.51984 15.2254 8.70198 14.931 8.99136C14.6388 9.27858 14.4544 9.78084 14.4544 10.703V11.5M9.10128 22.9888L14.4544 11.5M14.4544 11.5H17.8741H18.4743L18.3659 12.0903L17.6924 15.7575L17.6172 16.1672H17.2006H14.4544V23.3341C19.875 22.4067 24.0005 17.6851 24.0005 12L14.4544 11.5Z" fill="#F5F5F3" stroke="#F5F5F3"/>
</g>
<defs>
<clipPath id="clip0_6753_25449">
<rect width="24" height="24" fill="white" transform="translate(0.5)"/>
</clipPath>
</defs>
</svg>
