<svg width="25" height="24" viewBox="0 0 25 24" fill="none" xmlns="http://www.w3.org/2000/svg">
<g clip-path="url(#clip0_6756_25462)">
<path d="M20.5923 20.7361L20.5923 20.7361C21.0692 20.0562 21.4822 19.315 21.8321 18.507C21.9216 18.2943 22.008 18.0756 22.0916 17.8507C21.5905 17.5916 21.1309 17.2629 20.7115 16.8651C19.5171 15.7573 18.9076 14.3515 18.8899 12.6882L18.8898 12.6874C18.872 10.7108 19.7084 9.12663 21.3435 7.9693C20.4436 6.92962 19.1736 6.33175 17.486 6.19554L17.4839 6.19538C16.8382 6.14056 16.0057 6.2777 14.9645 6.65227C14.964 6.65244 14.9635 6.65262 14.963 6.6528L14.7937 6.18234C13.654 6.60054 12.9817 6.81032 12.7834 6.81032C12.5181 6.81032 11.9129 6.63091 10.9704 6.27715L20.5923 20.7361ZM20.5923 20.7361C19.9182 21.6973 19.3913 22.3248 19.0116 22.6546L19.0062 22.6592L19.001 22.664C18.4115 23.2062 17.8142 23.4569 17.1974 23.4728C16.7404 23.4716 16.1507 23.3396 15.4201 23.0392L15.4188 23.0387C14.6047 22.7066 13.8324 22.5321 13.1056 22.5321C12.3503 22.5321 11.5587 22.7052 10.734 23.038L10.7335 23.0382C9.9744 23.3455 9.41017 23.4849 9.01646 23.4982L9.01214 23.4984C8.45751 23.522 7.85377 23.2837 7.18938 22.6659L7.18355 22.6605L7.17755 22.6552C6.76005 22.2911 6.20772 21.6375 5.51863 20.6634L5.51799 20.6625C4.80359 19.6573 4.21127 18.4848 3.74464 17.1373C3.24621 15.6853 3 14.2901 3 12.9482C3 11.413 3.33114 10.1182 3.97264 9.04699L3.97266 9.047L3.97508 9.04287C4.48041 8.18039 5.14832 7.50552 5.98475 7.00902C6.81867 6.51401 7.71626 6.26203 8.68873 6.24517C9.17911 6.24601 9.87181 6.40103 10.7951 6.74541L20.5923 20.7361ZM14.3736 2.15426L14.3759 2.15164C14.7716 1.69744 15.2815 1.3116 15.9153 0.998527C16.3577 0.783047 16.7723 0.639757 17.1602 0.562915C17.1407 1.59869 16.7543 2.58028 15.9673 3.51476C15.0976 4.53105 14.1208 5.11259 13.1067 5.17715C13.1182 4.17572 13.5612 3.07375 14.3736 2.15426Z" fill="#F5F5F3" stroke="#F5F5F3"/>
</g>
<defs>
<clipPath id="clip0_6756_25462">
<rect width="24" height="24" fill="white" transform="translate(0.5)"/>
</clipPath>
</defs>
</svg>
