<svg width="24" height="24" viewBox="0 0 24 24" fill="none" xmlns="http://www.w3.org/2000/svg">
<path fill-rule="evenodd" clip-rule="evenodd" d="M9.82729 0.25915C8.89852 0.591974 7.67551 1.88319 7.28494 2.94359C7.11537 3.40361 6.97672 3.99807 6.97672 4.26447C6.97672 4.53102 6.88097 4.93547 6.76384 5.16353C6.31285 6.04161 6.70171 7.20085 7.53957 7.47579C7.97731 7.61948 8.04913 7.71759 8.1939 8.37079C8.3666 9.14888 8.64745 9.68009 9.21372 10.2993L9.56126 10.6794L7.80589 10.744C5.69087 10.8217 4.89547 11.1105 3.93935 12.1486C3.37564 12.7606 3.27561 12.8146 2.92423 12.6956C2.48863 12.5482 2.18668 12.734 2.31407 13.0713C2.35668 13.184 3.42594 13.6549 4.69028 14.1177C5.95448 14.5804 7.01491 15.0019 7.04683 15.0545C7.09442 15.1325 6.589 16.7389 6.46118 16.9166C6.38766 17.0186 1.84698 16.3098 1.84698 16.1964C1.84698 16.1324 1.98092 15.7164 2.14465 15.272C2.46041 14.415 2.69919 14.1177 2.04305 14.0687C1.80252 14.1174 1.01596 16.0204 1.00029 16.5914C0.993306 16.8487 1.10986 16.917 1.74011 17.0255C2.46255 17.1501 2.48677 17.1694 2.4446 17.5886C2.42051 17.8273 2.30837 18.4024 2.19523 18.8665C1.9329 19.9422 1.93547 20.4634 2.20563 20.9939C2.56742 21.7044 3.06829 21.869 4.54551 21.7625L5.83678 21.6694V22.3523C5.83678 22.9777 5.86371 23.0313 6.15739 22.989C6.43098 22.9495 6.48441 22.8418 6.52146 22.2553L6.56492 21.568H7.69888C8.34081 21.568 8.9531 21.4917 9.10984 21.3925C9.33299 21.2509 9.51922 21.2651 10.0697 21.4655C10.4454 21.6023 10.8384 21.7139 10.9433 21.7134C11.048 21.713 11.5289 21.3308 12.012 20.864C12.4949 20.3973 12.9644 20.0426 13.055 20.0758C13.1457 20.1089 13.3162 19.9962 13.4342 19.8253C13.7362 19.3874 14.2813 19.5573 14.1592 20.0512C14.0568 20.4659 14.6354 21.1339 15.0974 21.1339C15.2604 21.1339 15.5444 21.234 15.7285 21.3566C15.9126 21.479 16.1186 21.5681 16.1866 21.5547C16.2544 21.5412 16.5153 21.6169 16.7663 21.723C17.142 21.8816 17.2299 22.006 17.265 22.4291C17.2986 22.8355 17.3744 22.9524 17.6281 22.989C17.9259 23.0318 17.9488 22.9803 17.9508 22.2655C17.9532 21.448 18.106 21.0366 18.3504 21.19C18.4322 21.2414 18.5409 21.2145 18.592 21.1304C18.6975 20.957 19.1959 21.0766 19.5161 21.3519C19.78 21.5788 21.7179 22.2915 22.071 22.2915C22.2638 22.2915 22.4265 22.0124 22.7146 21.1884C22.9267 20.5817 23.0472 20.0344 22.9825 19.9723C22.9177 19.9101 22.3645 19.6806 21.7532 19.4622C20.8494 19.1395 20.662 19.0219 20.7502 18.8333C20.8099 18.7058 20.882 18.0642 20.9104 17.4077C20.9583 16.2994 20.9419 16.2139 20.6817 16.2139C20.3259 16.2139 20.2286 16.479 20.2286 17.4489C20.2286 18.2771 19.9906 19.0034 19.7464 18.9206C19.665 18.8931 19.5959 18.6888 19.5929 18.4665C19.5881 18.1199 19.4896 18.0234 18.8998 17.7875C18.5216 17.6363 18.153 17.5498 18.0805 17.5952C18.0031 17.6438 17.9487 17.0835 17.9487 16.2383C17.9487 15.364 17.8368 14.2463 17.6637 13.3921C17.5069 12.6185 17.3787 11.895 17.3787 11.7844C17.3787 11.5061 17.7214 11.5329 18.3462 11.8599C19.3923 12.4075 20.2286 13.6248 20.2286 14.5997C20.2286 15.0493 20.5466 15.4314 20.7923 15.2772C21.0527 15.1137 20.9499 13.9961 20.605 13.2443C20.1716 12.2988 19.4927 11.6231 18.5195 11.1681C17.8506 10.8555 17.478 10.7924 15.993 10.7409L14.2508 10.6803L14.7383 10.1021C15.2127 9.53915 15.6688 8.47715 15.6688 7.93523C15.6688 7.78777 15.7809 7.63077 15.9182 7.5862C16.5531 7.38014 16.8676 7.13385 17.0446 6.70407C17.2886 6.11121 17.2865 5.73628 17.036 5.1657C16.9259 4.91492 16.8012 4.373 16.759 3.96131C16.6275 2.67748 15.5765 1.00279 15.0348 1.21392C14.7268 1.33403 14.7593 1.64833 15.1134 1.97377C15.2782 2.12514 15.5042 2.42829 15.6158 2.64738C15.8143 3.03722 15.81 3.04561 15.4097 3.04561C15.0943 3.04561 14.8638 2.8805 14.4005 2.32251C13.9156 1.73848 13.6879 1.58104 13.2166 1.50464C12.5921 1.4032 11.991 0.934349 12.2059 0.716132C12.2814 0.639438 12.671 0.67547 13.1581 0.804258C14.022 1.03275 14.2439 0.999611 14.2439 0.642043C14.2439 0.0267524 11.2099 -0.236323 9.82729 0.25915ZM11.5435 1.18151C11.7515 1.69145 12.4352 2.17607 12.948 2.1768C13.1779 2.17723 13.5124 2.42222 13.9636 2.92044C14.5712 3.59159 14.7068 3.67045 15.3663 3.7347C16.0611 3.80257 16.0963 3.8263 16.0963 4.22641V4.64693L14.4932 4.60598L12.8902 4.56502L12.9341 4.10095C12.9929 3.47958 12.7731 3.10566 12.181 2.82045C11.9107 2.69021 11.6543 2.47113 11.6113 2.33366C11.5684 2.19619 11.3984 1.93673 11.2337 1.75715C10.9905 1.49205 10.8119 1.43952 10.2861 1.47844C9.46166 1.53922 9.34923 1.27614 10.07 0.972696C10.946 0.60384 11.33 0.658394 11.5435 1.18151ZM10.0829 2.25465C10.6119 2.16392 10.6649 2.18808 10.9456 2.64955C11.1102 2.91986 11.4707 3.2647 11.7468 3.41562C12.2691 3.70127 12.3015 3.77203 12.1592 4.31179C12.0865 4.58716 11.9761 4.63738 11.443 4.63738C10.7019 4.63738 9.7428 4.18517 9.61484 3.77536C9.45909 3.27714 8.82913 2.8779 8.36289 2.98194C7.96634 3.07035 7.95622 3.06008 8.12194 2.73435C8.21698 2.54739 8.42659 2.24756 8.58761 2.06798L8.88029 1.74166L9.1999 2.04641C9.46037 2.29502 9.62339 2.33351 10.0829 2.25465ZM9.2559 4.52885C9.25633 4.58861 8.90394 4.63738 8.4729 4.63738C7.74476 4.63738 7.68919 4.61321 7.68919 4.29659C7.68919 4.03844 7.80176 3.92021 8.15229 3.80937C8.56637 3.67855 8.64931 3.70315 8.93529 4.04162C9.11127 4.24985 9.25547 4.46908 9.2559 4.52885ZM8.11667 6.15679C8.11667 6.59453 8.05255 6.95267 7.97417 6.95267C7.68691 6.95267 7.26171 6.36256 7.26171 5.9639C7.26171 5.46582 7.35262 5.36091 7.78423 5.36091C8.09216 5.36091 8.11667 5.41951 8.11667 6.15679ZM14.9532 6.84414C14.9498 8.49799 14.7362 9.18621 14.0125 9.8753C12.4876 11.3274 9.97734 10.8322 9.0993 8.90621C8.89753 8.46369 8.83469 7.97792 8.83227 6.84414L8.82913 5.36091H11.8927H14.9563L14.9532 6.84414ZM16.499 5.84625C16.5434 6.24029 16.0846 6.95267 15.7865 6.95267C15.7218 6.95267 15.6688 6.59019 15.6688 6.14724C15.6688 5.35382 15.6746 5.34238 16.0606 5.38753C16.3724 5.42385 16.462 5.51762 16.499 5.84625ZM13.1039 11.6889C13.1039 11.9219 12.9385 12.0971 12.5083 12.3201L11.9128 12.6286L11.2971 12.3249C10.8408 12.0997 10.6815 11.9365 10.6815 11.6937C10.6815 11.3792 10.7296 11.3662 11.8927 11.3662C13.0505 11.3662 13.1039 11.3804 13.1039 11.6889ZM8.51422 12.7869L8.55555 14.0628L9.01295 14.2538C9.79894 14.5817 11.5421 14.8079 12.551 14.7125C13.7232 14.602 13.9589 14.5162 13.9589 14.2003C13.9589 13.981 13.7607 13.9551 12.1421 13.9625C10.9752 13.9679 10.1342 13.9022 9.79096 13.7787L9.25661 13.5867V12.5126C9.25661 11.4635 9.26487 11.4386 9.61284 11.4386C9.92476 11.4386 9.96907 11.5014 9.96907 11.943C9.96907 12.4207 10.0201 12.4736 10.9306 12.9397L11.892 13.432L12.8543 12.9399C13.7655 12.4738 13.8164 12.4213 13.8164 11.9432C13.8164 11.5014 13.8607 11.4386 14.1726 11.4386C14.5236 11.4386 14.5288 11.4561 14.531 12.6324C14.5334 13.9075 14.6515 14.2822 15.0075 14.1434C15.1812 14.0758 15.239 13.7773 15.2712 12.7839L15.3126 11.5109L15.9135 11.4666C16.5974 11.4163 16.494 11.2122 16.9524 13.5165C17.1085 14.3013 17.2362 15.1316 17.2362 15.3615V15.7797H14.246H11.2559L9.22312 15.0404C6.44551 14.0301 6.68761 14.2372 6.92144 13.0704C7.28023 11.2811 7.19958 11.4171 7.87201 11.4666L8.4729 11.5109L8.51422 12.7869ZM6.40675 11.7475C6.40675 12.3538 6.04525 13.7539 5.88879 13.7539C5.59668 13.7539 4.12687 13.1653 4.12687 13.0483C4.12687 12.8764 5.01773 12.0699 5.48055 11.823C5.98725 11.5526 6.40675 11.5183 6.40675 11.7475ZM3.12984 15.1281C2.84457 15.4772 3.08097 15.6084 4.46472 15.869C5.34319 16.0346 5.76097 16.0593 5.8667 15.9519C6.19501 15.6185 5.84932 15.3874 4.75441 15.208C4.14511 15.1082 3.57243 14.9976 3.48209 14.9624C3.3916 14.9271 3.23301 15.0018 3.12984 15.1281ZM8.72996 15.6211C8.79949 15.6918 8.74976 15.9499 8.61582 16.213C8.40507 16.6269 8.32855 16.6693 7.93727 16.5898C7.69475 16.5406 7.47759 16.4813 7.45479 16.4583C7.43213 16.4351 7.48799 16.1697 7.57904 15.8684C7.73279 15.3595 7.77511 15.327 8.17552 15.4083C8.41248 15.4563 8.66199 15.5521 8.72996 15.6211ZM11.8215 16.7519C12.8011 17.1151 13.6559 17.4605 13.7211 17.5194C13.836 17.6234 13.4641 18.4818 13.078 19.0042C12.8983 19.2472 12.7654 19.2178 10.7884 18.4978C9.63407 18.0772 8.68892 17.6959 8.68806 17.6505C8.68735 17.6049 8.88613 17.1937 9.12979 16.7367C9.46565 16.1069 9.62951 15.9282 9.80663 15.9985C9.93516 16.0496 10.8418 16.3887 11.8215 16.7519ZM9.6838 16.7206C9.59204 16.8329 9.55385 16.9851 9.59874 17.0591C9.71031 17.2423 12.4101 18.2397 12.7949 18.2397C13.0089 18.2397 13.1039 18.1508 13.1039 17.9503C13.1039 17.7912 13.0827 17.6609 13.0566 17.6609C13.0305 17.6609 12.2985 17.4035 11.4299 17.0888C10.0933 16.6046 9.82487 16.548 9.6838 16.7206ZM17.2362 17.2268C17.2362 17.6247 17.2141 17.9503 17.1873 17.9503C17.1604 17.9503 16.7795 17.825 16.3409 17.6718C15.6865 17.443 15.5156 17.4274 15.3875 17.5841C15.1608 17.8613 15.4767 18.1264 16.4229 18.453C17.1209 18.694 17.2847 18.704 17.7855 18.5361C18.5121 18.2926 18.8593 18.4104 18.7231 18.854C18.4106 19.8729 18.394 19.8927 18.0855 19.6092C17.9296 19.466 17.6908 19.3394 17.5547 19.3279C17.4187 19.3167 17.1674 19.2298 16.9963 19.1353C16.825 19.0407 16.5685 18.9613 16.4263 18.9586C16.2839 18.9562 16.043 18.8585 15.8909 18.7416C15.5286 18.4633 15.1649 18.4732 14.6621 18.7747C14.0908 19.1175 13.9948 18.9226 14.3594 18.1603C14.7907 17.2589 14.7585 17.1096 14.0657 16.797L13.4602 16.5237L15.3482 16.5135L17.2362 16.5033V17.2268ZM7.60412 17.2468L7.95993 17.4115L7.67209 17.9845C7.40862 18.5088 7.3455 18.5507 6.93113 18.4775C6.68191 18.4335 5.72464 18.3532 4.80371 18.2989L3.12942 18.2004V17.7945C3.12942 17.5712 3.18242 17.3553 3.24726 17.3146C3.31209 17.274 3.96927 17.334 4.70781 17.4482C6.57561 17.7369 6.93754 17.725 7.04797 17.3715C7.15398 17.0323 7.14515 17.0343 7.60412 17.2468ZM6.86985 19.2044C6.9287 19.2404 6.97672 19.6175 6.97672 20.0425V20.8151L5.94365 20.9062C5.37553 20.9565 4.54751 21.0339 4.10378 21.0784C3.41226 21.1478 3.25452 21.1162 2.99946 20.8572C2.63839 20.4905 2.60803 19.7427 2.93491 19.2686C3.16518 18.9348 3.18955 18.932 4.96544 19.0348C5.95405 19.0921 6.811 19.1683 6.86985 19.2044ZM10.1472 19.4722C10.5601 19.6392 10.4444 19.9762 9.97406 19.9762C9.70774 19.9762 9.37146 20.1367 9.06467 20.4103C8.74634 20.6941 8.42388 20.8445 8.13348 20.8445H7.68919V20.0279V19.2113L8.79351 19.2913C9.40096 19.3355 10.01 19.4168 10.1472 19.4722ZM15.5263 19.3758C15.5263 19.6453 15.2061 20.4103 15.0933 20.4103C14.8609 20.4103 14.8245 20.1587 14.9921 19.7081C15.1434 19.3009 15.5263 19.0627 15.5263 19.3758ZM11.9363 19.6784C12.189 19.8159 10.9137 21.0151 10.6317 20.9051C10.4721 20.8429 10.5017 20.7508 10.7685 20.4799C10.9558 20.2897 11.109 19.9639 11.109 19.756C11.109 19.4308 11.1539 19.3919 11.4296 19.4776C11.6059 19.5323 11.834 19.6227 11.9363 19.6784ZM19.8128 19.6868C19.9742 19.6868 19.9806 20.1271 19.8227 20.3798C19.736 20.5187 19.6096 20.529 19.3274 20.42C18.9822 20.2868 18.9634 20.2409 19.1153 19.9023C19.2167 19.6762 19.3602 19.5615 19.4819 19.6088C19.5919 19.6518 19.7408 19.6868 19.8128 19.6868ZM16.6662 19.7638C16.6662 20.0489 16.2175 20.8482 16.0993 20.774C15.918 20.6602 15.9169 20.5278 16.0927 20.058C16.2087 19.7483 16.6662 19.5136 16.6662 19.7638ZM22.1062 20.6338C22.0808 20.7698 22.0042 21.0307 21.9358 21.2136C21.8117 21.5451 21.8098 21.5453 21.169 21.2983C20.8156 21.1621 20.4907 21.0143 20.447 20.9698C20.4031 20.9253 20.4628 20.6568 20.5797 20.3729L20.7918 19.857L21.4721 20.1217C21.965 20.3135 22.1395 20.4545 22.1062 20.6338ZM17.5846 20.6079C17.5323 20.8191 17.427 21.0311 17.3505 21.0792C17.0695 21.2556 16.9774 20.9032 17.1788 20.4212C17.4206 19.8427 17.7376 19.9885 17.5846 20.6079Z" fill="#090C00"/>
</svg>
