<svg width="24" height="24" viewBox="0 0 24 24" fill="none" xmlns="http://www.w3.org/2000/svg">
<path fill-rule="evenodd" clip-rule="evenodd" d="M8.32104 6.14158C11.0428 4.78088 13.3725 4.87705 14.93 5.0353C15.4593 5.08909 15.9056 5.44251 16.0901 5.93438L20.2651 17.0679C20.3609 17.3234 20.3986 17.6471 20.2599 17.9563C19.8635 18.8405 18.681 20.286 16.1575 21.3675L15.8423 20.6322C18.2184 19.6139 19.2308 18.2962 19.53 17.629C19.5573 17.5681 19.5626 17.473 19.516 17.3488L15.341 6.21528C15.2609 6.00174 15.0692 5.85358 14.8491 5.83121C13.3578 5.67967 11.2048 5.59428 8.67878 6.85714L8.32104 6.14158Z" fill="#090C00"/>
<path fill-rule="evenodd" clip-rule="evenodd" d="M6.98608 3.83496C7.26223 3.83496 7.48608 3.6111 7.48608 3.33496C7.48608 3.05882 7.26223 2.83496 6.98608 2.83496C6.70994 2.83496 6.48608 3.05882 6.48608 3.33496C6.48608 3.6111 6.70994 3.83496 6.98608 3.83496ZM6.98608 4.33496C7.53837 4.33496 7.98608 3.88725 7.98608 3.33496C7.98608 2.78268 7.53837 2.33496 6.98608 2.33496C6.4338 2.33496 5.98608 2.78268 5.98608 3.33496C5.98608 3.88725 6.4338 4.33496 6.98608 4.33496Z" fill="#090C00"/>
<path fill-rule="evenodd" clip-rule="evenodd" d="M7.77979 5.12598C8.05593 5.12598 8.27979 4.90212 8.27979 4.62598C8.27979 4.34983 8.05593 4.12598 7.77979 4.12598C7.50364 4.12598 7.27979 4.34983 7.27979 4.62598C7.27979 4.90212 7.50364 5.12598 7.77979 5.12598ZM7.77979 5.62598C8.33207 5.62598 8.77979 5.17826 8.77979 4.62598C8.77979 4.07369 8.33207 3.62598 7.77979 3.62598C7.2275 3.62598 6.77979 4.07369 6.77979 4.62598C6.77979 5.17826 7.2275 5.62598 7.77979 5.62598Z" fill="#090C00"/>
<path fill-rule="evenodd" clip-rule="evenodd" d="M15.001 2C15.2771 2 15.501 1.77614 15.501 1.5C15.501 1.22386 15.2771 1 15.001 1C14.7248 1 14.501 1.22386 14.501 1.5C14.501 1.77614 14.7248 2 15.001 2ZM15.001 2.5C15.5533 2.5 16.001 2.05228 16.001 1.5C16.001 0.947715 15.5533 0.5 15.001 0.5C14.4487 0.5 14.001 0.947715 14.001 1.5C14.001 2.05228 14.4487 2.5 15.001 2.5Z" fill="#090C00"/>
<path fill-rule="evenodd" clip-rule="evenodd" d="M13.9983 3.50098C14.2744 3.50098 14.4983 3.27712 14.4983 3.00098C14.4983 2.72483 14.2744 2.50098 13.9983 2.50098C13.7221 2.50098 13.4983 2.72483 13.4983 3.00098C13.4983 3.27712 13.7221 3.50098 13.9983 3.50098ZM13.9983 4.00098C14.5506 4.00098 14.9983 3.55326 14.9983 3.00098C14.9983 2.44869 14.5506 2.00098 13.9983 2.00098C13.446 2.00098 12.9983 2.44869 12.9983 3.00098C12.9983 3.55326 13.446 4.00098 13.9983 4.00098Z" fill="#090C00"/>
<path fill-rule="evenodd" clip-rule="evenodd" d="M14.001 4.99805C14.2771 4.99805 14.501 4.77419 14.501 4.49805C14.501 4.2219 14.2771 3.99805 14.001 3.99805C13.7248 3.99805 13.501 4.2219 13.501 4.49805C13.501 4.77419 13.7248 4.99805 14.001 4.99805ZM14.001 5.49805C14.5533 5.49805 15.001 5.05033 15.001 4.49805C15.001 3.94576 14.5533 3.49805 14.001 3.49805C13.4487 3.49805 13.001 3.94576 13.001 4.49805C13.001 5.05033 13.4487 5.49805 14.001 5.49805Z" fill="#090C00"/>
<path fill-rule="evenodd" clip-rule="evenodd" d="M10.9993 9.49805C11.5516 9.49805 11.9993 9.05033 11.9993 8.49805C11.9993 7.94576 11.5516 7.49805 10.9993 7.49805C10.447 7.49805 9.99927 7.94576 9.99927 8.49805C9.99927 9.05033 10.447 9.49805 10.9993 9.49805ZM10.9993 9.99805C11.8277 9.99805 12.4993 9.32647 12.4993 8.49805C12.4993 7.66962 11.8277 6.99805 10.9993 6.99805C10.1708 6.99805 9.49927 7.66962 9.49927 8.49805C9.49927 9.32647 10.1708 9.99805 10.9993 9.99805Z" fill="#090C00"/>
<path fill-rule="evenodd" clip-rule="evenodd" d="M6.41772 2.4082C6.69387 2.4082 6.91772 2.18435 6.91772 1.9082C6.91772 1.63206 6.69387 1.4082 6.41772 1.4082C6.14158 1.4082 5.91772 1.63206 5.91772 1.9082C5.91772 2.18435 6.14158 2.4082 6.41772 2.4082ZM6.41772 2.9082C6.97001 2.9082 7.41772 2.46049 7.41772 1.9082C7.41772 1.35592 6.97001 0.908203 6.41772 0.908203C5.86544 0.908203 5.41772 1.35592 5.41772 1.9082C5.41772 2.46049 5.86544 2.9082 6.41772 2.9082Z" fill="#090C00"/>
<path fill-rule="evenodd" clip-rule="evenodd" d="M13.9999 10.5996C14.2208 10.5996 14.3999 10.7787 14.3999 10.9996V15.9996C14.3999 16.2205 14.2208 16.3996 13.9999 16.3996C13.779 16.3996 13.5999 16.2205 13.5999 15.9996V10.9996C13.5999 10.7787 13.779 10.5996 13.9999 10.5996Z" fill="#090C00"/>
<path fill-rule="evenodd" clip-rule="evenodd" d="M11.9999 10.5996C12.2208 10.5996 12.3999 10.7787 12.3999 10.9996V16.9996C12.3999 17.2205 12.2208 17.3996 11.9999 17.3996C11.779 17.3996 11.5999 17.2205 11.5999 16.9996V10.9996C11.5999 10.7787 11.779 10.5996 11.9999 10.5996Z" fill="#090C00"/>
<path fill-rule="evenodd" clip-rule="evenodd" d="M9.9999 10.5996C10.2208 10.5996 10.3999 10.7787 10.3999 10.9996V14.9996C10.3999 15.2205 10.2208 15.3996 9.9999 15.3996C9.77899 15.3996 9.5999 15.2205 9.5999 14.9996V10.9996C9.5999 10.7787 9.77899 10.5996 9.9999 10.5996Z" fill="#090C00"/>
<path fill-rule="evenodd" clip-rule="evenodd" d="M7.9999 10.5996C8.22082 10.5996 8.3999 10.7787 8.3999 10.9996V18.9996C8.3999 19.2205 8.22082 19.3996 7.9999 19.3996C7.77899 19.3996 7.5999 19.2205 7.5999 18.9996L7.5999 10.9996C7.5999 10.7787 7.77899 10.5996 7.9999 10.5996Z" fill="#090C00"/>
<path fill-rule="evenodd" clip-rule="evenodd" d="M5.69981 7.37722C9.83484 4.66647 13.9253 6.09064 15.838 7.38647C16.2132 7.64065 16.4001 8.06314 16.4001 8.48196V20.4524C16.4001 20.927 16.1586 21.3877 15.726 21.6326C11.6633 23.9321 7.65893 22.7432 5.73688 21.6256C5.31603 21.3808 5.1001 20.9304 5.1001 20.4807V8.51056C5.1001 8.06669 5.31065 7.63234 5.69981 7.37722ZM15.3893 8.04878C13.6393 6.86321 9.91147 5.57282 6.13841 8.04627C5.99243 8.14197 5.9001 8.31456 5.9001 8.51056V20.4807C5.9001 20.6836 5.9957 20.8506 6.13903 20.934C7.90516 21.961 11.5953 23.0512 15.3319 20.9363C15.4943 20.8444 15.6001 20.6616 15.6001 20.4524V8.48196C15.6001 8.29322 15.5171 8.13537 15.3893 8.04878Z" fill="#090C00"/>
<path fill-rule="evenodd" clip-rule="evenodd" d="M9.09204 7.92383C9.36818 7.92383 9.59204 7.69997 9.59204 7.42383C9.59204 7.14769 9.36818 6.92383 9.09204 6.92383C8.8159 6.92383 8.59204 7.14769 8.59204 7.42383C8.59204 7.69997 8.8159 7.92383 9.09204 7.92383ZM9.09204 8.42383C9.64433 8.42383 10.092 7.97611 10.092 7.42383C10.092 6.87154 9.64433 6.42383 9.09204 6.42383C8.53976 6.42383 8.09204 6.87154 8.09204 7.42383C8.09204 7.97611 8.53976 8.42383 9.09204 8.42383Z" fill="#090C00"/>
<path fill-rule="evenodd" clip-rule="evenodd" d="M8.49829 6.49902C8.77443 6.49902 8.99829 6.27517 8.99829 5.99902C8.99829 5.72288 8.77443 5.49902 8.49829 5.49902C8.22215 5.49902 7.99829 5.72288 7.99829 5.99902C7.99829 6.27517 8.22215 6.49902 8.49829 6.49902ZM8.49829 6.99902C9.05058 6.99902 9.49829 6.55131 9.49829 5.99902C9.49829 5.44674 9.05058 4.99902 8.49829 4.99902C7.94601 4.99902 7.49829 5.44674 7.49829 5.99902C7.49829 6.55131 7.94601 6.99902 8.49829 6.99902Z" fill="#090C00"/>
<path fill-rule="evenodd" clip-rule="evenodd" d="M10.5 8.5C10.7761 8.5 11 8.27614 11 8C11 7.72386 10.7761 7.5 10.5 7.5C10.2239 7.5 10 7.72386 10 8C10 8.27614 10.2239 8.5 10.5 8.5ZM10.5 9C11.0523 9 11.5 8.55228 11.5 8C11.5 7.44772 11.0523 7 10.5 7C9.94772 7 9.5 7.44772 9.5 8C9.5 8.55228 9.94772 9 10.5 9Z" fill="#090C00"/>
</svg>
