<svg width="32" height="32" fill="none" xmlns="http://www.w3.org/2000/svg"><path fill-rule="evenodd" clip-rule="evenodd" d="M4.176.214c-.183.2-.195.935-.161 9.95L4.05 19.9l.267.918c.397 1.365 1.281 3.091 2.086 4.071.982 1.197 6.783 6.841 7.184 6.99.495.183 4.498.152 4.847-.038.476-.26 6.613-6.224 7.242-7.038.715-.926 1.642-2.74 2.007-3.928l.264-.86.037-9.793c.034-9.068.022-9.808-.16-10.007C27.646.022 27.434 0 25.74 0c-1.418 0-2.02.045-2.43.183-.744.249-1.617 1.047-1.96 1.792l-.277.606-.059 8.143c-.058 8.094-.06 8.147-.318 8.774-.334.809-.77 1.316-2.792 3.242-1.332 1.27-1.716 1.575-1.982 1.575-.274 0-.656-.323-2.2-1.864-1.991-1.987-2.393-2.561-2.62-3.743-.072-.38-.118-3.579-.118-8.282 0-7.39-.008-7.687-.234-8.28C10.443 1.337 9.626.534 8.802.23 8.271.034 7.893 0 6.275 0c-1.71 0-1.922.022-2.1.214ZM14.82.158c-1.027.361-1.613.908-2.111 1.97l-.266.567v15.718l.372.743c.502 1.002 2.623 3.094 3.137 3.094.275 0 .595-.256 1.755-1.407 1.271-1.26 1.44-1.474 1.61-2.05.169-.57.186-1.514.157-8.484l-.033-7.843-.346-.614C18.662 1.083 17.953.462 17.212.2c-.665-.234-1.788-.254-2.392-.042Z" fill="#000"/></svg>